<?xml version="1.0" encoding="utf-8" standalone="no"?>
<!DOCTYPE svg PUBLIC "-//W3C//DTD SVG 1.1//EN"
  "http://www.w3.org/Graphics/SVG/1.1/DTD/svg11.dtd">
<svg xmlns:xlink="http://www.w3.org/1999/xlink" width="347.76pt" height="240.247656pt" viewBox="0 0 347.76 240.247656" xmlns="http://www.w3.org/2000/svg" version="1.1">
 <metadata>
  <rdf:RDF xmlns:dc="http://purl.org/dc/elements/1.1/" xmlns:cc="http://creativecommons.org/ns#" xmlns:rdf="http://www.w3.org/1999/02/22-rdf-syntax-ns#">
   <cc:Work>
    <dc:type rdf:resource="http://purl.org/dc/dcmitype/StillImage"/>
    <dc:date>2023-11-08T15:00:35.245094</dc:date>
    <dc:format>image/svg+xml</dc:format>
    <dc:creator>
     <cc:Agent>
      <dc:title>Matplotlib v3.8.1, https://matplotlib.org/</dc:title>
     </cc:Agent>
    </dc:creator>
   </cc:Work>
  </rdf:RDF>
 </metadata>
 <defs>
  <style type="text/css">*{stroke-linejoin: round; stroke-linecap: butt}</style>
 </defs>
 <g id="figure_1">
  <g id="patch_1">
   <path d="M 0 240.247656 
L 347.76 240.247656 
L 347.76 -0 
L 0 -0 
z
" style="fill: #ffffff"/>
  </g>
  <g id="axes_1">
   <g id="patch_2">
    <path d="M 284.4 104.617656 
C 285.545677 104.617656 286.644585 104.162474 287.454701 103.352358 
C 288.264818 102.542241 288.72 101.443334 288.72 100.297656 
C 288.72 99.151979 288.264818 98.053071 287.454701 97.242955 
C 286.644585 96.432839 285.545677 95.977656 284.4 95.977656 
C 283.254323 95.977656 282.155415 96.432839 281.345299 97.242955 
C 280.535182 98.053071 280.08 99.151979 280.08 100.297656 
C 280.08 101.443334 280.535182 102.542241 281.345299 103.352358 
C 282.155415 104.162474 283.254323 104.617656 284.4 104.617656 
L 284.4 104.617656 
z
" clip-path="url(#pdb31f9465a)" style="fill: none; stroke: #000000; stroke-width: 2; stroke-linejoin: miter"/>
   </g>
   <g id="patch_3">
    <path d="M 284.4 203.617656 
C 285.545677 203.617656 286.644585 203.162474 287.454701 202.352358 
C 288.264818 201.542241 288.72 200.443334 288.72 199.297656 
C 288.72 198.151979 288.264818 197.053071 287.454701 196.242955 
C 286.644585 195.432839 285.545677 194.977656 284.4 194.977656 
C 283.254323 194.977656 282.155415 195.432839 281.345299 196.242955 
C 280.535182 197.053071 280.08 198.151979 280.08 199.297656 
C 280.08 200.443334 280.535182 201.542241 281.345299 202.352358 
C 282.155415 203.162474 283.254323 203.617656 284.4 203.617656 
L 284.4 203.617656 
z
" clip-path="url(#pdb31f9465a)" style="fill: none; stroke: #000000; stroke-width: 2; stroke-linejoin: miter"/>
   </g>
   <g id="patch_4">
    <path d="M 185.4 95.617656 
C 186.545677 95.617656 187.644585 95.162474 188.454701 94.352358 
C 189.264818 93.542241 189.72 92.443334 189.72 91.297656 
C 189.72 90.151979 189.264818 89.053071 188.454701 88.242955 
C 187.644585 87.432839 186.545677 86.977656 185.4 86.977656 
C 184.254323 86.977656 183.155415 87.432839 182.345299 88.242955 
C 181.535182 89.053071 181.08 90.151979 181.08 91.297656 
C 181.08 92.443334 181.535182 93.542241 182.345299 94.352358 
C 183.155415 95.162474 184.254323 95.617656 185.4 95.617656 
L 185.4 95.617656 
z
" clip-path="url(#pdb31f9465a)" style="fill: none; stroke: #000000; stroke-width: 2; stroke-linejoin: miter"/>
   </g>
   <g id="patch_5">
    <path d="M 185.4 212.617656 
C 186.545677 212.617656 187.644585 212.162474 188.454701 211.352358 
C 189.264818 210.542241 189.72 209.443334 189.72 208.297656 
C 189.72 207.151979 189.264818 206.053071 188.454701 205.242955 
C 187.644585 204.432839 186.545677 203.977656 185.4 203.977656 
C 184.254323 203.977656 183.155415 204.432839 182.345299 205.242955 
C 181.535182 206.053071 181.08 207.151979 181.08 208.297656 
C 181.08 209.443334 181.535182 210.542241 182.345299 211.352358 
C 183.155415 212.162474 184.254323 212.617656 185.4 212.617656 
L 185.4 212.617656 
z
" clip-path="url(#pdb31f9465a)" style="fill: none; stroke: #000000; stroke-width: 2; stroke-linejoin: miter"/>
   </g>
   <g id="patch_6">
    <path d="M 84.78 86.617656 
C 85.925677 86.617656 87.024585 86.162474 87.834701 85.352358 
C 88.644818 84.542241 89.1 83.443334 89.1 82.297656 
C 89.1 81.151979 88.644818 80.053071 87.834701 79.242955 
C 87.024585 78.432839 85.925677 77.977656 84.78 77.977656 
C 83.634323 77.977656 82.535415 78.432839 81.725299 79.242955 
C 80.915182 80.053071 80.46 81.151979 80.46 82.297656 
C 80.46 83.443334 80.915182 84.542241 81.725299 85.352358 
C 82.535415 86.162474 83.634323 86.617656 84.78 86.617656 
L 84.78 86.617656 
z
" clip-path="url(#pdb31f9465a)" style="fill: none; stroke: #000000; stroke-width: 2; stroke-linejoin: miter"/>
   </g>
   <g id="line2d_1">
    <path d="M 262.08 118.297656 
L 263.233264 118.260673 
L 264.381789 118.149876 
L 265.520855 117.965721 
L 266.645783 117.708964 
L 267.751948 117.38066 
L 268.834806 116.982158 
L 269.889907 116.515096 
L 270.912916 115.981393 
L 271.899628 115.383242 
L 272.84599 114.723101 
L 273.748111 114.003684 
L 274.602286 113.227945 
L 275.405004 112.399072 
L 276.152967 111.520473 
L 276.843101 110.595756 
L 277.47257 109.628722 
L 278.038788 108.623345 
L 278.539427 107.583756 
L 278.972432 106.514227 
L 279.336021 105.419153 
L 279.628702 104.303033 
L 279.849272 103.170454 
L 279.996824 102.026071 
L 280.070752 100.874585 
L 280.070752 99.720728 
L 279.996824 98.569242 
L 279.849272 97.424858 
L 279.628702 96.292279 
L 279.336021 95.17616 
L 278.972432 94.081085 
L 278.539427 93.011556 
L 278.038788 91.971967 
L 277.47257 90.96659 
L 276.843101 89.999556 
L 276.152967 89.07484 
L 275.405004 88.19624 
L 274.602286 87.367368 
L 273.748111 86.591629 
L 272.84599 85.872211 
L 271.899628 85.21207 
L 270.912916 84.61392 
L 269.889907 84.080217 
L 268.834806 83.613155 
L 267.751948 83.214653 
L 266.645783 82.886349 
L 265.520855 82.629591 
L 264.381789 82.445436 
L 263.233264 82.334639 
L 262.08 82.297656 
L 262.08 82.297656 
L 238.68 82.297656 
L 238.68 100.297656 
L 238.68 118.297656 
L 262.08 118.297656 
" clip-path="url(#pdb31f9465a)" style="fill: none; stroke: #000000; stroke-width: 2; stroke-linecap: round"/>
   </g>
   <g id="line2d_2">
    <path d="M 226.08 109.297656 
L 238.68 109.297656 
" clip-path="url(#pdb31f9465a)" style="fill: none; stroke: #000000; stroke-width: 2; stroke-linecap: round"/>
   </g>
   <g id="line2d_3">
    <path d="M 226.08 91.297656 
L 238.68 91.297656 
" clip-path="url(#pdb31f9465a)" style="fill: none; stroke: #000000; stroke-width: 2; stroke-linecap: round"/>
   </g>
   <g id="line2d_4">
    <path d="M 288.72 100.297656 
L 292.68 100.297656 
" clip-path="url(#pdb31f9465a)" style="fill: none; stroke: #000000; stroke-width: 2; stroke-linecap: round"/>
   </g>
   <g id="line2d_5">
    <path d="M 262.08 217.297656 
L 263.233264 217.260673 
L 264.381789 217.149876 
L 265.520855 216.965721 
L 266.645783 216.708964 
L 267.751948 216.38066 
L 268.834806 215.982158 
L 269.889907 215.515096 
L 270.912916 214.981393 
L 271.899628 214.383242 
L 272.84599 213.723101 
L 273.748111 213.003684 
L 274.602286 212.227945 
L 275.405004 211.399072 
L 276.152967 210.520473 
L 276.843101 209.595756 
L 277.47257 208.628722 
L 278.038788 207.623345 
L 278.539427 206.583756 
L 278.972432 205.514227 
L 279.336021 204.419153 
L 279.628702 203.303033 
L 279.849272 202.170454 
L 279.996824 201.026071 
L 280.070752 199.874585 
L 280.070752 198.720728 
L 279.996824 197.569242 
L 279.849272 196.424858 
L 279.628702 195.292279 
L 279.336021 194.17616 
L 278.972432 193.081085 
L 278.539427 192.011556 
L 278.038788 190.971967 
L 277.47257 189.96659 
L 276.843101 188.999556 
L 276.152967 188.07484 
L 275.405004 187.19624 
L 274.602286 186.367368 
L 273.748111 185.591629 
L 272.84599 184.872211 
L 271.899628 184.21207 
L 270.912916 183.61392 
L 269.889907 183.080217 
L 268.834806 182.613155 
L 267.751948 182.214653 
L 266.645783 181.886349 
L 265.520855 181.629591 
L 264.381789 181.445436 
L 263.233264 181.334639 
L 262.08 181.297656 
L 262.08 181.297656 
L 238.68 181.297656 
L 238.68 199.297656 
L 238.68 217.297656 
L 262.08 217.297656 
" clip-path="url(#pdb31f9465a)" style="fill: none; stroke: #000000; stroke-width: 2; stroke-linecap: round"/>
   </g>
   <g id="line2d_6">
    <path d="M 226.08 208.297656 
L 238.68 208.297656 
" clip-path="url(#pdb31f9465a)" style="fill: none; stroke: #000000; stroke-width: 2; stroke-linecap: round"/>
   </g>
   <g id="line2d_7">
    <path d="M 226.08 190.297656 
L 238.68 190.297656 
" clip-path="url(#pdb31f9465a)" style="fill: none; stroke: #000000; stroke-width: 2; stroke-linecap: round"/>
   </g>
   <g id="line2d_8">
    <path d="M 288.72 199.297656 
L 292.68 199.297656 
" clip-path="url(#pdb31f9465a)" style="fill: none; stroke: #000000; stroke-width: 2; stroke-linecap: round"/>
   </g>
   <g id="line2d_9">
    <path d="M 163.08 109.297656 
L 164.233264 109.260673 
L 165.381789 109.149876 
L 166.520855 108.965721 
L 167.645783 108.708964 
L 168.751948 108.38066 
L 169.834806 107.982158 
L 170.889907 107.515096 
L 171.912916 106.981393 
L 172.899628 106.383242 
L 173.84599 105.723101 
L 174.748111 105.003684 
L 175.602286 104.227945 
L 176.405004 103.399072 
L 177.152967 102.520473 
L 177.843101 101.595756 
L 178.47257 100.628722 
L 179.038788 99.623345 
L 179.539427 98.583756 
L 179.972432 97.514227 
L 180.336021 96.419153 
L 180.628702 95.303033 
L 180.849272 94.170454 
L 180.996824 93.026071 
L 181.070752 91.874585 
L 181.070752 90.720728 
L 180.996824 89.569242 
L 180.849272 88.424858 
L 180.628702 87.292279 
L 180.336021 86.17616 
L 179.972432 85.081085 
L 179.539427 84.011556 
L 179.038788 82.971967 
L 178.47257 81.96659 
L 177.843101 80.999556 
L 177.152967 80.07484 
L 176.405004 79.19624 
L 175.602286 78.367368 
L 174.748111 77.591629 
L 173.84599 76.872211 
L 172.899628 76.21207 
L 171.912916 75.61392 
L 170.889907 75.080217 
L 169.834806 74.613155 
L 168.751948 74.214653 
L 167.645783 73.886349 
L 166.520855 73.629591 
L 165.381789 73.445436 
L 164.233264 73.334639 
L 163.08 73.297656 
L 163.08 73.297656 
L 139.68 73.297656 
L 139.68 91.297656 
L 139.68 109.297656 
L 163.08 109.297656 
" clip-path="url(#pdb31f9465a)" style="fill: none; stroke: #000000; stroke-width: 2; stroke-linecap: round"/>
   </g>
   <g id="line2d_10">
    <path d="M 127.08 100.297656 
L 139.68 100.297656 
" clip-path="url(#pdb31f9465a)" style="fill: none; stroke: #000000; stroke-width: 2; stroke-linecap: round"/>
   </g>
   <g id="line2d_11">
    <path d="M 127.08 82.297656 
L 139.68 82.297656 
" clip-path="url(#pdb31f9465a)" style="fill: none; stroke: #000000; stroke-width: 2; stroke-linecap: round"/>
   </g>
   <g id="line2d_12">
    <path d="M 189.72 91.297656 
L 193.68 91.297656 
" clip-path="url(#pdb31f9465a)" style="fill: none; stroke: #000000; stroke-width: 2; stroke-linecap: round"/>
   </g>
   <g id="line2d_13">
    <path d="M 163.08 226.297656 
L 164.233264 226.260673 
L 165.381789 226.149876 
L 166.520855 225.965721 
L 167.645783 225.708964 
L 168.751948 225.38066 
L 169.834806 224.982158 
L 170.889907 224.515096 
L 171.912916 223.981393 
L 172.899628 223.383242 
L 173.84599 222.723101 
L 174.748111 222.003684 
L 175.602286 221.227945 
L 176.405004 220.399072 
L 177.152967 219.520473 
L 177.843101 218.595756 
L 178.47257 217.628722 
L 179.038788 216.623345 
L 179.539427 215.583756 
L 179.972432 214.514227 
L 180.336021 213.419153 
L 180.628702 212.303033 
L 180.849272 211.170454 
L 180.996824 210.026071 
L 181.070752 208.874585 
L 181.070752 207.720728 
L 180.996824 206.569242 
L 180.849272 205.424858 
L 180.628702 204.292279 
L 180.336021 203.17616 
L 179.972432 202.081085 
L 179.539427 201.011556 
L 179.038788 199.971967 
L 178.47257 198.96659 
L 177.843101 197.999556 
L 177.152967 197.07484 
L 176.405004 196.19624 
L 175.602286 195.367368 
L 174.748111 194.591629 
L 173.84599 193.872211 
L 172.899628 193.21207 
L 171.912916 192.61392 
L 170.889907 192.080217 
L 169.834806 191.613155 
L 168.751948 191.214653 
L 167.645783 190.886349 
L 166.520855 190.629591 
L 165.381789 190.445436 
L 164.233264 190.334639 
L 163.08 190.297656 
L 163.08 190.297656 
L 139.68 190.297656 
L 139.68 208.297656 
L 139.68 226.297656 
L 163.08 226.297656 
" clip-path="url(#pdb31f9465a)" style="fill: none; stroke: #000000; stroke-width: 2; stroke-linecap: round"/>
   </g>
   <g id="line2d_14">
    <path d="M 127.08 217.297656 
L 139.68 217.297656 
" clip-path="url(#pdb31f9465a)" style="fill: none; stroke: #000000; stroke-width: 2; stroke-linecap: round"/>
   </g>
   <g id="line2d_15">
    <path d="M 127.08 199.297656 
L 139.68 199.297656 
" clip-path="url(#pdb31f9465a)" style="fill: none; stroke: #000000; stroke-width: 2; stroke-linecap: round"/>
   </g>
   <g id="line2d_16">
    <path d="M 189.72 208.297656 
L 193.68 208.297656 
" clip-path="url(#pdb31f9465a)" style="fill: none; stroke: #000000; stroke-width: 2; stroke-linecap: round"/>
   </g>
   <g id="line2d_17">
    <path d="M 19.08 82.297656 
L 57.06 82.297656 
M 89.1 82.297656 
L 127.08 82.297656 
" clip-path="url(#pdb31f9465a)" style="fill: none; stroke: #000000; stroke-width: 2; stroke-linecap: round"/>
   </g>
   <g id="line2d_18">
    <path d="M 57.06 64.297656 
L 80.46 82.297656 
L 57.06 100.297656 
L 57.06 64.297656 
" clip-path="url(#pdb31f9465a)" style="fill: none; stroke: #000000; stroke-width: 2; stroke-linecap: round"/>
   </g>
   <g id="line2d_19">
    <path d="M 226.08 91.297656 
L 208.08 91.297656 
L 190.08 91.297656 
" clip-path="url(#pdb31f9465a)" style="fill: none; stroke: #000000; stroke-width: 2; stroke-linecap: round"/>
   </g>
   <g id="line2d_20">
    <path d="M 226.08 208.297656 
L 208.08 208.297656 
L 190.08 208.297656 
" clip-path="url(#pdb31f9465a)" style="fill: none; stroke: #000000; stroke-width: 2; stroke-linecap: round"/>
   </g>
   <g id="line2d_21">
    <path d="M 292.68 100.297656 
L 310.68 100.297656 
L 328.68 100.297656 
" clip-path="url(#pdb31f9465a)" style="fill: none; stroke: #000000; stroke-width: 2; stroke-linecap: round"/>
   </g>
   <g id="line2d_22">
    <path d="M 292.68 199.297656 
L 310.68 199.297656 
L 328.68 199.297656 
" clip-path="url(#pdb31f9465a)" style="fill: none; stroke: #000000; stroke-width: 2; stroke-linecap: round"/>
   </g>
   <g id="line2d_23">
    <path d="M 127.08 199.297656 
L 118.08 199.297656 
L 109.08 199.297656 
" clip-path="url(#pdb31f9465a)" style="fill: none; stroke: #000000; stroke-width: 2; stroke-linecap: round"/>
   </g>
   <g id="line2d_24">
    <path d="M 127.08 100.297656 
L 118.08 100.297656 
L 109.08 100.297656 
" clip-path="url(#pdb31f9465a)" style="fill: none; stroke: #000000; stroke-width: 2; stroke-linecap: round"/>
   </g>
   <g id="line2d_25">
    <path d="M 109.08 199.297656 
L 109.08 109.297656 
L 109.08 19.297656 
" clip-path="url(#pdb31f9465a)" style="fill: none; stroke: #000000; stroke-width: 2; stroke-linecap: round"/>
   </g>
   <g id="line2d_26">
    <path d="M 226.08 109.297656 
L 226.08 145.297656 
L 292.68 163.297656 
L 292.68 199.297656 
" clip-path="url(#pdb31f9465a)" style="fill: none; stroke: #000000; stroke-width: 2; stroke-linecap: round"/>
   </g>
   <g id="line2d_27">
    <path d="M 226.08 190.297656 
L 226.08 154.297656 
L 292.68 136.297656 
L 292.68 100.297656 
" clip-path="url(#pdb31f9465a)" style="fill: none; stroke: #000000; stroke-width: 2; stroke-linecap: round"/>
   </g>
   <g id="line2d_28">
    <path d="M 57.06 82.297656 
L 49.86 82.297656 
L 42.66 82.297656 
" clip-path="url(#pdb31f9465a)" style="fill: none; stroke: #000000; stroke-width: 2; stroke-linecap: round"/>
   </g>
   <g id="line2d_29">
    <path d="M 42.66 82.297656 
L 42.66 217.297656 
L 127.08 217.297656 
" clip-path="url(#pdb31f9465a)" style="fill: none; stroke: #000000; stroke-width: 2; stroke-linecap: round"/>
   </g>
   <g id="text_1">
    <!-- S -->
    <g transform="translate(204.112227 85.098047) scale(0.125 -0.125)">
     <defs>
      <path id="DejaVuSans-53" d="M 3425 4513 
L 3425 3897 
Q 3066 4069 2747 4153 
Q 2428 4238 2131 4238 
Q 1616 4238 1336 4038 
Q 1056 3838 1056 3469 
Q 1056 3159 1242 3001 
Q 1428 2844 1947 2747 
L 2328 2669 
Q 3034 2534 3370 2195 
Q 3706 1856 3706 1288 
Q 3706 609 3251 259 
Q 2797 -91 1919 -91 
Q 1588 -91 1214 -16 
Q 841 59 441 206 
L 441 856 
Q 825 641 1194 531 
Q 1563 422 1919 422 
Q 2459 422 2753 634 
Q 3047 847 3047 1241 
Q 3047 1584 2836 1778 
Q 2625 1972 2144 2069 
L 1759 2144 
Q 1053 2284 737 2584 
Q 422 2884 422 3419 
Q 422 4038 858 4394 
Q 1294 4750 2059 4750 
Q 2388 4750 2728 4690 
Q 3069 4631 3425 4513 
z
" transform="scale(0.015625)"/>
     </defs>
     <use xlink:href="#DejaVuSans-53"/>
    </g>
   </g>
   <g id="text_2">
    <!-- R -->
    <g transform="translate(203.737227 202.098047) scale(0.125 -0.125)">
     <defs>
      <path id="DejaVuSans-52" d="M 2841 2188 
Q 3044 2119 3236 1894 
Q 3428 1669 3622 1275 
L 4263 0 
L 3584 0 
L 2988 1197 
Q 2756 1666 2539 1819 
Q 2322 1972 1947 1972 
L 1259 1972 
L 1259 0 
L 628 0 
L 628 4666 
L 2053 4666 
Q 2853 4666 3247 4331 
Q 3641 3997 3641 3322 
Q 3641 2881 3436 2590 
Q 3231 2300 2841 2188 
z
M 1259 4147 
L 1259 2491 
L 2053 2491 
Q 2509 2491 2742 2702 
Q 2975 2913 2975 3322 
Q 2975 3731 2742 3939 
Q 2509 4147 2053 4147 
L 1259 4147 
z
" transform="scale(0.015625)"/>
     </defs>
     <use xlink:href="#DejaVuSans-52"/>
    </g>
   </g>
   <g id="text_3">
    <!-- Q -->
    <g transform="translate(305.760078 94.098047) scale(0.125 -0.125)">
     <defs>
      <path id="DejaVuSans-51" d="M 2522 4238 
Q 1834 4238 1429 3725 
Q 1025 3213 1025 2328 
Q 1025 1447 1429 934 
Q 1834 422 2522 422 
Q 3209 422 3611 934 
Q 4013 1447 4013 2328 
Q 4013 3213 3611 3725 
Q 3209 4238 2522 4238 
z
M 3406 84 
L 4238 -825 
L 3475 -825 
L 2784 -78 
Q 2681 -84 2626 -87 
Q 2572 -91 2522 -91 
Q 1538 -91 948 567 
Q 359 1225 359 2328 
Q 359 3434 948 4092 
Q 1538 4750 2522 4750 
Q 3503 4750 4090 4092 
Q 4678 3434 4678 2328 
Q 4678 1516 4351 937 
Q 4025 359 3406 84 
z
" transform="scale(0.015625)"/>
     </defs>
     <use xlink:href="#DejaVuSans-51"/>
    </g>
   </g>
   <g id="text_4">
    <!-- Q' -->
    <g transform="translate(304.042305 193.098047) scale(0.125 -0.125)">
     <defs>
      <path id="DejaVuSans-27" d="M 1147 4666 
L 1147 2931 
L 616 2931 
L 616 4666 
L 1147 4666 
z
" transform="scale(0.015625)"/>
     </defs>
     <use xlink:href="#DejaVuSans-51"/>
     <use xlink:href="#DejaVuSans-27" x="78.710938"/>
    </g>
   </g>
   <g id="text_5">
    <!-- Latch -->
    <g transform="translate(91.919844 13.098047) scale(0.125 -0.125)">
     <defs>
      <path id="DejaVuSans-4c" d="M 628 4666 
L 1259 4666 
L 1259 531 
L 3531 531 
L 3531 0 
L 628 0 
L 628 4666 
z
" transform="scale(0.015625)"/>
      <path id="DejaVuSans-61" d="M 2194 1759 
Q 1497 1759 1228 1600 
Q 959 1441 959 1056 
Q 959 750 1161 570 
Q 1363 391 1709 391 
Q 2188 391 2477 730 
Q 2766 1069 2766 1631 
L 2766 1759 
L 2194 1759 
z
M 3341 1997 
L 3341 0 
L 2766 0 
L 2766 531 
Q 2569 213 2275 61 
Q 1981 -91 1556 -91 
Q 1019 -91 701 211 
Q 384 513 384 1019 
Q 384 1609 779 1909 
Q 1175 2209 1959 2209 
L 2766 2209 
L 2766 2266 
Q 2766 2663 2505 2880 
Q 2244 3097 1772 3097 
Q 1472 3097 1187 3025 
Q 903 2953 641 2809 
L 641 3341 
Q 956 3463 1253 3523 
Q 1550 3584 1831 3584 
Q 2591 3584 2966 3190 
Q 3341 2797 3341 1997 
z
" transform="scale(0.015625)"/>
      <path id="DejaVuSans-74" d="M 1172 4494 
L 1172 3500 
L 2356 3500 
L 2356 3053 
L 1172 3053 
L 1172 1153 
Q 1172 725 1289 603 
Q 1406 481 1766 481 
L 2356 481 
L 2356 0 
L 1766 0 
Q 1100 0 847 248 
Q 594 497 594 1153 
L 594 3053 
L 172 3053 
L 172 3500 
L 594 3500 
L 594 4494 
L 1172 4494 
z
" transform="scale(0.015625)"/>
      <path id="DejaVuSans-63" d="M 3122 3366 
L 3122 2828 
Q 2878 2963 2633 3030 
Q 2388 3097 2138 3097 
Q 1578 3097 1268 2742 
Q 959 2388 959 1747 
Q 959 1106 1268 751 
Q 1578 397 2138 397 
Q 2388 397 2633 464 
Q 2878 531 3122 666 
L 3122 134 
Q 2881 22 2623 -34 
Q 2366 -91 2075 -91 
Q 1284 -91 818 406 
Q 353 903 353 1747 
Q 353 2603 823 3093 
Q 1294 3584 2113 3584 
Q 2378 3584 2631 3529 
Q 2884 3475 3122 3366 
z
" transform="scale(0.015625)"/>
      <path id="DejaVuSans-68" d="M 3513 2113 
L 3513 0 
L 2938 0 
L 2938 2094 
Q 2938 2591 2744 2837 
Q 2550 3084 2163 3084 
Q 1697 3084 1428 2787 
Q 1159 2491 1159 1978 
L 1159 0 
L 581 0 
L 581 4863 
L 1159 4863 
L 1159 2956 
Q 1366 3272 1645 3428 
Q 1925 3584 2291 3584 
Q 2894 3584 3203 3211 
Q 3513 2838 3513 2113 
z
" transform="scale(0.015625)"/>
     </defs>
     <use xlink:href="#DejaVuSans-4c"/>
     <use xlink:href="#DejaVuSans-61" x="55.712891"/>
     <use xlink:href="#DejaVuSans-74" x="116.992188"/>
     <use xlink:href="#DejaVuSans-63" x="156.201172"/>
     <use xlink:href="#DejaVuSans-68" x="211.181641"/>
    </g>
   </g>
   <g id="text_6">
    <!-- D -->
    <g transform="translate(29.435 85.746875) scale(0.125 -0.125)">
     <defs>
      <path id="DejaVuSans-44" d="M 1259 4147 
L 1259 519 
L 2022 519 
Q 2988 519 3436 956 
Q 3884 1394 3884 2338 
Q 3884 3275 3436 3711 
Q 2988 4147 2022 4147 
L 1259 4147 
z
M 628 4666 
L 1925 4666 
Q 3281 4666 3915 4102 
Q 4550 3538 4550 2338 
Q 4550 1131 3912 565 
Q 3275 0 1925 0 
L 628 0 
L 628 4666 
z
" transform="scale(0.015625)"/>
     </defs>
     <use xlink:href="#DejaVuSans-44"/>
    </g>
   </g>
  </g>
 </g>
 <defs>
  <clipPath id="pdb31f9465a">
   <rect x="3.6" y="8.947656" width="340.56" height="227.7"/>
  </clipPath>
 </defs>
</svg>
