<?xml version="1.0" encoding="utf-8" standalone="no"?>
<!DOCTYPE svg PUBLIC "-//W3C//DTD SVG 1.1//EN"
  "http://www.w3.org/Graphics/SVG/1.1/DTD/svg11.dtd">
<svg xmlns:xlink="http://www.w3.org/1999/xlink" width="159.66pt" height="155.7pt" viewBox="0 0 159.66 155.7" xmlns="http://www.w3.org/2000/svg" version="1.1">
 <metadata>
  <rdf:RDF xmlns:dc="http://purl.org/dc/elements/1.1/" xmlns:cc="http://creativecommons.org/ns#" xmlns:rdf="http://www.w3.org/1999/02/22-rdf-syntax-ns#">
   <cc:Work>
    <dc:type rdf:resource="http://purl.org/dc/dcmitype/StillImage"/>
    <dc:date>2023-11-08T15:00:35.088476</dc:date>
    <dc:format>image/svg+xml</dc:format>
    <dc:creator>
     <cc:Agent>
      <dc:title>Matplotlib v3.8.1, https://matplotlib.org/</dc:title>
     </cc:Agent>
    </dc:creator>
   </cc:Work>
  </rdf:RDF>
 </metadata>
 <defs>
  <style type="text/css">*{stroke-linejoin: round; stroke-linecap: butt}</style>
 </defs>
 <g id="figure_1">
  <g id="patch_1">
   <path d="M 0 155.7 
L 159.66 155.7 
L 159.66 0 
L 0 0 
z
" style="fill: #ffffff"/>
  </g>
  <g id="axes_1">
   <g id="patch_2">
    <path d="M 104.85 32.67 
C 105.995677 32.67 107.094585 32.214818 107.904701 31.404701 
C 108.714818 30.594585 109.17 29.495677 109.17 28.35 
C 109.17 27.204323 108.714818 26.105415 107.904701 25.295299 
C 107.094585 24.485182 105.995677 24.03 104.85 24.03 
C 103.704323 24.03 102.605415 24.485182 101.795299 25.295299 
C 100.985182 26.105415 100.53 27.204323 100.53 28.35 
C 100.53 29.495677 100.985182 30.594585 101.795299 31.404701 
C 102.605415 32.214818 103.704323 32.67 104.85 32.67 
L 104.85 32.67 
z
" clip-path="url(#pa3366ab5f1)" style="fill: none; stroke: #000000; stroke-width: 2; stroke-linejoin: miter"/>
   </g>
   <g id="patch_3">
    <path d="M 104.85 131.67 
C 105.995677 131.67 107.094585 131.214818 107.904701 130.404701 
C 108.714818 129.594585 109.17 128.495677 109.17 127.35 
C 109.17 126.204323 108.714818 125.105415 107.904701 124.295299 
C 107.094585 123.485182 105.995677 123.03 104.85 123.03 
C 103.704323 123.03 102.605415 123.485182 101.795299 124.295299 
C 100.985182 125.105415 100.53 126.204323 100.53 127.35 
C 100.53 128.495677 100.985182 129.594585 101.795299 130.404701 
C 102.605415 131.214818 103.704323 131.67 104.85 131.67 
L 104.85 131.67 
z
" clip-path="url(#pa3366ab5f1)" style="fill: none; stroke: #000000; stroke-width: 2; stroke-linejoin: miter"/>
   </g>
   <g id="line2d_1">
    <path d="M 82.53 46.35 
L 83.683264 46.313017 
L 84.831789 46.20222 
L 85.970855 46.018065 
L 87.095783 45.761308 
L 88.201948 45.433003 
L 89.284806 45.034502 
L 90.339907 44.56744 
L 91.362916 44.033737 
L 92.349628 43.435586 
L 93.29599 42.775445 
L 94.198111 42.056027 
L 95.052286 41.280288 
L 95.855004 40.451416 
L 96.602967 39.572816 
L 97.293101 38.6481 
L 97.92257 37.681066 
L 98.488788 36.675689 
L 98.989427 35.6361 
L 99.422432 34.566571 
L 99.786021 33.471497 
L 100.078702 32.355377 
L 100.299272 31.222798 
L 100.446824 30.078414 
L 100.520752 28.926928 
L 100.520752 27.773072 
L 100.446824 26.621586 
L 100.299272 25.477202 
L 100.078702 24.344623 
L 99.786021 23.228503 
L 99.422432 22.133429 
L 98.989427 21.0639 
L 98.488788 20.024311 
L 97.92257 19.018934 
L 97.293101 18.0519 
L 96.602967 17.127184 
L 95.855004 16.248584 
L 95.052286 15.419712 
L 94.198111 14.643973 
L 93.29599 13.924555 
L 92.349628 13.264414 
L 91.362916 12.666263 
L 90.339907 12.13256 
L 89.284806 11.665498 
L 88.201948 11.266997 
L 87.095783 10.938692 
L 85.970855 10.681935 
L 84.831789 10.49778 
L 83.683264 10.386983 
L 82.53 10.35 
L 82.53 10.35 
L 59.13 10.35 
L 59.13 28.35 
L 59.13 46.35 
L 82.53 46.35 
" clip-path="url(#pa3366ab5f1)" style="fill: none; stroke: #000000; stroke-width: 2; stroke-linecap: round"/>
   </g>
   <g id="line2d_2">
    <path d="M 46.53 37.35 
L 59.13 37.35 
" clip-path="url(#pa3366ab5f1)" style="fill: none; stroke: #000000; stroke-width: 2; stroke-linecap: round"/>
   </g>
   <g id="line2d_3">
    <path d="M 46.53 19.35 
L 59.13 19.35 
" clip-path="url(#pa3366ab5f1)" style="fill: none; stroke: #000000; stroke-width: 2; stroke-linecap: round"/>
   </g>
   <g id="line2d_4">
    <path d="M 109.17 28.35 
L 113.13 28.35 
" clip-path="url(#pa3366ab5f1)" style="fill: none; stroke: #000000; stroke-width: 2; stroke-linecap: round"/>
   </g>
   <g id="line2d_5">
    <path d="M 82.53 145.35 
L 83.683264 145.313017 
L 84.831789 145.20222 
L 85.970855 145.018065 
L 87.095783 144.761308 
L 88.201948 144.433003 
L 89.284806 144.034502 
L 90.339907 143.56744 
L 91.362916 143.033737 
L 92.349628 142.435586 
L 93.29599 141.775445 
L 94.198111 141.056027 
L 95.052286 140.280288 
L 95.855004 139.451416 
L 96.602967 138.572816 
L 97.293101 137.6481 
L 97.92257 136.681066 
L 98.488788 135.675689 
L 98.989427 134.6361 
L 99.422432 133.566571 
L 99.786021 132.471497 
L 100.078702 131.355377 
L 100.299272 130.222798 
L 100.446824 129.078414 
L 100.520752 127.926928 
L 100.520752 126.773072 
L 100.446824 125.621586 
L 100.299272 124.477202 
L 100.078702 123.344623 
L 99.786021 122.228503 
L 99.422432 121.133429 
L 98.989427 120.0639 
L 98.488788 119.024311 
L 97.92257 118.018934 
L 97.293101 117.0519 
L 96.602967 116.127184 
L 95.855004 115.248584 
L 95.052286 114.419712 
L 94.198111 113.643973 
L 93.29599 112.924555 
L 92.349628 112.264414 
L 91.362916 111.666263 
L 90.339907 111.13256 
L 89.284806 110.665498 
L 88.201948 110.266997 
L 87.095783 109.938692 
L 85.970855 109.681935 
L 84.831789 109.49778 
L 83.683264 109.386983 
L 82.53 109.35 
L 82.53 109.35 
L 59.13 109.35 
L 59.13 127.35 
L 59.13 145.35 
L 82.53 145.35 
" clip-path="url(#pa3366ab5f1)" style="fill: none; stroke: #000000; stroke-width: 2; stroke-linecap: round"/>
   </g>
   <g id="line2d_6">
    <path d="M 46.53 136.35 
L 59.13 136.35 
" clip-path="url(#pa3366ab5f1)" style="fill: none; stroke: #000000; stroke-width: 2; stroke-linecap: round"/>
   </g>
   <g id="line2d_7">
    <path d="M 46.53 118.35 
L 59.13 118.35 
" clip-path="url(#pa3366ab5f1)" style="fill: none; stroke: #000000; stroke-width: 2; stroke-linecap: round"/>
   </g>
   <g id="line2d_8">
    <path d="M 109.17 127.35 
L 113.13 127.35 
" clip-path="url(#pa3366ab5f1)" style="fill: none; stroke: #000000; stroke-width: 2; stroke-linecap: round"/>
   </g>
   <g id="line2d_9">
    <path d="M 46.53 19.35 
L 28.53 19.35 
L 10.53 19.35 
" clip-path="url(#pa3366ab5f1)" style="fill: none; stroke: #000000; stroke-width: 2; stroke-linecap: round"/>
   </g>
   <g id="line2d_10">
    <path d="M 46.53 136.35 
L 28.53 136.35 
L 10.53 136.35 
" clip-path="url(#pa3366ab5f1)" style="fill: none; stroke: #000000; stroke-width: 2; stroke-linecap: round"/>
   </g>
   <g id="line2d_11">
    <path d="M 113.13 28.35 
L 131.13 28.35 
L 149.13 28.35 
" clip-path="url(#pa3366ab5f1)" style="fill: none; stroke: #000000; stroke-width: 2; stroke-linecap: round"/>
   </g>
   <g id="line2d_12">
    <path d="M 113.13 127.35 
L 131.13 127.35 
L 149.13 127.35 
" clip-path="url(#pa3366ab5f1)" style="fill: none; stroke: #000000; stroke-width: 2; stroke-linecap: round"/>
   </g>
   <g id="line2d_13">
    <path d="M 46.53 37.35 
L 46.53 73.35 
L 113.13 91.35 
L 113.13 127.35 
" clip-path="url(#pa3366ab5f1)" style="fill: none; stroke: #000000; stroke-width: 2; stroke-linecap: round"/>
   </g>
   <g id="line2d_14">
    <path d="M 46.53 118.35 
L 46.53 82.35 
L 113.13 64.35 
L 113.13 28.35 
" clip-path="url(#pa3366ab5f1)" style="fill: none; stroke: #000000; stroke-width: 2; stroke-linecap: round"/>
   </g>
   <g id="text_1">
    <!-- S -->
    <g transform="translate(24.562227 13.150391) scale(0.125 -0.125)">
     <defs>
      <path id="DejaVuSans-53" d="M 3425 4513 
L 3425 3897 
Q 3066 4069 2747 4153 
Q 2428 4238 2131 4238 
Q 1616 4238 1336 4038 
Q 1056 3838 1056 3469 
Q 1056 3159 1242 3001 
Q 1428 2844 1947 2747 
L 2328 2669 
Q 3034 2534 3370 2195 
Q 3706 1856 3706 1288 
Q 3706 609 3251 259 
Q 2797 -91 1919 -91 
Q 1588 -91 1214 -16 
Q 841 59 441 206 
L 441 856 
Q 825 641 1194 531 
Q 1563 422 1919 422 
Q 2459 422 2753 634 
Q 3047 847 3047 1241 
Q 3047 1584 2836 1778 
Q 2625 1972 2144 2069 
L 1759 2144 
Q 1053 2284 737 2584 
Q 422 2884 422 3419 
Q 422 4038 858 4394 
Q 1294 4750 2059 4750 
Q 2388 4750 2728 4690 
Q 3069 4631 3425 4513 
z
" transform="scale(0.015625)"/>
     </defs>
     <use xlink:href="#DejaVuSans-53"/>
    </g>
   </g>
   <g id="text_2">
    <!-- R -->
    <g transform="translate(24.187227 130.150391) scale(0.125 -0.125)">
     <defs>
      <path id="DejaVuSans-52" d="M 2841 2188 
Q 3044 2119 3236 1894 
Q 3428 1669 3622 1275 
L 4263 0 
L 3584 0 
L 2988 1197 
Q 2756 1666 2539 1819 
Q 2322 1972 1947 1972 
L 1259 1972 
L 1259 0 
L 628 0 
L 628 4666 
L 2053 4666 
Q 2853 4666 3247 4331 
Q 3641 3997 3641 3322 
Q 3641 2881 3436 2590 
Q 3231 2300 2841 2188 
z
M 1259 4147 
L 1259 2491 
L 2053 2491 
Q 2509 2491 2742 2702 
Q 2975 2913 2975 3322 
Q 2975 3731 2742 3939 
Q 2509 4147 2053 4147 
L 1259 4147 
z
" transform="scale(0.015625)"/>
     </defs>
     <use xlink:href="#DejaVuSans-52"/>
    </g>
   </g>
   <g id="text_3">
    <!-- P -->
    <g transform="translate(127.361445 22.150391) scale(0.125 -0.125)">
     <defs>
      <path id="DejaVuSans-50" d="M 1259 4147 
L 1259 2394 
L 2053 2394 
Q 2494 2394 2734 2622 
Q 2975 2850 2975 3272 
Q 2975 3691 2734 3919 
Q 2494 4147 2053 4147 
L 1259 4147 
z
M 628 4666 
L 2053 4666 
Q 2838 4666 3239 4311 
Q 3641 3956 3641 3272 
Q 3641 2581 3239 2228 
Q 2838 1875 2053 1875 
L 1259 1875 
L 1259 0 
L 628 0 
L 628 4666 
z
" transform="scale(0.015625)"/>
     </defs>
     <use xlink:href="#DejaVuSans-50"/>
    </g>
   </g>
   <g id="text_4">
    <!-- Q -->
    <g transform="translate(126.210078 121.150391) scale(0.125 -0.125)">
     <defs>
      <path id="DejaVuSans-51" d="M 2522 4238 
Q 1834 4238 1429 3725 
Q 1025 3213 1025 2328 
Q 1025 1447 1429 934 
Q 1834 422 2522 422 
Q 3209 422 3611 934 
Q 4013 1447 4013 2328 
Q 4013 3213 3611 3725 
Q 3209 4238 2522 4238 
z
M 3406 84 
L 4238 -825 
L 3475 -825 
L 2784 -78 
Q 2681 -84 2626 -87 
Q 2572 -91 2522 -91 
Q 1538 -91 948 567 
Q 359 1225 359 2328 
Q 359 3434 948 4092 
Q 1538 4750 2522 4750 
Q 3503 4750 4090 4092 
Q 4678 3434 4678 2328 
Q 4678 1516 4351 937 
Q 4025 359 3406 84 
z
" transform="scale(0.015625)"/>
     </defs>
     <use xlink:href="#DejaVuSans-51"/>
    </g>
   </g>
  </g>
 </g>
 <defs>
  <clipPath id="pa3366ab5f1">
   <rect x="3.6" y="3.6" width="152.46" height="148.5"/>
  </clipPath>
 </defs>
</svg>
