<?xml version="1.0" encoding="utf-8" standalone="no"?>
<!DOCTYPE svg PUBLIC "-//W3C//DTD SVG 1.1//EN"
  "http://www.w3.org/Graphics/SVG/1.1/DTD/svg11.dtd">
<svg xmlns:xlink="http://www.w3.org/1999/xlink" width="97.608594pt" height="46.008pt" viewBox="0 0 97.608594 46.008" xmlns="http://www.w3.org/2000/svg" version="1.1">
 <metadata>
  <rdf:RDF xmlns:dc="http://purl.org/dc/elements/1.1/" xmlns:cc="http://creativecommons.org/ns#" xmlns:rdf="http://www.w3.org/1999/02/22-rdf-syntax-ns#">
   <cc:Work>
    <dc:type rdf:resource="http://purl.org/dc/dcmitype/StillImage"/>
    <dc:date>2024-04-08T21:07:06.143463</dc:date>
    <dc:format>image/svg+xml</dc:format>
    <dc:creator>
     <cc:Agent>
      <dc:title>Matplotlib v3.8.1, https://matplotlib.org/</dc:title>
     </cc:Agent>
    </dc:creator>
   </cc:Work>
  </rdf:RDF>
 </metadata>
 <defs>
  <style type="text/css">*{stroke-linejoin: round; stroke-linecap: butt}</style>
 </defs>
 <g id="figure_1">
  <g id="patch_1">
   <path d="M 0 46.008 
L 97.608594 46.008 
L 97.608594 0 
L 0 0 
z
" style="fill: #ffffff"/>
  </g>
  <g id="axes_1">
   <g id="line2d_1">
    <path d="M 27.735547 40.644 
L 47.278404 40.577878 
L 49.335547 40.284 
L 51.39269 39.75502 
L 53.449833 38.990939 
L 55.506975 37.991755 
L 57.564118 36.757469 
L 59.621261 35.288082 
L 61.678404 33.583592 
L 64.249833 31.122367 
L 66.821261 28.293796 
L 69.39269 25.097878 
L 70.935547 23.004 
L 70.935547 23.004 
L 68.364118 19.587673 
L 65.79269 16.538694 
L 63.221261 13.857061 
L 60.649833 11.542776 
L 58.59269 9.955837 
L 56.535547 8.604 
L 54.478404 7.487265 
L 52.421261 6.605633 
L 50.364118 5.959102 
L 48.306975 5.547673 
L 46.249833 5.371347 
L 45.735547 5.364 
L 27.735547 5.364 
L 27.735547 5.364 
L 29.722747 7.524 
L 31.450747 9.684 
L 32.919547 11.844 
L 34.129147 14.004 
L 35.079547 16.164 
L 35.770747 18.324 
L 36.202747 20.484 
L 36.375547 22.644 
L 36.289147 24.804 
L 35.943547 26.964 
L 35.338747 29.124 
L 34.474747 31.284 
L 33.351547 33.444 
L 31.969147 35.604 
L 30.327547 37.764 
L 28.426747 39.924 
L 27.735547 40.644 
L 27.735547 40.644 
" clip-path="url(#p5cda8f7f92)" style="fill: none; stroke: #000000; stroke-width: 2; stroke-linecap: round"/>
   </g>
   <g id="line2d_2">
    <path d="M 22.335547 40.644 
L 23.026747 39.924 
L 23.689147 39.204 
L 24.322747 38.484 
L 24.927547 37.764 
L 25.503547 37.044 
L 26.050747 36.324 
L 26.569147 35.604 
L 27.058747 34.884 
L 27.519547 34.164 
L 27.951547 33.444 
L 28.354747 32.724 
L 28.729147 32.004 
L 29.074747 31.284 
L 29.391547 30.564 
L 29.679547 29.844 
L 29.938747 29.124 
L 30.169147 28.404 
L 30.370747 27.684 
L 30.543547 26.964 
L 30.687547 26.244 
L 30.802747 25.524 
L 30.889147 24.804 
L 30.946747 24.084 
L 30.975547 23.364 
L 30.975547 22.644 
L 30.946747 21.924 
L 30.889147 21.204 
L 30.802747 20.484 
L 30.687547 19.764 
L 30.543547 19.044 
L 30.370747 18.324 
L 30.169147 17.604 
L 29.938747 16.884 
L 29.679547 16.164 
L 29.391547 15.444 
L 29.074747 14.724 
L 28.729147 14.004 
L 28.354747 13.284 
L 27.951547 12.564 
L 27.519547 11.844 
L 27.058747 11.124 
L 26.569147 10.404 
L 26.050747 9.684 
L 25.503547 8.964 
L 24.927547 8.244 
L 24.322747 7.524 
L 23.689147 6.804 
L 23.026747 6.084 
L 22.335547 5.364 
" clip-path="url(#p5cda8f7f92)" style="fill: none; stroke: #000000; stroke-width: 2; stroke-linecap: round"/>
   </g>
   <g id="line2d_3">
    <path d="M 15.135547 32.004 
L 28.729147 32.004 
" clip-path="url(#p5cda8f7f92)" style="fill: none; stroke: #000000; stroke-width: 2; stroke-linecap: round"/>
   </g>
   <g id="line2d_4">
    <path d="M 15.135547 14.004 
L 28.729147 14.004 
" clip-path="url(#p5cda8f7f92)" style="fill: none; stroke: #000000; stroke-width: 2; stroke-linecap: round"/>
   </g>
   <g id="line2d_5">
    <path d="M 70.935547 23.004 
L 83.535547 23.004 
" clip-path="url(#p5cda8f7f92)" style="fill: none; stroke: #000000; stroke-width: 2; stroke-linecap: round"/>
   </g>
   <g id="text_1">
    <!-- c -->
    <g transform="translate(87.135547 26.453219) scale(0.125 -0.125)">
     <defs>
      <path id="DejaVuSans-63" d="M 3122 3366 
L 3122 2828 
Q 2878 2963 2633 3030 
Q 2388 3097 2138 3097 
Q 1578 3097 1268 2742 
Q 959 2388 959 1747 
Q 959 1106 1268 751 
Q 1578 397 2138 397 
Q 2388 397 2633 464 
Q 2878 531 3122 666 
L 3122 134 
Q 2881 22 2623 -34 
Q 2366 -91 2075 -91 
Q 1284 -91 818 406 
Q 353 903 353 1747 
Q 353 2603 823 3093 
Q 1294 3584 2113 3584 
Q 2378 3584 2631 3529 
Q 2884 3475 3122 3366 
z
" transform="scale(0.015625)"/>
     </defs>
     <use xlink:href="#DejaVuSans-63"/>
    </g>
   </g>
   <g id="text_2">
    <!-- a -->
    <g transform="translate(3.875391 17.453219) scale(0.125 -0.125)">
     <defs>
      <path id="DejaVuSans-61" d="M 2194 1759 
Q 1497 1759 1228 1600 
Q 959 1441 959 1056 
Q 959 750 1161 570 
Q 1363 391 1709 391 
Q 2188 391 2477 730 
Q 2766 1069 2766 1631 
L 2766 1759 
L 2194 1759 
z
M 3341 1997 
L 3341 0 
L 2766 0 
L 2766 531 
Q 2569 213 2275 61 
Q 1981 -91 1556 -91 
Q 1019 -91 701 211 
Q 384 513 384 1019 
Q 384 1609 779 1909 
Q 1175 2209 1959 2209 
L 2766 2209 
L 2766 2266 
Q 2766 2663 2505 2880 
Q 2244 3097 1772 3097 
Q 1472 3097 1187 3025 
Q 903 2953 641 2809 
L 641 3341 
Q 956 3463 1253 3523 
Q 1550 3584 1831 3584 
Q 2591 3584 2966 3190 
Q 3341 2797 3341 1997 
z
" transform="scale(0.015625)"/>
     </defs>
     <use xlink:href="#DejaVuSans-61"/>
    </g>
   </g>
   <g id="text_3">
    <!-- b -->
    <g transform="translate(3.6 35.453219) scale(0.125 -0.125)">
     <defs>
      <path id="DejaVuSans-62" d="M 3116 1747 
Q 3116 2381 2855 2742 
Q 2594 3103 2138 3103 
Q 1681 3103 1420 2742 
Q 1159 2381 1159 1747 
Q 1159 1113 1420 752 
Q 1681 391 2138 391 
Q 2594 391 2855 752 
Q 3116 1113 3116 1747 
z
M 1159 2969 
Q 1341 3281 1617 3432 
Q 1894 3584 2278 3584 
Q 2916 3584 3314 3078 
Q 3713 2572 3713 1747 
Q 3713 922 3314 415 
Q 2916 -91 2278 -91 
Q 1894 -91 1617 61 
Q 1341 213 1159 525 
L 1159 0 
L 581 0 
L 581 4863 
L 1159 4863 
L 1159 2969 
z
" transform="scale(0.015625)"/>
     </defs>
     <use xlink:href="#DejaVuSans-62"/>
    </g>
   </g>
  </g>
 </g>
 <defs>
  <clipPath id="p5cda8f7f92">
   <rect x="11.715547" y="3.6" width="75.24" height="38.808"/>
  </clipPath>
 </defs>
</svg>
