<?xml version="1.0" encoding="utf-8" standalone="no"?>
<!DOCTYPE svg PUBLIC "-//W3C//DTD SVG 1.1//EN"
  "http://www.w3.org/Graphics/SVG/1.1/DTD/svg11.dtd">
<svg xmlns:xlink="http://www.w3.org/1999/xlink" width="193.601429pt" height="114.401429pt" viewBox="0 0 193.601429 114.401429" xmlns="http://www.w3.org/2000/svg" version="1.1">
 <metadata>
  <rdf:RDF xmlns:dc="http://purl.org/dc/elements/1.1/" xmlns:cc="http://creativecommons.org/ns#" xmlns:rdf="http://www.w3.org/1999/02/22-rdf-syntax-ns#">
   <cc:Work>
    <dc:type rdf:resource="http://purl.org/dc/dcmitype/StillImage"/>
    <dc:date>2023-11-22T20:17:32.706088</dc:date>
    <dc:format>image/svg+xml</dc:format>
    <dc:creator>
     <cc:Agent>
      <dc:title>Matplotlib v3.8.1, https://matplotlib.org/</dc:title>
     </cc:Agent>
    </dc:creator>
   </cc:Work>
  </rdf:RDF>
 </metadata>
 <defs>
  <style type="text/css">*{stroke-linejoin: round; stroke-linecap: butt}</style>
 </defs>
 <g id="figure_1">
  <g id="patch_1">
   <path d="M 0 114.401429 
L 193.601429 114.401429 
L 193.601429 0 
L 0 0 
z
" style="fill: #ffffff"/>
  </g>
  <g id="axes_1">
   <g id="patch_2">
    <path d="M 96.928636 102.328636 
L 97.07143 102.327503 
L 97.214188 102.324105 
L 97.356874 102.318442 
L 97.499452 102.310516 
L 97.641886 102.300329 
L 97.784141 102.287884 
L 97.92618 102.273183 
L 98.067968 102.25623 
L 98.20947 102.237029 
L 98.350649 102.215586 
L 98.49147 102.191906 
L 98.631898 102.165995 
L 98.771896 102.137858 
L 98.911431 102.107504 
L 99.050467 102.07494 
L 99.188968 102.040175 
L 99.326901 102.003216 
L 99.464229 101.964073 
L 99.60092 101.922757 
L 99.736937 101.879276 
L 99.872248 101.833644 
L 100.006818 101.78587 
L 100.140612 101.735967 
L 100.273598 101.683948 
L 100.405742 101.629825 
L 100.537011 101.573612 
L 100.667371 101.515324 
L 100.796791 101.454975 
L 100.925236 101.39258 
L 101.052675 101.328155 
L 101.179076 101.261717 
L 101.304407 101.193281 
L 101.428636 101.122865 
L 101.551733 101.050487 
L 101.673666 100.976165 
L 101.794404 100.899918 
L 101.913917 100.821765 
L 102.032175 100.741726 
L 102.149149 100.65982 
L 102.264808 100.576069 
L 102.379124 100.490493 
L 102.492067 100.403114 
L 102.60361 100.313955 
L 102.713725 100.223036 
L 102.822383 100.130382 
L 102.929557 100.036016 
L 103.035221 99.939962 
L 103.139347 99.842243 
L 103.24191 99.742884 
L 103.342884 99.64191 
L 103.442243 99.539347 
L 103.539962 99.435221 
L 103.636016 99.329557 
L 103.730382 99.222383 
L 103.823036 99.113725 
L 103.913955 99.00361 
L 104.003114 98.892067 
L 104.090493 98.779124 
L 104.176069 98.664808 
L 104.25982 98.549149 
L 104.341726 98.432175 
L 104.421765 98.313917 
L 104.499918 98.194404 
L 104.576165 98.073666 
L 104.650487 97.951733 
L 104.722865 97.828636 
L 104.793281 97.704407 
L 104.861717 97.579076 
L 104.928155 97.452675 
L 104.99258 97.325236 
L 105.054975 97.196791 
L 105.115324 97.067371 
L 105.173612 96.937011 
L 105.229825 96.805742 
L 105.283948 96.673598 
L 105.335967 96.540612 
L 105.38587 96.406818 
L 105.433644 96.272248 
L 105.479276 96.136937 
L 105.522757 96.00092 
L 105.564073 95.864229 
L 105.603216 95.726901 
L 105.640175 95.588968 
L 105.67494 95.450467 
L 105.707504 95.311431 
L 105.737858 95.171896 
L 105.765995 95.031898 
L 105.791906 94.89147 
L 105.815586 94.750649 
L 105.837029 94.60947 
L 105.85623 94.467968 
L 105.873183 94.32618 
L 105.887884 94.184141 
L 105.900329 94.041886 
L 105.910516 93.899452 
L 105.918442 93.756874 
L 105.924105 93.614188 
L 105.927503 93.47143 
L 105.928636 93.328636 
L 105.928636 82.528636 
L 105.927503 82.385843 
L 105.924105 82.243085 
L 105.918442 82.100399 
L 105.910516 81.957821 
L 105.900329 81.815387 
L 105.887884 81.673132 
L 105.873183 81.531093 
L 105.85623 81.389304 
L 105.837029 81.247803 
L 105.815586 81.106624 
L 105.791906 80.965803 
L 105.765995 80.825375 
L 105.737858 80.685376 
L 105.707504 80.545842 
L 105.67494 80.406806 
L 105.640175 80.268304 
L 105.603216 80.130372 
L 105.564073 79.993043 
L 105.522757 79.856353 
L 105.479276 79.720335 
L 105.433644 79.585025 
L 105.38587 79.450455 
L 105.335967 79.31666 
L 105.283948 79.183674 
L 105.229825 79.05153 
L 105.173612 78.920262 
L 105.115324 78.789901 
L 105.054975 78.660482 
L 104.99258 78.532037 
L 104.928155 78.404598 
L 104.861717 78.278197 
L 104.793281 78.152866 
L 104.722865 78.028636 
L 104.650487 77.90554 
L 104.576165 77.783607 
L 104.499918 77.662869 
L 104.421765 77.543356 
L 104.341726 77.425098 
L 104.25982 77.308124 
L 104.176069 77.192465 
L 104.090493 77.078149 
L 104.003114 76.965205 
L 103.913955 76.853662 
L 103.823036 76.743548 
L 103.730382 76.63489 
L 103.636016 76.527715 
L 103.539962 76.422052 
L 103.442243 76.317925 
L 103.342884 76.215362 
L 103.24191 76.114389 
L 103.139347 76.01503 
L 103.035221 75.917311 
L 102.929557 75.821256 
L 102.822383 75.72689 
L 102.713725 75.634236 
L 102.60361 75.543318 
L 102.492067 75.454158 
L 102.379124 75.36678 
L 102.264808 75.281204 
L 102.149149 75.197453 
L 102.032175 75.115547 
L 101.913917 75.035508 
L 101.794404 74.957355 
L 101.673666 74.881107 
L 101.551733 74.806786 
L 101.428636 74.734408 
L 101.304407 74.663992 
L 101.179076 74.595556 
L 101.052675 74.529117 
L 100.925236 74.464692 
L 100.796791 74.402297 
L 100.667371 74.341948 
L 100.537011 74.28366 
L 100.405742 74.227448 
L 100.273598 74.173325 
L 100.140612 74.121306 
L 100.006818 74.071403 
L 99.872248 74.023629 
L 99.736937 73.977996 
L 99.60092 73.934516 
L 99.464229 73.8932 
L 99.326901 73.854057 
L 99.188968 73.817098 
L 99.050467 73.782332 
L 98.911431 73.749768 
L 98.771896 73.719414 
L 98.631898 73.691278 
L 98.49147 73.665367 
L 98.350649 73.641686 
L 98.20947 73.620243 
L 98.067968 73.601043 
L 97.92618 73.58409 
L 97.784141 73.569389 
L 97.641886 73.556943 
L 97.499452 73.546756 
L 97.356874 73.53883 
L 97.214188 73.533167 
L 97.07143 73.529769 
L 96.928636 73.528636 
L 86.128636 73.528636 
L 85.985843 73.529769 
L 85.843085 73.533167 
L 85.700399 73.53883 
L 85.557821 73.546756 
L 85.415387 73.556943 
L 85.273132 73.569389 
L 85.131093 73.58409 
L 84.989304 73.601043 
L 84.847803 73.620243 
L 84.706624 73.641686 
L 84.565803 73.665367 
L 84.425375 73.691278 
L 84.285376 73.719414 
L 84.145842 73.749768 
L 84.006806 73.782332 
L 83.868304 73.817098 
L 83.730372 73.854057 
L 83.593043 73.8932 
L 83.456353 73.934516 
L 83.320335 73.977996 
L 83.185025 74.023629 
L 83.050455 74.071403 
L 82.91666 74.121306 
L 82.783674 74.173325 
L 82.65153 74.227448 
L 82.520262 74.28366 
L 82.389901 74.341948 
L 82.260482 74.402297 
L 82.132037 74.464692 
L 82.004598 74.529117 
L 81.878197 74.595556 
L 81.752866 74.663992 
L 81.628636 74.734408 
L 81.50554 74.806786 
L 81.383607 74.881107 
L 81.262869 74.957355 
L 81.143356 75.035508 
L 81.025098 75.115547 
L 80.908124 75.197453 
L 80.792465 75.281204 
L 80.678149 75.36678 
L 80.565205 75.454158 
L 80.453662 75.543318 
L 80.343548 75.634236 
L 80.23489 75.72689 
L 80.127715 75.821256 
L 80.022052 75.917311 
L 79.917925 76.01503 
L 79.815362 76.114389 
L 79.714389 76.215362 
L 79.61503 76.317925 
L 79.517311 76.422052 
L 79.421256 76.527715 
L 79.32689 76.63489 
L 79.234236 76.743548 
L 79.143318 76.853662 
L 79.054158 76.965205 
L 78.96678 77.078149 
L 78.881204 77.192465 
L 78.797453 77.308124 
L 78.715547 77.425098 
L 78.635508 77.543356 
L 78.557355 77.662869 
L 78.481107 77.783607 
L 78.406786 77.90554 
L 78.334408 78.028636 
L 78.263992 78.152866 
L 78.195556 78.278197 
L 78.129117 78.404598 
L 78.064692 78.532037 
L 78.002297 78.660482 
L 77.941948 78.789901 
L 77.88366 78.920262 
L 77.827448 79.05153 
L 77.773325 79.183674 
L 77.721306 79.31666 
L 77.671403 79.450455 
L 77.623629 79.585025 
L 77.577996 79.720335 
L 77.534516 79.856353 
L 77.4932 79.993043 
L 77.454057 80.130372 
L 77.417098 80.268304 
L 77.382332 80.406806 
L 77.349768 80.545842 
L 77.319414 80.685376 
L 77.291278 80.825375 
L 77.265367 80.965803 
L 77.241686 81.106624 
L 77.220243 81.247803 
L 77.201043 81.389304 
L 77.18409 81.531093 
L 77.169389 81.673132 
L 77.156943 81.815387 
L 77.146756 81.957821 
L 77.13883 82.100399 
L 77.133167 82.243085 
L 77.129769 82.385843 
L 77.128636 82.528636 
L 77.128636 93.328636 
L 77.129769 93.47143 
L 77.133167 93.614188 
L 77.13883 93.756874 
L 77.146756 93.899452 
L 77.156943 94.041886 
L 77.169389 94.184141 
L 77.18409 94.32618 
L 77.201043 94.467968 
L 77.220243 94.60947 
L 77.241686 94.750649 
L 77.265367 94.89147 
L 77.291278 95.031898 
L 77.319414 95.171896 
L 77.349768 95.311431 
L 77.382332 95.450467 
L 77.417098 95.588968 
L 77.454057 95.726901 
L 77.4932 95.864229 
L 77.534516 96.00092 
L 77.577996 96.136937 
L 77.623629 96.272248 
L 77.671403 96.406818 
L 77.721306 96.540612 
L 77.773325 96.673598 
L 77.827448 96.805742 
L 77.88366 96.937011 
L 77.941948 97.067371 
L 78.002297 97.196791 
L 78.064692 97.325236 
L 78.129117 97.452675 
L 78.195556 97.579076 
L 78.263992 97.704407 
L 78.334408 97.828636 
L 78.406786 97.951733 
L 78.481107 98.073666 
L 78.557355 98.194404 
L 78.635508 98.313917 
L 78.715547 98.432175 
L 78.797453 98.549149 
L 78.881204 98.664808 
L 78.96678 98.779124 
L 79.054158 98.892067 
L 79.143318 99.00361 
L 79.234236 99.113725 
L 79.32689 99.222383 
L 79.421256 99.329557 
L 79.517311 99.435221 
L 79.61503 99.539347 
L 79.714389 99.64191 
L 79.815362 99.742884 
L 79.917925 99.842243 
L 80.022052 99.939962 
L 80.127715 100.036016 
L 80.23489 100.130382 
L 80.343548 100.223036 
L 80.453662 100.313955 
L 80.565205 100.403114 
L 80.678149 100.490493 
L 80.792465 100.576069 
L 80.908124 100.65982 
L 81.025098 100.741726 
L 81.143356 100.821765 
L 81.262869 100.899918 
L 81.383607 100.976165 
L 81.50554 101.050487 
L 81.628636 101.122865 
L 81.752866 101.193281 
L 81.878197 101.261717 
L 82.004598 101.328155 
L 82.132037 101.39258 
L 82.260482 101.454975 
L 82.389901 101.515324 
L 82.520262 101.573612 
L 82.65153 101.629825 
L 82.783674 101.683948 
L 82.91666 101.735967 
L 83.050455 101.78587 
L 83.185025 101.833644 
L 83.320335 101.879276 
L 83.456353 101.922757 
L 83.593043 101.964073 
L 83.730372 102.003216 
L 83.868304 102.040175 
L 84.006806 102.07494 
L 84.145842 102.107504 
L 84.285376 102.137858 
L 84.425375 102.165995 
L 84.565803 102.191906 
L 84.706624 102.215586 
L 84.847803 102.237029 
L 84.989304 102.25623 
L 85.131093 102.273183 
L 85.273132 102.287884 
L 85.415387 102.300329 
L 85.557821 102.310516 
L 85.700399 102.318442 
L 85.843085 102.324105 
L 85.985843 102.327503 
L 86.128636 102.328636 
z
" clip-path="url(#p3000deab18)" style="fill: #ff0000; fill-opacity: 0.2; stroke: #ff0000; stroke-linecap: round"/>
   </g>
   <g id="patch_3">
    <path d="M 168.928636 102.328636 
L 169.07143 102.327503 
L 169.214188 102.324105 
L 169.356874 102.318442 
L 169.499452 102.310516 
L 169.641886 102.300329 
L 169.784141 102.287884 
L 169.92618 102.273183 
L 170.067968 102.25623 
L 170.20947 102.237029 
L 170.350649 102.215586 
L 170.49147 102.191906 
L 170.631898 102.165995 
L 170.771896 102.137858 
L 170.911431 102.107504 
L 171.050467 102.07494 
L 171.188968 102.040175 
L 171.326901 102.003216 
L 171.464229 101.964073 
L 171.60092 101.922757 
L 171.736937 101.879276 
L 171.872248 101.833644 
L 172.006818 101.78587 
L 172.140612 101.735967 
L 172.273598 101.683948 
L 172.405742 101.629825 
L 172.537011 101.573612 
L 172.667371 101.515324 
L 172.796791 101.454975 
L 172.925236 101.39258 
L 173.052675 101.328155 
L 173.179076 101.261717 
L 173.304407 101.193281 
L 173.428636 101.122865 
L 173.551733 101.050487 
L 173.673666 100.976165 
L 173.794404 100.899918 
L 173.913917 100.821765 
L 174.032175 100.741726 
L 174.149149 100.65982 
L 174.264808 100.576069 
L 174.379124 100.490493 
L 174.492067 100.403114 
L 174.60361 100.313955 
L 174.713725 100.223036 
L 174.822383 100.130382 
L 174.929557 100.036016 
L 175.035221 99.939962 
L 175.139347 99.842243 
L 175.24191 99.742884 
L 175.342884 99.64191 
L 175.442243 99.539347 
L 175.539962 99.435221 
L 175.636016 99.329557 
L 175.730382 99.222383 
L 175.823036 99.113725 
L 175.913955 99.00361 
L 176.003114 98.892067 
L 176.090493 98.779124 
L 176.176069 98.664808 
L 176.25982 98.549149 
L 176.341726 98.432175 
L 176.421765 98.313917 
L 176.499918 98.194404 
L 176.576165 98.073666 
L 176.650487 97.951733 
L 176.722865 97.828636 
L 176.793281 97.704407 
L 176.861717 97.579076 
L 176.928155 97.452675 
L 176.99258 97.325236 
L 177.054975 97.196791 
L 177.115324 97.067371 
L 177.173612 96.937011 
L 177.229825 96.805742 
L 177.283948 96.673598 
L 177.335967 96.540612 
L 177.38587 96.406818 
L 177.433644 96.272248 
L 177.479276 96.136937 
L 177.522757 96.00092 
L 177.564073 95.864229 
L 177.603216 95.726901 
L 177.640175 95.588968 
L 177.67494 95.450467 
L 177.707504 95.311431 
L 177.737858 95.171896 
L 177.765995 95.031898 
L 177.791906 94.89147 
L 177.815586 94.750649 
L 177.837029 94.60947 
L 177.85623 94.467968 
L 177.873183 94.32618 
L 177.887884 94.184141 
L 177.900329 94.041886 
L 177.910516 93.899452 
L 177.918442 93.756874 
L 177.924105 93.614188 
L 177.927503 93.47143 
L 177.928636 93.328636 
L 177.928636 82.528636 
L 177.927503 82.385843 
L 177.924105 82.243085 
L 177.918442 82.100399 
L 177.910516 81.957821 
L 177.900329 81.815387 
L 177.887884 81.673132 
L 177.873183 81.531093 
L 177.85623 81.389304 
L 177.837029 81.247803 
L 177.815586 81.106624 
L 177.791906 80.965803 
L 177.765995 80.825375 
L 177.737858 80.685376 
L 177.707504 80.545842 
L 177.67494 80.406806 
L 177.640175 80.268304 
L 177.603216 80.130372 
L 177.564073 79.993043 
L 177.522757 79.856353 
L 177.479276 79.720335 
L 177.433644 79.585025 
L 177.38587 79.450455 
L 177.335967 79.31666 
L 177.283948 79.183674 
L 177.229825 79.05153 
L 177.173612 78.920262 
L 177.115324 78.789901 
L 177.054975 78.660482 
L 176.99258 78.532037 
L 176.928155 78.404598 
L 176.861717 78.278197 
L 176.793281 78.152866 
L 176.722865 78.028636 
L 176.650487 77.90554 
L 176.576165 77.783607 
L 176.499918 77.662869 
L 176.421765 77.543356 
L 176.341726 77.425098 
L 176.25982 77.308124 
L 176.176069 77.192465 
L 176.090493 77.078149 
L 176.003114 76.965205 
L 175.913955 76.853662 
L 175.823036 76.743548 
L 175.730382 76.63489 
L 175.636016 76.527715 
L 175.539962 76.422052 
L 175.442243 76.317925 
L 175.342884 76.215362 
L 175.24191 76.114389 
L 175.139347 76.01503 
L 175.035221 75.917311 
L 174.929557 75.821256 
L 174.822383 75.72689 
L 174.713725 75.634236 
L 174.60361 75.543318 
L 174.492067 75.454158 
L 174.379124 75.36678 
L 174.264808 75.281204 
L 174.149149 75.197453 
L 174.032175 75.115547 
L 173.913917 75.035508 
L 173.794404 74.957355 
L 173.673666 74.881107 
L 173.551733 74.806786 
L 173.428636 74.734408 
L 173.304407 74.663992 
L 173.179076 74.595556 
L 173.052675 74.529117 
L 172.925236 74.464692 
L 172.796791 74.402297 
L 172.667371 74.341948 
L 172.537011 74.28366 
L 172.405742 74.227448 
L 172.273598 74.173325 
L 172.140612 74.121306 
L 172.006818 74.071403 
L 171.872248 74.023629 
L 171.736937 73.977996 
L 171.60092 73.934516 
L 171.464229 73.8932 
L 171.326901 73.854057 
L 171.188968 73.817098 
L 171.050467 73.782332 
L 170.911431 73.749768 
L 170.771896 73.719414 
L 170.631898 73.691278 
L 170.49147 73.665367 
L 170.350649 73.641686 
L 170.20947 73.620243 
L 170.067968 73.601043 
L 169.92618 73.58409 
L 169.784141 73.569389 
L 169.641886 73.556943 
L 169.499452 73.546756 
L 169.356874 73.53883 
L 169.214188 73.533167 
L 169.07143 73.529769 
L 168.928636 73.528636 
L 158.128636 73.528636 
L 157.985843 73.529769 
L 157.843085 73.533167 
L 157.700399 73.53883 
L 157.557821 73.546756 
L 157.415387 73.556943 
L 157.273132 73.569389 
L 157.131093 73.58409 
L 156.989304 73.601043 
L 156.847803 73.620243 
L 156.706624 73.641686 
L 156.565803 73.665367 
L 156.425375 73.691278 
L 156.285376 73.719414 
L 156.145842 73.749768 
L 156.006806 73.782332 
L 155.868304 73.817098 
L 155.730372 73.854057 
L 155.593043 73.8932 
L 155.456353 73.934516 
L 155.320335 73.977996 
L 155.185025 74.023629 
L 155.050455 74.071403 
L 154.91666 74.121306 
L 154.783674 74.173325 
L 154.65153 74.227448 
L 154.520262 74.28366 
L 154.389901 74.341948 
L 154.260482 74.402297 
L 154.132037 74.464692 
L 154.004598 74.529117 
L 153.878197 74.595556 
L 153.752866 74.663992 
L 153.628636 74.734408 
L 153.50554 74.806786 
L 153.383607 74.881107 
L 153.262869 74.957355 
L 153.143356 75.035508 
L 153.025098 75.115547 
L 152.908124 75.197453 
L 152.792465 75.281204 
L 152.678149 75.36678 
L 152.565205 75.454158 
L 152.453662 75.543318 
L 152.343548 75.634236 
L 152.23489 75.72689 
L 152.127715 75.821256 
L 152.022052 75.917311 
L 151.917925 76.01503 
L 151.815362 76.114389 
L 151.714389 76.215362 
L 151.61503 76.317925 
L 151.517311 76.422052 
L 151.421256 76.527715 
L 151.32689 76.63489 
L 151.234236 76.743548 
L 151.143318 76.853662 
L 151.054158 76.965205 
L 150.96678 77.078149 
L 150.881204 77.192465 
L 150.797453 77.308124 
L 150.715547 77.425098 
L 150.635508 77.543356 
L 150.557355 77.662869 
L 150.481107 77.783607 
L 150.406786 77.90554 
L 150.334408 78.028636 
L 150.263992 78.152866 
L 150.195556 78.278197 
L 150.129117 78.404598 
L 150.064692 78.532037 
L 150.002297 78.660482 
L 149.941948 78.789901 
L 149.88366 78.920262 
L 149.827448 79.05153 
L 149.773325 79.183674 
L 149.721306 79.31666 
L 149.671403 79.450455 
L 149.623629 79.585025 
L 149.577996 79.720335 
L 149.534516 79.856353 
L 149.4932 79.993043 
L 149.454057 80.130372 
L 149.417098 80.268304 
L 149.382332 80.406806 
L 149.349768 80.545842 
L 149.319414 80.685376 
L 149.291278 80.825375 
L 149.265367 80.965803 
L 149.241686 81.106624 
L 149.220243 81.247803 
L 149.201043 81.389304 
L 149.18409 81.531093 
L 149.169389 81.673132 
L 149.156943 81.815387 
L 149.146756 81.957821 
L 149.13883 82.100399 
L 149.133167 82.243085 
L 149.129769 82.385843 
L 149.128636 82.528636 
L 149.128636 93.328636 
L 149.129769 93.47143 
L 149.133167 93.614188 
L 149.13883 93.756874 
L 149.146756 93.899452 
L 149.156943 94.041886 
L 149.169389 94.184141 
L 149.18409 94.32618 
L 149.201043 94.467968 
L 149.220243 94.60947 
L 149.241686 94.750649 
L 149.265367 94.89147 
L 149.291278 95.031898 
L 149.319414 95.171896 
L 149.349768 95.311431 
L 149.382332 95.450467 
L 149.417098 95.588968 
L 149.454057 95.726901 
L 149.4932 95.864229 
L 149.534516 96.00092 
L 149.577996 96.136937 
L 149.623629 96.272248 
L 149.671403 96.406818 
L 149.721306 96.540612 
L 149.773325 96.673598 
L 149.827448 96.805742 
L 149.88366 96.937011 
L 149.941948 97.067371 
L 150.002297 97.196791 
L 150.064692 97.325236 
L 150.129117 97.452675 
L 150.195556 97.579076 
L 150.263992 97.704407 
L 150.334408 97.828636 
L 150.406786 97.951733 
L 150.481107 98.073666 
L 150.557355 98.194404 
L 150.635508 98.313917 
L 150.715547 98.432175 
L 150.797453 98.549149 
L 150.881204 98.664808 
L 150.96678 98.779124 
L 151.054158 98.892067 
L 151.143318 99.00361 
L 151.234236 99.113725 
L 151.32689 99.222383 
L 151.421256 99.329557 
L 151.517311 99.435221 
L 151.61503 99.539347 
L 151.714389 99.64191 
L 151.815362 99.742884 
L 151.917925 99.842243 
L 152.022052 99.939962 
L 152.127715 100.036016 
L 152.23489 100.130382 
L 152.343548 100.223036 
L 152.453662 100.313955 
L 152.565205 100.403114 
L 152.678149 100.490493 
L 152.792465 100.576069 
L 152.908124 100.65982 
L 153.025098 100.741726 
L 153.143356 100.821765 
L 153.262869 100.899918 
L 153.383607 100.976165 
L 153.50554 101.050487 
L 153.628636 101.122865 
L 153.752866 101.193281 
L 153.878197 101.261717 
L 154.004598 101.328155 
L 154.132037 101.39258 
L 154.260482 101.454975 
L 154.389901 101.515324 
L 154.520262 101.573612 
L 154.65153 101.629825 
L 154.783674 101.683948 
L 154.91666 101.735967 
L 155.050455 101.78587 
L 155.185025 101.833644 
L 155.320335 101.879276 
L 155.456353 101.922757 
L 155.593043 101.964073 
L 155.730372 102.003216 
L 155.868304 102.040175 
L 156.006806 102.07494 
L 156.145842 102.107504 
L 156.285376 102.137858 
L 156.425375 102.165995 
L 156.565803 102.191906 
L 156.706624 102.215586 
L 156.847803 102.237029 
L 156.989304 102.25623 
L 157.131093 102.273183 
L 157.273132 102.287884 
L 157.415387 102.300329 
L 157.557821 102.310516 
L 157.700399 102.318442 
L 157.843085 102.324105 
L 157.985843 102.327503 
L 158.128636 102.328636 
z
" clip-path="url(#p3000deab18)" style="fill: #0000ff; fill-opacity: 0.2; stroke: #0000ff; stroke-linecap: round"/>
   </g>
   <g id="patch_4">
    <path d="M 132.928636 102.328636 
L 133.07143 102.327503 
L 133.214188 102.324105 
L 133.356874 102.318442 
L 133.499452 102.310516 
L 133.641886 102.300329 
L 133.784141 102.287884 
L 133.92618 102.273183 
L 134.067968 102.25623 
L 134.20947 102.237029 
L 134.350649 102.215586 
L 134.49147 102.191906 
L 134.631898 102.165995 
L 134.771896 102.137858 
L 134.911431 102.107504 
L 135.050467 102.07494 
L 135.188968 102.040175 
L 135.326901 102.003216 
L 135.464229 101.964073 
L 135.60092 101.922757 
L 135.736937 101.879276 
L 135.872248 101.833644 
L 136.006818 101.78587 
L 136.140612 101.735967 
L 136.273598 101.683948 
L 136.405742 101.629825 
L 136.537011 101.573612 
L 136.667371 101.515324 
L 136.796791 101.454975 
L 136.925236 101.39258 
L 137.052675 101.328155 
L 137.179076 101.261717 
L 137.304407 101.193281 
L 137.428636 101.122865 
L 137.551733 101.050487 
L 137.673666 100.976165 
L 137.794404 100.899918 
L 137.913917 100.821765 
L 138.032175 100.741726 
L 138.149149 100.65982 
L 138.264808 100.576069 
L 138.379124 100.490493 
L 138.492067 100.403114 
L 138.60361 100.313955 
L 138.713725 100.223036 
L 138.822383 100.130382 
L 138.929557 100.036016 
L 139.035221 99.939962 
L 139.139347 99.842243 
L 139.24191 99.742884 
L 139.342884 99.64191 
L 139.442243 99.539347 
L 139.539962 99.435221 
L 139.636016 99.329557 
L 139.730382 99.222383 
L 139.823036 99.113725 
L 139.913955 99.00361 
L 140.003114 98.892067 
L 140.090493 98.779124 
L 140.176069 98.664808 
L 140.25982 98.549149 
L 140.341726 98.432175 
L 140.421765 98.313917 
L 140.499918 98.194404 
L 140.576165 98.073666 
L 140.650487 97.951733 
L 140.722865 97.828636 
L 140.793281 97.704407 
L 140.861717 97.579076 
L 140.928155 97.452675 
L 140.99258 97.325236 
L 141.054975 97.196791 
L 141.115324 97.067371 
L 141.173612 96.937011 
L 141.229825 96.805742 
L 141.283948 96.673598 
L 141.335967 96.540612 
L 141.38587 96.406818 
L 141.433644 96.272248 
L 141.479276 96.136937 
L 141.522757 96.00092 
L 141.564073 95.864229 
L 141.603216 95.726901 
L 141.640175 95.588968 
L 141.67494 95.450467 
L 141.707504 95.311431 
L 141.737858 95.171896 
L 141.765995 95.031898 
L 141.791906 94.89147 
L 141.815586 94.750649 
L 141.837029 94.60947 
L 141.85623 94.467968 
L 141.873183 94.32618 
L 141.887884 94.184141 
L 141.900329 94.041886 
L 141.910516 93.899452 
L 141.918442 93.756874 
L 141.924105 93.614188 
L 141.927503 93.47143 
L 141.928636 93.328636 
L 141.928636 46.528636 
L 141.927503 46.385843 
L 141.924105 46.243085 
L 141.918442 46.100399 
L 141.910516 45.957821 
L 141.900329 45.815387 
L 141.887884 45.673132 
L 141.873183 45.531093 
L 141.85623 45.389304 
L 141.837029 45.247803 
L 141.815586 45.106624 
L 141.791906 44.965803 
L 141.765995 44.825375 
L 141.737858 44.685376 
L 141.707504 44.545842 
L 141.67494 44.406806 
L 141.640175 44.268304 
L 141.603216 44.130372 
L 141.564073 43.993043 
L 141.522757 43.856353 
L 141.479276 43.720335 
L 141.433644 43.585025 
L 141.38587 43.450455 
L 141.335967 43.31666 
L 141.283948 43.183674 
L 141.229825 43.05153 
L 141.173612 42.920262 
L 141.115324 42.789901 
L 141.054975 42.660482 
L 140.99258 42.532037 
L 140.928155 42.404598 
L 140.861717 42.278197 
L 140.793281 42.152866 
L 140.722865 42.028636 
L 140.650487 41.90554 
L 140.576165 41.783607 
L 140.499918 41.662869 
L 140.421765 41.543356 
L 140.341726 41.425098 
L 140.25982 41.308124 
L 140.176069 41.192465 
L 140.090493 41.078149 
L 140.003114 40.965205 
L 139.913955 40.853662 
L 139.823036 40.743548 
L 139.730382 40.63489 
L 139.636016 40.527715 
L 139.539962 40.422052 
L 139.442243 40.317925 
L 139.342884 40.215362 
L 139.24191 40.114389 
L 139.139347 40.01503 
L 139.035221 39.917311 
L 138.929557 39.821256 
L 138.822383 39.72689 
L 138.713725 39.634236 
L 138.60361 39.543318 
L 138.492067 39.454158 
L 138.379124 39.36678 
L 138.264808 39.281204 
L 138.149149 39.197453 
L 138.032175 39.115547 
L 137.913917 39.035508 
L 137.794404 38.957355 
L 137.673666 38.881107 
L 137.551733 38.806786 
L 137.428636 38.734408 
L 137.304407 38.663992 
L 137.179076 38.595556 
L 137.052675 38.529117 
L 136.925236 38.464692 
L 136.796791 38.402297 
L 136.667371 38.341948 
L 136.537011 38.28366 
L 136.405742 38.227448 
L 136.273598 38.173325 
L 136.140612 38.121306 
L 136.006818 38.071403 
L 135.872248 38.023629 
L 135.736937 37.977996 
L 135.60092 37.934516 
L 135.464229 37.8932 
L 135.326901 37.854057 
L 135.188968 37.817098 
L 135.050467 37.782332 
L 134.911431 37.749768 
L 134.771896 37.719414 
L 134.631898 37.691278 
L 134.49147 37.665367 
L 134.350649 37.641686 
L 134.20947 37.620243 
L 134.067968 37.601043 
L 133.92618 37.58409 
L 133.784141 37.569389 
L 133.641886 37.556943 
L 133.499452 37.546756 
L 133.356874 37.53883 
L 133.214188 37.533167 
L 133.07143 37.529769 
L 132.928636 37.528636 
L 122.128636 37.528636 
L 121.985843 37.529769 
L 121.843085 37.533167 
L 121.700399 37.53883 
L 121.557821 37.546756 
L 121.415387 37.556943 
L 121.273132 37.569389 
L 121.131093 37.58409 
L 120.989304 37.601043 
L 120.847803 37.620243 
L 120.706624 37.641686 
L 120.565803 37.665367 
L 120.425375 37.691278 
L 120.285376 37.719414 
L 120.145842 37.749768 
L 120.006806 37.782332 
L 119.868304 37.817098 
L 119.730372 37.854057 
L 119.593043 37.8932 
L 119.456353 37.934516 
L 119.320335 37.977996 
L 119.185025 38.023629 
L 119.050455 38.071403 
L 118.91666 38.121306 
L 118.783674 38.173325 
L 118.65153 38.227448 
L 118.520262 38.28366 
L 118.389901 38.341948 
L 118.260482 38.402297 
L 118.132037 38.464692 
L 118.004598 38.529117 
L 117.878197 38.595556 
L 117.752866 38.663992 
L 117.628636 38.734408 
L 117.50554 38.806786 
L 117.383607 38.881107 
L 117.262869 38.957355 
L 117.143356 39.035508 
L 117.025098 39.115547 
L 116.908124 39.197453 
L 116.792465 39.281204 
L 116.678149 39.36678 
L 116.565205 39.454158 
L 116.453662 39.543318 
L 116.343548 39.634236 
L 116.23489 39.72689 
L 116.127715 39.821256 
L 116.022052 39.917311 
L 115.917925 40.01503 
L 115.815362 40.114389 
L 115.714389 40.215362 
L 115.61503 40.317925 
L 115.517311 40.422052 
L 115.421256 40.527715 
L 115.32689 40.63489 
L 115.234236 40.743548 
L 115.143318 40.853662 
L 115.054158 40.965205 
L 114.96678 41.078149 
L 114.881204 41.192465 
L 114.797453 41.308124 
L 114.715547 41.425098 
L 114.635508 41.543356 
L 114.557355 41.662869 
L 114.481107 41.783607 
L 114.406786 41.90554 
L 114.334408 42.028636 
L 114.263992 42.152866 
L 114.195556 42.278197 
L 114.129117 42.404598 
L 114.064692 42.532037 
L 114.002297 42.660482 
L 113.941948 42.789901 
L 113.88366 42.920262 
L 113.827448 43.05153 
L 113.773325 43.183674 
L 113.721306 43.31666 
L 113.671403 43.450455 
L 113.623629 43.585025 
L 113.577996 43.720335 
L 113.534516 43.856353 
L 113.4932 43.993043 
L 113.454057 44.130372 
L 113.417098 44.268304 
L 113.382332 44.406806 
L 113.349768 44.545842 
L 113.319414 44.685376 
L 113.291278 44.825375 
L 113.265367 44.965803 
L 113.241686 45.106624 
L 113.220243 45.247803 
L 113.201043 45.389304 
L 113.18409 45.531093 
L 113.169389 45.673132 
L 113.156943 45.815387 
L 113.146756 45.957821 
L 113.13883 46.100399 
L 113.133167 46.243085 
L 113.129769 46.385843 
L 113.128636 46.528636 
L 113.128636 93.328636 
L 113.129769 93.47143 
L 113.133167 93.614188 
L 113.13883 93.756874 
L 113.146756 93.899452 
L 113.156943 94.041886 
L 113.169389 94.184141 
L 113.18409 94.32618 
L 113.201043 94.467968 
L 113.220243 94.60947 
L 113.241686 94.750649 
L 113.265367 94.89147 
L 113.291278 95.031898 
L 113.319414 95.171896 
L 113.349768 95.311431 
L 113.382332 95.450467 
L 113.417098 95.588968 
L 113.454057 95.726901 
L 113.4932 95.864229 
L 113.534516 96.00092 
L 113.577996 96.136937 
L 113.623629 96.272248 
L 113.671403 96.406818 
L 113.721306 96.540612 
L 113.773325 96.673598 
L 113.827448 96.805742 
L 113.88366 96.937011 
L 113.941948 97.067371 
L 114.002297 97.196791 
L 114.064692 97.325236 
L 114.129117 97.452675 
L 114.195556 97.579076 
L 114.263992 97.704407 
L 114.334408 97.828636 
L 114.406786 97.951733 
L 114.481107 98.073666 
L 114.557355 98.194404 
L 114.635508 98.313917 
L 114.715547 98.432175 
L 114.797453 98.549149 
L 114.881204 98.664808 
L 114.96678 98.779124 
L 115.054158 98.892067 
L 115.143318 99.00361 
L 115.234236 99.113725 
L 115.32689 99.222383 
L 115.421256 99.329557 
L 115.517311 99.435221 
L 115.61503 99.539347 
L 115.714389 99.64191 
L 115.815362 99.742884 
L 115.917925 99.842243 
L 116.022052 99.939962 
L 116.127715 100.036016 
L 116.23489 100.130382 
L 116.343548 100.223036 
L 116.453662 100.313955 
L 116.565205 100.403114 
L 116.678149 100.490493 
L 116.792465 100.576069 
L 116.908124 100.65982 
L 117.025098 100.741726 
L 117.143356 100.821765 
L 117.262869 100.899918 
L 117.383607 100.976165 
L 117.50554 101.050487 
L 117.628636 101.122865 
L 117.752866 101.193281 
L 117.878197 101.261717 
L 118.004598 101.328155 
L 118.132037 101.39258 
L 118.260482 101.454975 
L 118.389901 101.515324 
L 118.520262 101.573612 
L 118.65153 101.629825 
L 118.783674 101.683948 
L 118.91666 101.735967 
L 119.050455 101.78587 
L 119.185025 101.833644 
L 119.320335 101.879276 
L 119.456353 101.922757 
L 119.593043 101.964073 
L 119.730372 102.003216 
L 119.868304 102.040175 
L 120.006806 102.07494 
L 120.145842 102.107504 
L 120.285376 102.137858 
L 120.425375 102.165995 
L 120.565803 102.191906 
L 120.706624 102.215586 
L 120.847803 102.237029 
L 120.989304 102.25623 
L 121.131093 102.273183 
L 121.273132 102.287884 
L 121.415387 102.300329 
L 121.557821 102.310516 
L 121.700399 102.318442 
L 121.843085 102.324105 
L 121.985843 102.327503 
L 122.128636 102.328636 
z
" clip-path="url(#p3000deab18)" style="fill: #00ff00; fill-opacity: 0.2; stroke: #008000; stroke-linecap: round"/>
   </g>
   <g id="line2d_1">
    <path d="M 37.528636 105.928636 
L 181.528636 105.928636 
L 181.528636 33.928636 
L 37.528636 33.928636 
L 37.528636 105.928636 
" clip-path="url(#p3000deab18)" style="fill: none; stroke: #000000; stroke-width: 1.25; stroke-linecap: round"/>
   </g>
   <g id="line2d_2">
    <path d="M 37.528636 105.928636 
L 181.528636 105.928636 
" clip-path="url(#p3000deab18)" style="fill: none; stroke: #000000; stroke-width: 1.25; stroke-linecap: round"/>
   </g>
   <g id="line2d_3">
    <path d="M 37.528636 69.928636 
L 181.528636 69.928636 
" clip-path="url(#p3000deab18)" style="fill: none; stroke: #000000; stroke-width: 1.25; stroke-linecap: round"/>
   </g>
   <g id="line2d_4">
    <path d="M 37.528636 105.928636 
L 37.528636 33.928636 
" clip-path="url(#p3000deab18)" style="fill: none; stroke: #000000; stroke-width: 1.25; stroke-linecap: round"/>
   </g>
   <g id="line2d_5">
    <path d="M 73.528636 105.928636 
L 73.528636 33.928636 
" clip-path="url(#p3000deab18)" style="fill: none; stroke: #000000; stroke-width: 1.25; stroke-linecap: round"/>
   </g>
   <g id="line2d_6">
    <path d="M 109.528636 105.928636 
L 109.528636 33.928636 
" clip-path="url(#p3000deab18)" style="fill: none; stroke: #000000; stroke-width: 1.25; stroke-linecap: round"/>
   </g>
   <g id="line2d_7">
    <path d="M 145.528636 105.928636 
L 145.528636 33.928636 
" clip-path="url(#p3000deab18)" style="fill: none; stroke: #000000; stroke-width: 1.25; stroke-linecap: round"/>
   </g>
   <g id="line2d_8">
    <path d="M 37.528636 33.928636 
L 12.072792 8.472792 
" clip-path="url(#p3000deab18)" style="fill: none; stroke: #000000; stroke-width: 1.25; stroke-linecap: round"/>
   </g>
   <g id="text_1">
    <!-- AB -->
    <g transform="translate(23.141996 12.653081) scale(0.105 -0.105)">
     <defs>
      <path id="DejaVuSans-41" d="M 2188 4044 
L 1331 1722 
L 3047 1722 
L 2188 4044 
z
M 1831 4666 
L 2547 4666 
L 4325 0 
L 3669 0 
L 3244 1197 
L 1141 1197 
L 716 0 
L 50 0 
L 1831 4666 
z
" transform="scale(0.015625)"/>
      <path id="DejaVuSans-42" d="M 1259 2228 
L 1259 519 
L 2272 519 
Q 2781 519 3026 730 
Q 3272 941 3272 1375 
Q 3272 1813 3026 2020 
Q 2781 2228 2272 2228 
L 1259 2228 
z
M 1259 4147 
L 1259 2741 
L 2194 2741 
Q 2656 2741 2882 2914 
Q 3109 3088 3109 3444 
Q 3109 3797 2882 3972 
Q 2656 4147 2194 4147 
L 1259 4147 
z
M 628 4666 
L 2241 4666 
Q 2963 4666 3353 4366 
Q 3744 4066 3744 3513 
Q 3744 3084 3544 2831 
Q 3344 2578 2956 2516 
Q 3422 2416 3680 2098 
Q 3938 1781 3938 1306 
Q 3938 681 3513 340 
Q 3088 0 2303 0 
L 628 0 
L 628 4666 
z
" transform="scale(0.015625)"/>
     </defs>
     <use xlink:href="#DejaVuSans-41"/>
     <use xlink:href="#DejaVuSans-42" x="68.408203"/>
    </g>
   </g>
   <g id="text_2">
    <!-- C -->
    <g transform="translate(11.1048 31.744964) scale(0.105 -0.105)">
     <defs>
      <path id="DejaVuSans-43" d="M 4122 4306 
L 4122 3641 
Q 3803 3938 3442 4084 
Q 3081 4231 2675 4231 
Q 1875 4231 1450 3742 
Q 1025 3253 1025 2328 
Q 1025 1406 1450 917 
Q 1875 428 2675 428 
Q 3081 428 3442 575 
Q 3803 722 4122 1019 
L 4122 359 
Q 3791 134 3420 21 
Q 3050 -91 2638 -91 
Q 1578 -91 968 557 
Q 359 1206 359 2328 
Q 359 3453 968 4101 
Q 1578 4750 2638 4750 
Q 3056 4750 3426 4639 
Q 3797 4528 4122 4306 
z
" transform="scale(0.015625)"/>
     </defs>
     <use xlink:href="#DejaVuSans-43"/>
    </g>
   </g>
   <g id="text_3">
    <!-- 00 -->
    <g transform="translate(50.120511 30.360902) scale(0.085 -0.085)">
     <defs>
      <path id="DejaVuSans-30" d="M 2034 4250 
Q 1547 4250 1301 3770 
Q 1056 3291 1056 2328 
Q 1056 1369 1301 889 
Q 1547 409 2034 409 
Q 2525 409 2770 889 
Q 3016 1369 3016 2328 
Q 3016 3291 2770 3770 
Q 2525 4250 2034 4250 
z
M 2034 4750 
Q 2819 4750 3233 4129 
Q 3647 3509 3647 2328 
Q 3647 1150 3233 529 
Q 2819 -91 2034 -91 
Q 1250 -91 836 529 
Q 422 1150 422 2328 
Q 422 3509 836 4129 
Q 1250 4750 2034 4750 
z
" transform="scale(0.015625)"/>
     </defs>
     <use xlink:href="#DejaVuSans-30"/>
     <use xlink:href="#DejaVuSans-30" x="63.623047"/>
    </g>
   </g>
   <g id="text_4">
    <!-- 01 -->
    <g transform="translate(86.120511 30.360902) scale(0.085 -0.085)">
     <defs>
      <path id="DejaVuSans-31" d="M 794 531 
L 1825 531 
L 1825 4091 
L 703 3866 
L 703 4441 
L 1819 4666 
L 2450 4666 
L 2450 531 
L 3481 531 
L 3481 0 
L 794 0 
L 794 531 
z
" transform="scale(0.015625)"/>
     </defs>
     <use xlink:href="#DejaVuSans-30"/>
     <use xlink:href="#DejaVuSans-31" x="63.623047"/>
    </g>
   </g>
   <g id="text_5">
    <!-- 10 -->
    <g transform="translate(158.120511 30.360902) scale(0.085 -0.085)">
     <use xlink:href="#DejaVuSans-31"/>
     <use xlink:href="#DejaVuSans-30" x="63.623047"/>
    </g>
   </g>
   <g id="text_6">
    <!-- 11 -->
    <g transform="translate(122.120511 30.360902) scale(0.085 -0.085)">
     <use xlink:href="#DejaVuSans-31"/>
     <use xlink:href="#DejaVuSans-31" x="63.623047"/>
    </g>
   </g>
   <g id="text_7">
    <!-- 0 -->
    <g transform="translate(28.520511 54.274105) scale(0.085 -0.085)">
     <use xlink:href="#DejaVuSans-30"/>
    </g>
   </g>
   <g id="text_8">
    <!-- 1 -->
    <g transform="translate(28.520511 90.274105) scale(0.085 -0.085)">
     <use xlink:href="#DejaVuSans-31"/>
    </g>
   </g>
   <g id="text_9">
    <!-- 0 -->
    <g transform="translate(52.188324 54.82598) scale(0.105 -0.105)">
     <use xlink:href="#DejaVuSans-30"/>
    </g>
   </g>
   <g id="text_10">
    <!-- 0 -->
    <g transform="translate(52.188324 90.82598) scale(0.105 -0.105)">
     <use xlink:href="#DejaVuSans-30"/>
    </g>
   </g>
   <g id="text_11">
    <!-- 0 -->
    <g transform="translate(88.188324 54.82598) scale(0.105 -0.105)">
     <use xlink:href="#DejaVuSans-30"/>
    </g>
   </g>
   <g id="text_12">
    <!-- 1 -->
    <g transform="translate(88.188324 90.82598) scale(0.105 -0.105)">
     <use xlink:href="#DejaVuSans-31"/>
    </g>
   </g>
   <g id="text_13">
    <!-- 0 -->
    <g transform="translate(160.188324 54.82598) scale(0.105 -0.105)">
     <use xlink:href="#DejaVuSans-30"/>
    </g>
   </g>
   <g id="text_14">
    <!-- 1 -->
    <g transform="translate(160.188324 90.82598) scale(0.105 -0.105)">
     <use xlink:href="#DejaVuSans-31"/>
    </g>
   </g>
   <g id="text_15">
    <!-- 1 -->
    <g transform="translate(124.188324 54.82598) scale(0.105 -0.105)">
     <use xlink:href="#DejaVuSans-31"/>
    </g>
   </g>
   <g id="text_16">
    <!-- 1 -->
    <g transform="translate(124.188324 90.82598) scale(0.105 -0.105)">
     <use xlink:href="#DejaVuSans-31"/>
    </g>
   </g>
  </g>
 </g>
 <defs>
  <clipPath id="p3000deab18">
   <rect x="3.6" y="3.6" width="186.401429" height="107.201429"/>
  </clipPath>
 </defs>
</svg>
