<?xml version="1.0" encoding="utf-8" standalone="no"?>
<!DOCTYPE svg PUBLIC "-//W3C//DTD SVG 1.1//EN"
  "http://www.w3.org/Graphics/SVG/1.1/DTD/svg11.dtd">
<svg xmlns:xlink="http://www.w3.org/1999/xlink" width="392.904pt" height="145.8pt" viewBox="0 0 392.904 145.8" xmlns="http://www.w3.org/2000/svg" version="1.1">
 <metadata>
  <rdf:RDF xmlns:dc="http://purl.org/dc/elements/1.1/" xmlns:cc="http://creativecommons.org/ns#" xmlns:rdf="http://www.w3.org/1999/02/22-rdf-syntax-ns#">
   <cc:Work>
    <dc:type rdf:resource="http://purl.org/dc/dcmitype/StillImage"/>
    <dc:date>2023-11-08T15:00:33.601935</dc:date>
    <dc:format>image/svg+xml</dc:format>
    <dc:creator>
     <cc:Agent>
      <dc:title>Matplotlib v3.8.1, https://matplotlib.org/</dc:title>
     </cc:Agent>
    </dc:creator>
   </cc:Work>
  </rdf:RDF>
 </metadata>
 <defs>
  <style type="text/css">*{stroke-linejoin: round; stroke-linecap: butt}</style>
 </defs>
 <g id="figure_1">
  <g id="patch_1">
   <path d="M -0 145.8 
L 392.904 145.8 
L 392.904 0 
L -0 0 
z
" style="fill: #ffffff"/>
  </g>
  <g id="axes_1">
   <g id="patch_2">
    <path d="M 115.452 77.22 
C 116.597677 77.22 117.696585 76.764818 118.506701 75.954701 
C 119.316818 75.144585 119.772 74.045677 119.772 72.9 
C 119.772 71.754323 119.316818 70.655415 118.506701 69.845299 
C 117.696585 69.035182 116.597677 68.58 115.452 68.58 
C 114.306323 68.58 113.207415 69.035182 112.397299 69.845299 
C 111.587182 70.655415 111.132 71.754323 111.132 72.9 
C 111.132 74.045677 111.587182 75.144585 112.397299 75.954701 
C 113.207415 76.764818 114.306323 77.22 115.452 77.22 
L 115.452 77.22 
z
" clip-path="url(#pcadf0d8bd2)" style="fill: none; stroke: #000000; stroke-width: 2; stroke-linejoin: miter"/>
   </g>
   <g id="patch_3">
    <path d="M 223.452 32.22 
C 224.597677 32.22 225.696585 31.764818 226.506701 30.954701 
C 227.316818 30.144585 227.772 29.045677 227.772 27.9 
C 227.772 26.754323 227.316818 25.655415 226.506701 24.845299 
C 225.696585 24.035182 224.597677 23.58 223.452 23.58 
C 222.306323 23.58 221.207415 24.035182 220.397299 24.845299 
C 219.587182 25.655415 219.132 26.754323 219.132 27.9 
C 219.132 29.045677 219.587182 30.144585 220.397299 30.954701 
C 221.207415 31.764818 222.306323 32.22 223.452 32.22 
L 223.452 32.22 
z
" clip-path="url(#pcadf0d8bd2)" style="fill: none; stroke: #000000; stroke-width: 2; stroke-linejoin: miter"/>
   </g>
   <g id="patch_4">
    <path d="M 223.452 122.22 
C 224.597677 122.22 225.696585 121.764818 226.506701 120.954701 
C 227.316818 120.144585 227.772 119.045677 227.772 117.9 
C 227.772 116.754323 227.316818 115.655415 226.506701 114.845299 
C 225.696585 114.035182 224.597677 113.58 223.452 113.58 
C 222.306323 113.58 221.207415 114.035182 220.397299 114.845299 
C 219.587182 115.655415 219.132 116.754323 219.132 117.9 
C 219.132 119.045677 219.587182 120.144585 220.397299 120.954701 
C 221.207415 121.764818 222.306323 122.22 223.452 122.22 
L 223.452 122.22 
z
" clip-path="url(#pcadf0d8bd2)" style="fill: none; stroke: #000000; stroke-width: 2; stroke-linejoin: miter"/>
   </g>
   <g id="patch_5">
    <path d="M 362.052 77.22 
C 363.197677 77.22 364.296585 76.764818 365.106701 75.954701 
C 365.916818 75.144585 366.372 74.045677 366.372 72.9 
C 366.372 71.754323 365.916818 70.655415 365.106701 69.845299 
C 364.296585 69.035182 363.197677 68.58 362.052 68.58 
C 360.906323 68.58 359.807415 69.035182 358.997299 69.845299 
C 358.187182 70.655415 357.732 71.754323 357.732 72.9 
C 357.732 74.045677 358.187182 75.144585 358.997299 75.954701 
C 359.807415 76.764818 360.906323 77.22 362.052 77.22 
L 362.052 77.22 
z
" clip-path="url(#pcadf0d8bd2)" style="fill: none; stroke: #000000; stroke-width: 2; stroke-linejoin: miter"/>
   </g>
   <g id="line2d_1">
    <path d="M 93.132 90.9 
L 94.285264 90.863017 
L 95.433789 90.75222 
L 96.572855 90.568065 
L 97.697783 90.311308 
L 98.803948 89.983003 
L 99.886806 89.584502 
L 100.941907 89.11744 
L 101.964916 88.583737 
L 102.951628 87.985586 
L 103.89799 87.325445 
L 104.800111 86.606027 
L 105.654286 85.830288 
L 106.457004 85.001416 
L 107.204967 84.122816 
L 107.895101 83.1981 
L 108.52457 82.231066 
L 109.090788 81.225689 
L 109.591427 80.1861 
L 110.024432 79.116571 
L 110.388021 78.021497 
L 110.680702 76.905377 
L 110.901272 75.772798 
L 111.048824 74.628414 
L 111.122752 73.476928 
L 111.122752 72.323072 
L 111.048824 71.171586 
L 110.901272 70.027202 
L 110.680702 68.894623 
L 110.388021 67.778503 
L 110.024432 66.683429 
L 109.591427 65.6139 
L 109.090788 64.574311 
L 108.52457 63.568934 
L 107.895101 62.6019 
L 107.204967 61.677184 
L 106.457004 60.798584 
L 105.654286 59.969712 
L 104.800111 59.193973 
L 103.89799 58.474555 
L 102.951628 57.814414 
L 101.964916 57.216263 
L 100.941907 56.68256 
L 99.886806 56.215498 
L 98.803948 55.816997 
L 97.697783 55.488692 
L 96.572855 55.231935 
L 95.433789 55.04778 
L 94.285264 54.936983 
L 93.132 54.9 
L 93.132 54.9 
L 69.732 54.9 
L 69.732 72.9 
L 69.732 90.9 
L 93.132 90.9 
" clip-path="url(#pcadf0d8bd2)" style="fill: none; stroke: #000000; stroke-width: 2; stroke-linecap: round"/>
   </g>
   <g id="line2d_2">
    <path d="M 57.132 81.9 
L 69.732 81.9 
" clip-path="url(#pcadf0d8bd2)" style="fill: none; stroke: #000000; stroke-width: 2; stroke-linecap: round"/>
   </g>
   <g id="line2d_3">
    <path d="M 57.132 63.9 
L 69.732 63.9 
" clip-path="url(#pcadf0d8bd2)" style="fill: none; stroke: #000000; stroke-width: 2; stroke-linecap: round"/>
   </g>
   <g id="line2d_4">
    <path d="M 119.772 72.9 
L 123.732 72.9 
" clip-path="url(#pcadf0d8bd2)" style="fill: none; stroke: #000000; stroke-width: 2; stroke-linecap: round"/>
   </g>
   <g id="line2d_5">
    <path d="M 201.132 45.9 
L 202.285264 45.863017 
L 203.433789 45.75222 
L 204.572855 45.568065 
L 205.697783 45.311308 
L 206.803948 44.983003 
L 207.886806 44.584502 
L 208.941907 44.11744 
L 209.964916 43.583737 
L 210.951628 42.985586 
L 211.89799 42.325445 
L 212.800111 41.606027 
L 213.654286 40.830288 
L 214.457004 40.001416 
L 215.204967 39.122816 
L 215.895101 38.1981 
L 216.52457 37.231066 
L 217.090788 36.225689 
L 217.591427 35.1861 
L 218.024432 34.116571 
L 218.388021 33.021497 
L 218.680702 31.905377 
L 218.901272 30.772798 
L 219.048824 29.628414 
L 219.122752 28.476928 
L 219.122752 27.323072 
L 219.048824 26.171586 
L 218.901272 25.027202 
L 218.680702 23.894623 
L 218.388021 22.778503 
L 218.024432 21.683429 
L 217.591427 20.6139 
L 217.090788 19.574311 
L 216.52457 18.568934 
L 215.895101 17.6019 
L 215.204967 16.677184 
L 214.457004 15.798584 
L 213.654286 14.969712 
L 212.800111 14.193973 
L 211.89799 13.474555 
L 210.951628 12.814414 
L 209.964916 12.216263 
L 208.941907 11.68256 
L 207.886806 11.215498 
L 206.803948 10.816997 
L 205.697783 10.488692 
L 204.572855 10.231935 
L 203.433789 10.04778 
L 202.285264 9.936983 
L 201.132 9.9 
L 201.132 9.9 
L 177.732 9.9 
L 177.732 27.9 
L 177.732 45.9 
L 201.132 45.9 
" clip-path="url(#pcadf0d8bd2)" style="fill: none; stroke: #000000; stroke-width: 2; stroke-linecap: round"/>
   </g>
   <g id="line2d_6">
    <path d="M 165.132 36.9 
L 177.732 36.9 
" clip-path="url(#pcadf0d8bd2)" style="fill: none; stroke: #000000; stroke-width: 2; stroke-linecap: round"/>
   </g>
   <g id="line2d_7">
    <path d="M 165.132 18.9 
L 177.732 18.9 
" clip-path="url(#pcadf0d8bd2)" style="fill: none; stroke: #000000; stroke-width: 2; stroke-linecap: round"/>
   </g>
   <g id="line2d_8">
    <path d="M 227.772 27.9 
L 231.732 27.9 
" clip-path="url(#pcadf0d8bd2)" style="fill: none; stroke: #000000; stroke-width: 2; stroke-linecap: round"/>
   </g>
   <g id="line2d_9">
    <path d="M 201.132 135.9 
L 202.285264 135.863017 
L 203.433789 135.75222 
L 204.572855 135.568065 
L 205.697783 135.311308 
L 206.803948 134.983003 
L 207.886806 134.584502 
L 208.941907 134.11744 
L 209.964916 133.583737 
L 210.951628 132.985586 
L 211.89799 132.325445 
L 212.800111 131.606027 
L 213.654286 130.830288 
L 214.457004 130.001416 
L 215.204967 129.122816 
L 215.895101 128.1981 
L 216.52457 127.231066 
L 217.090788 126.225689 
L 217.591427 125.1861 
L 218.024432 124.116571 
L 218.388021 123.021497 
L 218.680702 121.905377 
L 218.901272 120.772798 
L 219.048824 119.628414 
L 219.122752 118.476928 
L 219.122752 117.323072 
L 219.048824 116.171586 
L 218.901272 115.027202 
L 218.680702 113.894623 
L 218.388021 112.778503 
L 218.024432 111.683429 
L 217.591427 110.6139 
L 217.090788 109.574311 
L 216.52457 108.568934 
L 215.895101 107.6019 
L 215.204967 106.677184 
L 214.457004 105.798584 
L 213.654286 104.969712 
L 212.800111 104.193973 
L 211.89799 103.474555 
L 210.951628 102.814414 
L 209.964916 102.216263 
L 208.941907 101.68256 
L 207.886806 101.215498 
L 206.803948 100.816997 
L 205.697783 100.488692 
L 204.572855 100.231935 
L 203.433789 100.04778 
L 202.285264 99.936983 
L 201.132 99.9 
L 201.132 99.9 
L 177.732 99.9 
L 177.732 117.9 
L 177.732 135.9 
L 201.132 135.9 
" clip-path="url(#pcadf0d8bd2)" style="fill: none; stroke: #000000; stroke-width: 2; stroke-linecap: round"/>
   </g>
   <g id="line2d_10">
    <path d="M 165.132 126.9 
L 177.732 126.9 
" clip-path="url(#pcadf0d8bd2)" style="fill: none; stroke: #000000; stroke-width: 2; stroke-linecap: round"/>
   </g>
   <g id="line2d_11">
    <path d="M 165.132 108.9 
L 177.732 108.9 
" clip-path="url(#pcadf0d8bd2)" style="fill: none; stroke: #000000; stroke-width: 2; stroke-linecap: round"/>
   </g>
   <g id="line2d_12">
    <path d="M 227.772 117.9 
L 231.732 117.9 
" clip-path="url(#pcadf0d8bd2)" style="fill: none; stroke: #000000; stroke-width: 2; stroke-linecap: round"/>
   </g>
   <g id="line2d_13">
    <path d="M 339.732 90.9 
L 340.885264 90.863017 
L 342.033789 90.75222 
L 343.172855 90.568065 
L 344.297783 90.311308 
L 345.403948 89.983003 
L 346.486806 89.584502 
L 347.541907 89.11744 
L 348.564916 88.583737 
L 349.551628 87.985586 
L 350.49799 87.325445 
L 351.400111 86.606027 
L 352.254286 85.830288 
L 353.057004 85.001416 
L 353.804967 84.122816 
L 354.495101 83.1981 
L 355.12457 82.231066 
L 355.690788 81.225689 
L 356.191427 80.1861 
L 356.624432 79.116571 
L 356.988021 78.021497 
L 357.280702 76.905377 
L 357.501272 75.772798 
L 357.648824 74.628414 
L 357.722752 73.476928 
L 357.722752 72.323072 
L 357.648824 71.171586 
L 357.501272 70.027202 
L 357.280702 68.894623 
L 356.988021 67.778503 
L 356.624432 66.683429 
L 356.191427 65.6139 
L 355.690788 64.574311 
L 355.12457 63.568934 
L 354.495101 62.6019 
L 353.804967 61.677184 
L 353.057004 60.798584 
L 352.254286 59.969712 
L 351.400111 59.193973 
L 350.49799 58.474555 
L 349.551628 57.814414 
L 348.564916 57.216263 
L 347.541907 56.68256 
L 346.486806 56.215498 
L 345.403948 55.816997 
L 344.297783 55.488692 
L 343.172855 55.231935 
L 342.033789 55.04778 
L 340.885264 54.936983 
L 339.732 54.9 
L 339.732 54.9 
L 316.332 54.9 
L 316.332 72.9 
L 316.332 90.9 
L 339.732 90.9 
" clip-path="url(#pcadf0d8bd2)" style="fill: none; stroke: #000000; stroke-width: 2; stroke-linecap: round"/>
   </g>
   <g id="line2d_14">
    <path d="M 303.732 81.9 
L 316.332 81.9 
" clip-path="url(#pcadf0d8bd2)" style="fill: none; stroke: #000000; stroke-width: 2; stroke-linecap: round"/>
   </g>
   <g id="line2d_15">
    <path d="M 303.732 63.9 
L 316.332 63.9 
" clip-path="url(#pcadf0d8bd2)" style="fill: none; stroke: #000000; stroke-width: 2; stroke-linecap: round"/>
   </g>
   <g id="line2d_16">
    <path d="M 366.372 72.9 
L 370.332 72.9 
" clip-path="url(#pcadf0d8bd2)" style="fill: none; stroke: #000000; stroke-width: 2; stroke-linecap: round"/>
   </g>
   <g id="line2d_17">
    <path d="M 57.132 63.9 
L 39.132 63.9 
L 21.132 63.9 
" clip-path="url(#pcadf0d8bd2)" style="fill: none; stroke: #000000; stroke-width: 2; stroke-linecap: round"/>
   </g>
   <g id="line2d_18">
    <path d="M 57.132 81.9 
L 39.132 81.9 
L 21.132 81.9 
" clip-path="url(#pcadf0d8bd2)" style="fill: none; stroke: #000000; stroke-width: 2; stroke-linecap: round"/>
   </g>
   <g id="line2d_19">
    <path d="M 123.732 72.9 
L 124.452 72.9 
L 125.172 72.9 
" clip-path="url(#pcadf0d8bd2)" style="fill: none; stroke: #000000; stroke-width: 2; stroke-linecap: round"/>
   </g>
   <g id="line2d_20">
    <path d="M 231.732 27.9 
L 232.452 27.9 
L 233.172 27.9 
" clip-path="url(#pcadf0d8bd2)" style="fill: none; stroke: #000000; stroke-width: 2; stroke-linecap: round"/>
   </g>
   <g id="line2d_21">
    <path d="M 231.732 117.9 
L 232.452 117.9 
L 233.172 117.9 
" clip-path="url(#pcadf0d8bd2)" style="fill: none; stroke: #000000; stroke-width: 2; stroke-linecap: round"/>
   </g>
   <g id="line2d_22">
    <path d="M 370.332 72.9 
L 371.052 72.9 
L 371.772 72.9 
" clip-path="url(#pcadf0d8bd2)" style="fill: none; stroke: #000000; stroke-width: 2; stroke-linecap: round"/>
   </g>
   <g id="line2d_23">
    <path d="M 57.132 63.9 
L 57.132 18.9 
L 165.132 18.9 
" clip-path="url(#pcadf0d8bd2)" style="fill: none; stroke: #000000; stroke-width: 2; stroke-linecap: round"/>
   </g>
   <g id="line2d_24">
    <path d="M 57.132 81.9 
L 57.132 126.9 
L 165.132 126.9 
" clip-path="url(#pcadf0d8bd2)" style="fill: none; stroke: #000000; stroke-width: 2; stroke-linecap: round"/>
   </g>
   <g id="line2d_25">
    <path d="M 123.732 72.9 
L 165.132 36.9 
" clip-path="url(#pcadf0d8bd2)" style="fill: none; stroke: #000000; stroke-width: 2; stroke-linecap: round"/>
   </g>
   <g id="line2d_26">
    <path d="M 123.732 72.9 
L 165.132 108.9 
" clip-path="url(#pcadf0d8bd2)" style="fill: none; stroke: #000000; stroke-width: 2; stroke-linecap: round"/>
   </g>
   <g id="line2d_27">
    <path d="M 231.732 117.9 
L 303.732 81.9 
" clip-path="url(#pcadf0d8bd2)" style="fill: none; stroke: #000000; stroke-width: 2; stroke-linecap: round"/>
   </g>
   <g id="line2d_28">
    <path d="M 231.732 27.9 
L 303.732 63.9 
" clip-path="url(#pcadf0d8bd2)" style="fill: none; stroke: #000000; stroke-width: 2; stroke-linecap: round"/>
   </g>
   <g id="text_1">
    <!-- A -->
    <g transform="translate(34.856609 57.700391) scale(0.125 -0.125)">
     <defs>
      <path id="DejaVuSans-41" d="M 2188 4044 
L 1331 1722 
L 3047 1722 
L 2188 4044 
z
M 1831 4666 
L 2547 4666 
L 4325 0 
L 3669 0 
L 3244 1197 
L 1141 1197 
L 716 0 
L 50 0 
L 1831 4666 
z
" transform="scale(0.015625)"/>
     </defs>
     <use xlink:href="#DejaVuSans-41"/>
    </g>
   </g>
   <g id="text_2">
    <!-- B -->
    <g transform="translate(34.843914 75.700391) scale(0.125 -0.125)">
     <defs>
      <path id="DejaVuSans-42" d="M 1259 2228 
L 1259 519 
L 2272 519 
Q 2781 519 3026 730 
Q 3272 941 3272 1375 
Q 3272 1813 3026 2020 
Q 2781 2228 2272 2228 
L 1259 2228 
z
M 1259 4147 
L 1259 2741 
L 2194 2741 
Q 2656 2741 2882 2914 
Q 3109 3088 3109 3444 
Q 3109 3797 2882 3972 
Q 2656 4147 2194 4147 
L 1259 4147 
z
M 628 4666 
L 2241 4666 
Q 2963 4666 3353 4366 
Q 3744 4066 3744 3513 
Q 3744 3084 3544 2831 
Q 3344 2578 2956 2516 
Q 3422 2416 3680 2098 
Q 3938 1781 3938 1306 
Q 3938 681 3513 340 
Q 3088 0 2303 0 
L 628 0 
L 628 4666 
z
" transform="scale(0.015625)"/>
     </defs>
     <use xlink:href="#DejaVuSans-42"/>
    </g>
   </g>
   <g id="text_3">
    <!-- C -->
    <g transform="translate(120.087742 66.700391) scale(0.125 -0.125)">
     <defs>
      <path id="DejaVuSans-43" d="M 4122 4306 
L 4122 3641 
Q 3803 3938 3442 4084 
Q 3081 4231 2675 4231 
Q 1875 4231 1450 3742 
Q 1025 3253 1025 2328 
Q 1025 1406 1450 917 
Q 1875 428 2675 428 
Q 3081 428 3442 575 
Q 3803 722 4122 1019 
L 4122 359 
Q 3791 134 3420 21 
Q 3050 -91 2638 -91 
Q 1578 -91 968 557 
Q 359 1206 359 2328 
Q 359 3453 968 4101 
Q 1578 4750 2638 4750 
Q 3056 4750 3426 4639 
Q 3797 4528 4122 4306 
z
" transform="scale(0.015625)"/>
     </defs>
     <use xlink:href="#DejaVuSans-43"/>
    </g>
   </g>
   <g id="text_4">
    <!-- D -->
    <g transform="translate(227.6395 21.700391) scale(0.125 -0.125)">
     <defs>
      <path id="DejaVuSans-44" d="M 1259 4147 
L 1259 519 
L 2022 519 
Q 2988 519 3436 956 
Q 3884 1394 3884 2338 
Q 3884 3275 3436 3711 
Q 2988 4147 2022 4147 
L 1259 4147 
z
M 628 4666 
L 1925 4666 
Q 3281 4666 3915 4102 
Q 4550 3538 4550 2338 
Q 4550 1131 3912 565 
Q 3275 0 1925 0 
L 628 0 
L 628 4666 
z
" transform="scale(0.015625)"/>
     </defs>
     <use xlink:href="#DejaVuSans-44"/>
    </g>
   </g>
   <g id="text_5">
    <!-- E -->
    <g transform="translate(228.502781 111.700391) scale(0.125 -0.125)">
     <defs>
      <path id="DejaVuSans-45" d="M 628 4666 
L 3578 4666 
L 3578 4134 
L 1259 4134 
L 1259 2753 
L 3481 2753 
L 3481 2222 
L 1259 2222 
L 1259 531 
L 3634 531 
L 3634 0 
L 628 0 
L 628 4666 
z
" transform="scale(0.015625)"/>
     </defs>
     <use xlink:href="#DejaVuSans-45"/>
    </g>
   </g>
   <g id="text_6">
    <!-- R -->
    <g transform="translate(366.709227 66.700391) scale(0.125 -0.125)">
     <defs>
      <path id="DejaVuSans-52" d="M 2841 2188 
Q 3044 2119 3236 1894 
Q 3428 1669 3622 1275 
L 4263 0 
L 3584 0 
L 2988 1197 
Q 2756 1666 2539 1819 
Q 2322 1972 1947 1972 
L 1259 1972 
L 1259 0 
L 628 0 
L 628 4666 
L 2053 4666 
Q 2853 4666 3247 4331 
Q 3641 3997 3641 3322 
Q 3641 2881 3436 2590 
Q 3231 2300 2841 2188 
z
M 1259 4147 
L 1259 2491 
L 2053 2491 
Q 2509 2491 2742 2702 
Q 2975 2913 2975 3322 
Q 2975 3731 2742 3939 
Q 2509 4147 2053 4147 
L 1259 4147 
z
" transform="scale(0.015625)"/>
     </defs>
     <use xlink:href="#DejaVuSans-52"/>
    </g>
   </g>
  </g>
 </g>
 <defs>
  <clipPath id="pcadf0d8bd2">
   <rect x="3.6" y="3.6" width="385.704" height="138.6"/>
  </clipPath>
 </defs>
</svg>
