<?xml version="1.0" encoding="utf-8" standalone="no"?>
<!DOCTYPE svg PUBLIC "-//W3C//DTD SVG 1.1//EN"
  "http://www.w3.org/Graphics/SVG/1.1/DTD/svg11.dtd">
<svg xmlns:xlink="http://www.w3.org/1999/xlink" width="95.808594pt" height="46.8pt" viewBox="0 0 95.808594 46.8" xmlns="http://www.w3.org/2000/svg" version="1.1">
 <metadata>
  <rdf:RDF xmlns:dc="http://purl.org/dc/elements/1.1/" xmlns:cc="http://creativecommons.org/ns#" xmlns:rdf="http://www.w3.org/1999/02/22-rdf-syntax-ns#">
   <cc:Work>
    <dc:type rdf:resource="http://purl.org/dc/dcmitype/StillImage"/>
    <dc:date>2023-11-08T15:00:32.798199</dc:date>
    <dc:format>image/svg+xml</dc:format>
    <dc:creator>
     <cc:Agent>
      <dc:title>Matplotlib v3.8.1, https://matplotlib.org/</dc:title>
     </cc:Agent>
    </dc:creator>
   </cc:Work>
  </rdf:RDF>
 </metadata>
 <defs>
  <style type="text/css">*{stroke-linejoin: round; stroke-linecap: butt}</style>
 </defs>
 <g id="figure_1">
  <g id="patch_1">
   <path d="M 0 46.8 
L 95.808594 46.8 
L 95.808594 0 
L 0 0 
z
" style="fill: #ffffff"/>
  </g>
  <g id="axes_1">
   <g id="line2d_1">
    <path d="M 51.135547 41.4 
L 52.288811 41.363017 
L 53.437336 41.25222 
L 54.576402 41.068065 
L 55.701329 40.811308 
L 56.807495 40.483003 
L 57.890353 40.084502 
L 58.945454 39.61744 
L 59.968463 39.083737 
L 60.955175 38.485586 
L 61.901536 37.825445 
L 62.803658 37.106027 
L 63.657833 36.330288 
L 64.460551 35.501416 
L 65.208514 34.622816 
L 65.898647 33.6981 
L 66.528117 32.731066 
L 67.094334 31.725689 
L 67.594974 30.6861 
L 68.027978 29.616571 
L 68.391568 28.521497 
L 68.684249 27.405377 
L 68.904819 26.272798 
L 69.052371 25.128414 
L 69.126299 23.976928 
L 69.126299 22.823072 
L 69.052371 21.671586 
L 68.904819 20.527202 
L 68.684249 19.394623 
L 68.391568 18.278503 
L 68.027978 17.183429 
L 67.594974 16.1139 
L 67.094334 15.074311 
L 66.528117 14.068934 
L 65.898647 13.1019 
L 65.208514 12.177184 
L 64.460551 11.298584 
L 63.657833 10.469712 
L 62.803658 9.693973 
L 61.901536 8.974555 
L 60.955175 8.314414 
L 59.968463 7.716263 
L 58.945454 7.18256 
L 57.890353 6.715498 
L 56.807495 6.316997 
L 55.701329 5.988692 
L 54.576402 5.731935 
L 53.437336 5.54778 
L 52.288811 5.436983 
L 51.135547 5.4 
L 51.135547 5.4 
L 27.735547 5.4 
L 27.735547 23.4 
L 27.735547 41.4 
L 51.135547 41.4 
" clip-path="url(#p6b3cc463fb)" style="fill: none; stroke: #000000; stroke-width: 2; stroke-linecap: round"/>
   </g>
   <g id="line2d_2">
    <path d="M 15.135547 32.4 
L 27.735547 32.4 
" clip-path="url(#p6b3cc463fb)" style="fill: none; stroke: #000000; stroke-width: 2; stroke-linecap: round"/>
   </g>
   <g id="line2d_3">
    <path d="M 15.135547 14.4 
L 27.735547 14.4 
" clip-path="url(#p6b3cc463fb)" style="fill: none; stroke: #000000; stroke-width: 2; stroke-linecap: round"/>
   </g>
   <g id="line2d_4">
    <path d="M 69.135547 23.4 
L 81.735547 23.4 
" clip-path="url(#p6b3cc463fb)" style="fill: none; stroke: #000000; stroke-width: 2; stroke-linecap: round"/>
   </g>
   <g id="text_1">
    <!-- c -->
    <g transform="translate(85.335547 26.849219) scale(0.125 -0.125)">
     <defs>
      <path id="DejaVuSans-63" d="M 3122 3366 
L 3122 2828 
Q 2878 2963 2633 3030 
Q 2388 3097 2138 3097 
Q 1578 3097 1268 2742 
Q 959 2388 959 1747 
Q 959 1106 1268 751 
Q 1578 397 2138 397 
Q 2388 397 2633 464 
Q 2878 531 3122 666 
L 3122 134 
Q 2881 22 2623 -34 
Q 2366 -91 2075 -91 
Q 1284 -91 818 406 
Q 353 903 353 1747 
Q 353 2603 823 3093 
Q 1294 3584 2113 3584 
Q 2378 3584 2631 3529 
Q 2884 3475 3122 3366 
z
" transform="scale(0.015625)"/>
     </defs>
     <use xlink:href="#DejaVuSans-63"/>
    </g>
   </g>
   <g id="text_2">
    <!-- a -->
    <g transform="translate(3.875391 17.849219) scale(0.125 -0.125)">
     <defs>
      <path id="DejaVuSans-61" d="M 2194 1759 
Q 1497 1759 1228 1600 
Q 959 1441 959 1056 
Q 959 750 1161 570 
Q 1363 391 1709 391 
Q 2188 391 2477 730 
Q 2766 1069 2766 1631 
L 2766 1759 
L 2194 1759 
z
M 3341 1997 
L 3341 0 
L 2766 0 
L 2766 531 
Q 2569 213 2275 61 
Q 1981 -91 1556 -91 
Q 1019 -91 701 211 
Q 384 513 384 1019 
Q 384 1609 779 1909 
Q 1175 2209 1959 2209 
L 2766 2209 
L 2766 2266 
Q 2766 2663 2505 2880 
Q 2244 3097 1772 3097 
Q 1472 3097 1187 3025 
Q 903 2953 641 2809 
L 641 3341 
Q 956 3463 1253 3523 
Q 1550 3584 1831 3584 
Q 2591 3584 2966 3190 
Q 3341 2797 3341 1997 
z
" transform="scale(0.015625)"/>
     </defs>
     <use xlink:href="#DejaVuSans-61"/>
    </g>
   </g>
   <g id="text_3">
    <!-- b -->
    <g transform="translate(3.6 35.849219) scale(0.125 -0.125)">
     <defs>
      <path id="DejaVuSans-62" d="M 3116 1747 
Q 3116 2381 2855 2742 
Q 2594 3103 2138 3103 
Q 1681 3103 1420 2742 
Q 1159 2381 1159 1747 
Q 1159 1113 1420 752 
Q 1681 391 2138 391 
Q 2594 391 2855 752 
Q 3116 1113 3116 1747 
z
M 1159 2969 
Q 1341 3281 1617 3432 
Q 1894 3584 2278 3584 
Q 2916 3584 3314 3078 
Q 3713 2572 3713 1747 
Q 3713 922 3314 415 
Q 2916 -91 2278 -91 
Q 1894 -91 1617 61 
Q 1341 213 1159 525 
L 1159 0 
L 581 0 
L 581 4863 
L 1159 4863 
L 1159 2969 
z
" transform="scale(0.015625)"/>
     </defs>
     <use xlink:href="#DejaVuSans-62"/>
    </g>
   </g>
  </g>
 </g>
 <defs>
  <clipPath id="p6b3cc463fb">
   <rect x="11.805547" y="3.6" width="73.26" height="39.6"/>
  </clipPath>
 </defs>
</svg>
