<?xml version="1.0" encoding="utf-8" standalone="no"?>
<!DOCTYPE svg PUBLIC "-//W3C//DTD SVG 1.1//EN"
  "http://www.w3.org/Graphics/SVG/1.1/DTD/svg11.dtd">
<svg xmlns:xlink="http://www.w3.org/1999/xlink" width="442.8pt" height="294.3pt" viewBox="0 0 442.8 294.3" xmlns="http://www.w3.org/2000/svg" version="1.1">
 <metadata>
  <rdf:RDF xmlns:dc="http://purl.org/dc/elements/1.1/" xmlns:cc="http://creativecommons.org/ns#" xmlns:rdf="http://www.w3.org/1999/02/22-rdf-syntax-ns#">
   <cc:Work>
    <dc:type rdf:resource="http://purl.org/dc/dcmitype/StillImage"/>
    <dc:date>2023-11-08T15:00:35.426017</dc:date>
    <dc:format>image/svg+xml</dc:format>
    <dc:creator>
     <cc:Agent>
      <dc:title>Matplotlib v3.8.1, https://matplotlib.org/</dc:title>
     </cc:Agent>
    </dc:creator>
   </cc:Work>
  </rdf:RDF>
 </metadata>
 <defs>
  <style type="text/css">*{stroke-linejoin: round; stroke-linecap: butt}</style>
 </defs>
 <g id="figure_1">
  <g id="patch_1">
   <path d="M 0 294.3 
L 442.8 294.3 
L 442.8 0 
L 0 0 
z
" style="fill: #ffffff"/>
  </g>
  <g id="axes_1">
   <g id="patch_2">
    <path d="M 242.1 38.97 
C 243.245677 38.97 244.344585 38.514818 245.154701 37.704701 
C 245.964818 36.894585 246.42 35.795677 246.42 34.65 
C 246.42 33.504323 245.964818 32.405415 245.154701 31.595299 
C 244.344585 30.785182 243.245677 30.33 242.1 30.33 
C 240.954323 30.33 239.855415 30.785182 239.045299 31.595299 
C 238.235182 32.405415 237.78 33.504323 237.78 34.65 
C 237.78 35.795677 238.235182 36.894585 239.045299 37.704701 
C 239.855415 38.514818 240.954323 38.97 242.1 38.97 
L 242.1 38.97 
z
" clip-path="url(#pdb273abdbd)" style="fill: none; stroke: #000000; stroke-width: 2; stroke-linejoin: miter"/>
   </g>
   <g id="line2d_1">
    <path d="M 194.4 133.65 
L 50.4 133.65 
L 50.4 205.65 
L 50.4 277.65 
L 194.4 277.65 
L 194.4 205.65 
L 194.4 133.65 
" clip-path="url(#pdb273abdbd)" style="fill: none; stroke: #000000; stroke-width: 2; stroke-linecap: round"/>
   </g>
   <g id="line2d_2">
    <path d="M 122.4 106.65 
L 122.4 133.65 
" clip-path="url(#pdb273abdbd)" style="fill: none; stroke: #000000; stroke-width: 2; stroke-linecap: round"/>
   </g>
   <g id="line2d_3">
    <path d="M 194.4 241.65 
L 221.4 241.65 
" clip-path="url(#pdb273abdbd)" style="fill: none; stroke: #000000; stroke-width: 2; stroke-linecap: round"/>
   </g>
   <g id="line2d_4">
    <path d="M 194.4 169.65 
L 221.4 169.65 
" clip-path="url(#pdb273abdbd)" style="fill: none; stroke: #000000; stroke-width: 2; stroke-linecap: round"/>
   </g>
   <g id="line2d_5">
    <path d="M 23.4 169.65 
M 23.4 169.65 
L 50.4 169.65 
" clip-path="url(#pdb273abdbd)" style="fill: none; stroke: #000000; stroke-width: 2; stroke-linecap: round"/>
   </g>
   <g id="line2d_6">
    <path d="M 392.4 133.65 
L 248.4 133.65 
L 248.4 205.65 
L 248.4 277.65 
L 392.4 277.65 
L 392.4 205.65 
L 392.4 133.65 
" clip-path="url(#pdb273abdbd)" style="fill: none; stroke: #000000; stroke-width: 2; stroke-linecap: round"/>
   </g>
   <g id="line2d_7">
    <path d="M 320.4 106.65 
L 320.4 133.65 
" clip-path="url(#pdb273abdbd)" style="fill: none; stroke: #000000; stroke-width: 2; stroke-linecap: round"/>
   </g>
   <g id="line2d_8">
    <path d="M 392.4 241.65 
L 419.4 241.65 
" clip-path="url(#pdb273abdbd)" style="fill: none; stroke: #000000; stroke-width: 2; stroke-linecap: round"/>
   </g>
   <g id="line2d_9">
    <path d="M 392.4 169.65 
L 419.4 169.65 
" clip-path="url(#pdb273abdbd)" style="fill: none; stroke: #000000; stroke-width: 2; stroke-linecap: round"/>
   </g>
   <g id="line2d_10">
    <path d="M 221.4 169.65 
M 221.4 169.65 
L 248.4 169.65 
" clip-path="url(#pdb273abdbd)" style="fill: none; stroke: #000000; stroke-width: 2; stroke-linecap: round"/>
   </g>
   <g id="line2d_11">
    <path d="M 122.4 106.65 
L 122.4 70.65 
L 122.4 34.65 
" clip-path="url(#pdb273abdbd)" style="fill: none; stroke: #000000; stroke-width: 2; stroke-linecap: round"/>
   </g>
   <g id="line2d_12">
    <path d="M 320.4 106.65 
L 320.4 70.65 
L 320.4 34.65 
" clip-path="url(#pdb273abdbd)" style="fill: none; stroke: #000000; stroke-width: 2; stroke-linecap: round"/>
   </g>
   <g id="line2d_13">
    <path d="M 86.4 34.65 
L 131.4 34.65 
L 176.4 34.65 
" clip-path="url(#pdb273abdbd)" style="fill: none; stroke: #000000; stroke-width: 2; stroke-linecap: round"/>
   </g>
   <g id="line2d_14">
    <path d="M 176.4 34.65 
L 214.38 34.65 
M 246.42 34.65 
L 284.4 34.65 
" clip-path="url(#pdb273abdbd)" style="fill: none; stroke: #000000; stroke-width: 2; stroke-linecap: round"/>
   </g>
   <g id="line2d_15">
    <path d="M 214.38 16.65 
L 237.78 34.65 
L 214.38 52.65 
L 214.38 16.65 
" clip-path="url(#pdb273abdbd)" style="fill: none; stroke: #000000; stroke-width: 2; stroke-linecap: round"/>
   </g>
   <g id="line2d_16">
    <path d="M 284.4 34.65 
L 320.4 34.65 
L 320.4 106.65 
" clip-path="url(#pdb273abdbd)" style="fill: none; stroke: #000000; stroke-width: 2; stroke-linecap: round"/>
   </g>
   <g id="line2d_17">
    <path d="M 50.4 169.65 
L 48.6 169.65 
L 46.8 169.65 
" clip-path="url(#pdb273abdbd)" style="fill: none; stroke: #000000; stroke-width: 2; stroke-linecap: round"/>
   </g>
   <g id="line2d_18">
    <path d="M 221.4 169.65 
" clip-path="url(#pdb273abdbd)" style="fill: none; stroke: #000000; stroke-width: 2; stroke-linecap: round"/>
   </g>
   <g id="line2d_19">
    <path d="M 248.4 169.65 
L 246.6 169.65 
L 244.8 169.65 
" clip-path="url(#pdb273abdbd)" style="fill: none; stroke: #000000; stroke-width: 2; stroke-linecap: round"/>
   </g>
   <g id="line2d_20">
    <path d="M 419.4 169.65 
" clip-path="url(#pdb273abdbd)" style="fill: none; stroke: #000000; stroke-width: 2; stroke-linecap: round"/>
   </g>
   <g id="line2d_21">
    <path d="M 419.4 241.65 
" clip-path="url(#pdb273abdbd)" style="fill: none; stroke: #000000; stroke-width: 2; stroke-linecap: round"/>
   </g>
   <g id="text_1">
    <!-- L -->
    <g transform="translate(111.835156 74.099219) scale(0.125 -0.125)">
     <defs>
      <path id="DejaVuSans-4c" d="M 628 4666 
L 1259 4666 
L 1259 531 
L 3531 531 
L 3531 0 
L 628 0 
L 628 4666 
z
" transform="scale(0.015625)"/>
     </defs>
     <use xlink:href="#DejaVuSans-4c"/>
    </g>
   </g>
   <g id="text_2">
    <!-- L -->
    <g transform="translate(309.835156 74.099219) scale(0.125 -0.125)">
     <use xlink:href="#DejaVuSans-4c"/>
    </g>
   </g>
   <g id="text_3">
    <!-- Clock -->
    <g transform="translate(48.839062 38.099219) scale(0.125 -0.125)">
     <defs>
      <path id="DejaVuSans-43" d="M 4122 4306 
L 4122 3641 
Q 3803 3938 3442 4084 
Q 3081 4231 2675 4231 
Q 1875 4231 1450 3742 
Q 1025 3253 1025 2328 
Q 1025 1406 1450 917 
Q 1875 428 2675 428 
Q 3081 428 3442 575 
Q 3803 722 4122 1019 
L 4122 359 
Q 3791 134 3420 21 
Q 3050 -91 2638 -91 
Q 1578 -91 968 557 
Q 359 1206 359 2328 
Q 359 3453 968 4101 
Q 1578 4750 2638 4750 
Q 3056 4750 3426 4639 
Q 3797 4528 4122 4306 
z
" transform="scale(0.015625)"/>
      <path id="DejaVuSans-6c" d="M 603 4863 
L 1178 4863 
L 1178 0 
L 603 0 
L 603 4863 
z
" transform="scale(0.015625)"/>
      <path id="DejaVuSans-6f" d="M 1959 3097 
Q 1497 3097 1228 2736 
Q 959 2375 959 1747 
Q 959 1119 1226 758 
Q 1494 397 1959 397 
Q 2419 397 2687 759 
Q 2956 1122 2956 1747 
Q 2956 2369 2687 2733 
Q 2419 3097 1959 3097 
z
M 1959 3584 
Q 2709 3584 3137 3096 
Q 3566 2609 3566 1747 
Q 3566 888 3137 398 
Q 2709 -91 1959 -91 
Q 1206 -91 779 398 
Q 353 888 353 1747 
Q 353 2609 779 3096 
Q 1206 3584 1959 3584 
z
" transform="scale(0.015625)"/>
      <path id="DejaVuSans-63" d="M 3122 3366 
L 3122 2828 
Q 2878 2963 2633 3030 
Q 2388 3097 2138 3097 
Q 1578 3097 1268 2742 
Q 959 2388 959 1747 
Q 959 1106 1268 751 
Q 1578 397 2138 397 
Q 2388 397 2633 464 
Q 2878 531 3122 666 
L 3122 134 
Q 2881 22 2623 -34 
Q 2366 -91 2075 -91 
Q 1284 -91 818 406 
Q 353 903 353 1747 
Q 353 2603 823 3093 
Q 1294 3584 2113 3584 
Q 2378 3584 2631 3529 
Q 2884 3475 3122 3366 
z
" transform="scale(0.015625)"/>
      <path id="DejaVuSans-6b" d="M 581 4863 
L 1159 4863 
L 1159 1991 
L 2875 3500 
L 3609 3500 
L 1753 1863 
L 3688 0 
L 2938 0 
L 1159 1709 
L 1159 0 
L 581 0 
L 581 4863 
z
" transform="scale(0.015625)"/>
     </defs>
     <use xlink:href="#DejaVuSans-43"/>
     <use xlink:href="#DejaVuSans-6c" x="69.824219"/>
     <use xlink:href="#DejaVuSans-6f" x="97.607422"/>
     <use xlink:href="#DejaVuSans-63" x="158.789062"/>
     <use xlink:href="#DejaVuSans-6b" x="213.769531"/>
    </g>
   </g>
   <g id="text_4">
    <!-- D -->
    <g transform="translate(33.575 173.099219) scale(0.125 -0.125)">
     <defs>
      <path id="DejaVuSans-44" d="M 1259 4147 
L 1259 519 
L 2022 519 
Q 2988 519 3436 956 
Q 3884 1394 3884 2338 
Q 3884 3275 3436 3711 
Q 2988 4147 2022 4147 
L 1259 4147 
z
M 628 4666 
L 1925 4666 
Q 3281 4666 3915 4102 
Q 4550 3538 4550 2338 
Q 4550 1131 3912 565 
Q 3275 0 1925 0 
L 628 0 
L 628 4666 
z
" transform="scale(0.015625)"/>
     </defs>
     <use xlink:href="#DejaVuSans-44"/>
    </g>
   </g>
   <g id="text_5">
    <!-- Q -->
    <g transform="translate(207.960156 173.099219) scale(0.125 -0.125)">
     <defs>
      <path id="DejaVuSans-51" d="M 2522 4238 
Q 1834 4238 1429 3725 
Q 1025 3213 1025 2328 
Q 1025 1447 1429 934 
Q 1834 422 2522 422 
Q 3209 422 3611 934 
Q 4013 1447 4013 2328 
Q 4013 3213 3611 3725 
Q 3209 4238 2522 4238 
z
M 3406 84 
L 4238 -825 
L 3475 -825 
L 2784 -78 
Q 2681 -84 2626 -87 
Q 2572 -91 2522 -91 
Q 1538 -91 948 567 
Q 359 1225 359 2328 
Q 359 3434 948 4092 
Q 1538 4750 2522 4750 
Q 3503 4750 4090 4092 
Q 4678 3434 4678 2328 
Q 4678 1516 4351 937 
Q 4025 359 3406 84 
z
" transform="scale(0.015625)"/>
     </defs>
     <use xlink:href="#DejaVuSans-51"/>
    </g>
   </g>
   <g id="text_6">
    <!-- D -->
    <g transform="translate(231.575 173.099219) scale(0.125 -0.125)">
     <use xlink:href="#DejaVuSans-44"/>
    </g>
   </g>
   <g id="text_7">
    <!-- Q -->
    <g transform="translate(405.960156 173.099219) scale(0.125 -0.125)">
     <use xlink:href="#DejaVuSans-51"/>
    </g>
   </g>
   <g id="text_8">
    <!-- Q' -->
    <g transform="translate(402.524609 245.099219) scale(0.125 -0.125)">
     <defs>
      <path id="DejaVuSans-27" d="M 1147 4666 
L 1147 2931 
L 616 2931 
L 616 4666 
L 1147 4666 
z
" transform="scale(0.015625)"/>
     </defs>
     <use xlink:href="#DejaVuSans-51"/>
     <use xlink:href="#DejaVuSans-27" x="78.710938"/>
    </g>
   </g>
  </g>
 </g>
 <defs>
  <clipPath id="pdb273abdbd">
   <rect x="3.6" y="3.6" width="435.6" height="287.1"/>
  </clipPath>
 </defs>
</svg>
