<?xml version="1.0" encoding="utf-8" standalone="no"?>
<!DOCTYPE svg PUBLIC "-//W3C//DTD SVG 1.1//EN"
  "http://www.w3.org/Graphics/SVG/1.1/DTD/svg11.dtd">
<svg xmlns:xlink="http://www.w3.org/1999/xlink" width="159.66pt" height="66.6pt" viewBox="0 0 159.66 66.6" xmlns="http://www.w3.org/2000/svg" version="1.1">
 <metadata>
  <rdf:RDF xmlns:dc="http://purl.org/dc/elements/1.1/" xmlns:cc="http://creativecommons.org/ns#" xmlns:rdf="http://www.w3.org/1999/02/22-rdf-syntax-ns#">
   <cc:Work>
    <dc:type rdf:resource="http://purl.org/dc/dcmitype/StillImage"/>
    <dc:date>2023-11-08T15:00:34.516503</dc:date>
    <dc:format>image/svg+xml</dc:format>
    <dc:creator>
     <cc:Agent>
      <dc:title>Matplotlib v3.8.1, https://matplotlib.org/</dc:title>
     </cc:Agent>
    </dc:creator>
   </cc:Work>
  </rdf:RDF>
 </metadata>
 <defs>
  <style type="text/css">*{stroke-linejoin: round; stroke-linecap: butt}</style>
 </defs>
 <g id="figure_1">
  <g id="patch_1">
   <path d="M 0 66.6 
L 159.66 66.6 
L 159.66 0 
L 0 0 
z
" style="fill: #ffffff"/>
  </g>
  <g id="axes_1">
   <g id="patch_2">
    <path d="M 104.85 46.62 
C 105.995677 46.62 107.094585 46.164818 107.904701 45.354701 
C 108.714818 44.544585 109.17 43.445677 109.17 42.3 
C 109.17 41.154323 108.714818 40.055415 107.904701 39.245299 
C 107.094585 38.435182 105.995677 37.98 104.85 37.98 
C 103.704323 37.98 102.605415 38.435182 101.795299 39.245299 
C 100.985182 40.055415 100.53 41.154323 100.53 42.3 
C 100.53 43.445677 100.985182 44.544585 101.795299 45.354701 
C 102.605415 46.164818 103.704323 46.62 104.85 46.62 
L 104.85 46.62 
z
" clip-path="url(#p0c4fe5be69)" style="fill: none; stroke: #000000; stroke-width: 2; stroke-linejoin: miter"/>
   </g>
   <g id="line2d_1">
    <path d="M 82.53 60.3 
L 83.683264 60.263017 
L 84.831789 60.15222 
L 85.970855 59.968065 
L 87.095783 59.711308 
L 88.201948 59.383003 
L 89.284806 58.984502 
L 90.339907 58.51744 
L 91.362916 57.983737 
L 92.349628 57.385586 
L 93.29599 56.725445 
L 94.198111 56.006027 
L 95.052286 55.230288 
L 95.855004 54.401416 
L 96.602967 53.522816 
L 97.293101 52.5981 
L 97.92257 51.631066 
L 98.488788 50.625689 
L 98.989427 49.5861 
L 99.422432 48.516571 
L 99.786021 47.421497 
L 100.078702 46.305377 
L 100.299272 45.172798 
L 100.446824 44.028414 
L 100.520752 42.876928 
L 100.520752 41.723072 
L 100.446824 40.571586 
L 100.299272 39.427202 
L 100.078702 38.294623 
L 99.786021 37.178503 
L 99.422432 36.083429 
L 98.989427 35.0139 
L 98.488788 33.974311 
L 97.92257 32.968934 
L 97.293101 32.0019 
L 96.602967 31.077184 
L 95.855004 30.198584 
L 95.052286 29.369712 
L 94.198111 28.593973 
L 93.29599 27.874555 
L 92.349628 27.214414 
L 91.362916 26.616263 
L 90.339907 26.08256 
L 89.284806 25.615498 
L 88.201948 25.216997 
L 87.095783 24.888692 
L 85.970855 24.631935 
L 84.831789 24.44778 
L 83.683264 24.336983 
L 82.53 24.3 
L 82.53 24.3 
L 59.13 24.3 
L 59.13 42.3 
L 59.13 60.3 
L 82.53 60.3 
" clip-path="url(#p0c4fe5be69)" style="fill: none; stroke: #000000; stroke-width: 2; stroke-linecap: round"/>
   </g>
   <g id="line2d_2">
    <path d="M 46.53 51.3 
L 59.13 51.3 
" clip-path="url(#p0c4fe5be69)" style="fill: none; stroke: #000000; stroke-width: 2; stroke-linecap: round"/>
   </g>
   <g id="line2d_3">
    <path d="M 46.53 33.3 
L 59.13 33.3 
" clip-path="url(#p0c4fe5be69)" style="fill: none; stroke: #000000; stroke-width: 2; stroke-linecap: round"/>
   </g>
   <g id="line2d_4">
    <path d="M 109.17 42.3 
L 113.13 42.3 
" clip-path="url(#p0c4fe5be69)" style="fill: none; stroke: #000000; stroke-width: 2; stroke-linecap: round"/>
   </g>
   <g id="line2d_5">
    <path d="M 46.53 51.3 
L 28.53 51.3 
L 10.53 51.3 
" clip-path="url(#p0c4fe5be69)" style="fill: none; stroke: #000000; stroke-width: 2; stroke-linecap: round"/>
   </g>
   <g id="line2d_6">
    <path d="M 113.13 42.3 
L 113.13 6.3 
L 46.53 6.3 
L 46.53 33.3 
" clip-path="url(#p0c4fe5be69)" style="fill: none; stroke: #000000; stroke-width: 2; stroke-linecap: round"/>
   </g>
   <g id="line2d_7">
    <path d="M 113.13 42.3 
L 131.13 42.3 
L 149.13 42.3 
" clip-path="url(#p0c4fe5be69)" style="fill: none; stroke: #000000; stroke-width: 2; stroke-linecap: round"/>
   </g>
   <g id="text_1">
    <!-- A -->
    <g transform="translate(24.254609 45.100391) scale(0.125 -0.125)">
     <defs>
      <path id="DejaVuSans-41" d="M 2188 4044 
L 1331 1722 
L 3047 1722 
L 2188 4044 
z
M 1831 4666 
L 2547 4666 
L 4325 0 
L 3669 0 
L 3244 1197 
L 1141 1197 
L 716 0 
L 50 0 
L 1831 4666 
z
" transform="scale(0.015625)"/>
     </defs>
     <use xlink:href="#DejaVuSans-41"/>
    </g>
   </g>
   <g id="text_2">
    <!-- R -->
    <g transform="translate(126.787227 36.100391) scale(0.125 -0.125)">
     <defs>
      <path id="DejaVuSans-52" d="M 2841 2188 
Q 3044 2119 3236 1894 
Q 3428 1669 3622 1275 
L 4263 0 
L 3584 0 
L 2988 1197 
Q 2756 1666 2539 1819 
Q 2322 1972 1947 1972 
L 1259 1972 
L 1259 0 
L 628 0 
L 628 4666 
L 2053 4666 
Q 2853 4666 3247 4331 
Q 3641 3997 3641 3322 
Q 3641 2881 3436 2590 
Q 3231 2300 2841 2188 
z
M 1259 4147 
L 1259 2491 
L 2053 2491 
Q 2509 2491 2742 2702 
Q 2975 2913 2975 3322 
Q 2975 3731 2742 3939 
Q 2509 4147 2053 4147 
L 1259 4147 
z
" transform="scale(0.015625)"/>
     </defs>
     <use xlink:href="#DejaVuSans-52"/>
    </g>
   </g>
  </g>
 </g>
 <defs>
  <clipPath id="p0c4fe5be69">
   <rect x="3.6" y="3.6" width="152.46" height="59.4"/>
  </clipPath>
 </defs>
</svg>
