<?xml version="1.0" encoding="utf-8" standalone="no"?>
<!DOCTYPE svg PUBLIC "-//W3C//DTD SVG 1.1//EN"
  "http://www.w3.org/Graphics/SVG/1.1/DTD/svg11.dtd">
<svg xmlns:xlink="http://www.w3.org/1999/xlink" width="197.961628pt" height="193.601429pt" viewBox="0 0 197.961628 193.601429" xmlns="http://www.w3.org/2000/svg" version="1.1">
 <metadata>
  <rdf:RDF xmlns:dc="http://purl.org/dc/elements/1.1/" xmlns:cc="http://creativecommons.org/ns#" xmlns:rdf="http://www.w3.org/1999/02/22-rdf-syntax-ns#">
   <cc:Work>
    <dc:type rdf:resource="http://purl.org/dc/dcmitype/StillImage"/>
    <dc:date>2023-11-23T15:56:12.122301</dc:date>
    <dc:format>image/svg+xml</dc:format>
    <dc:creator>
     <cc:Agent>
      <dc:title>Matplotlib v3.8.1, https://matplotlib.org/</dc:title>
     </cc:Agent>
    </dc:creator>
   </cc:Work>
  </rdf:RDF>
 </metadata>
 <defs>
  <style type="text/css">*{stroke-linejoin: round; stroke-linecap: butt}</style>
 </defs>
 <g id="figure_1">
  <g id="patch_1">
   <path d="M 0 193.601429 
L 197.961628 193.601429 
L 197.961628 0 
L 0 0 
z
" style="fill: #ffffff"/>
  </g>
  <g id="axes_1">
   <g id="patch_2">
    <path d="M 176.708836 69.928636 
L 176.85163 69.927503 
L 176.994388 69.924105 
L 177.137073 69.918442 
L 177.279651 69.910516 
L 177.422086 69.900329 
L 177.564341 69.887884 
L 177.70638 69.873183 
L 177.848168 69.85623 
L 177.98967 69.837029 
L 178.130849 69.815586 
L 178.27167 69.791906 
L 178.412097 69.765995 
L 178.552096 69.737858 
L 178.691631 69.707504 
L 178.830667 69.67494 
L 178.969168 69.640175 
L 179.107101 69.603216 
L 179.244429 69.564073 
L 179.38112 69.522757 
L 179.517137 69.479276 
L 179.652448 69.433644 
L 179.787018 69.38587 
L 179.920812 69.335967 
L 180.053798 69.283948 
L 180.185942 69.229825 
L 180.317211 69.173612 
L 180.447571 69.115324 
L 180.57699 69.054975 
L 180.705436 68.99258 
L 180.832875 68.928155 
L 180.959276 68.861717 
L 181.084607 68.793281 
L 181.208836 68.722865 
L 181.331933 68.650487 
L 181.453865 68.576165 
L 181.574604 68.499918 
L 181.694117 68.421765 
L 181.812375 68.341726 
L 181.929348 68.25982 
L 182.045008 68.176069 
L 182.159323 68.090493 
L 182.272267 68.003114 
L 182.38381 67.913955 
L 182.493925 67.823036 
L 182.602583 67.730382 
L 182.709757 67.636016 
L 182.815421 67.539962 
L 182.919547 67.442243 
L 183.02211 67.342884 
L 183.123084 67.24191 
L 183.222443 67.139347 
L 183.320162 67.035221 
L 183.416216 66.929557 
L 183.510582 66.822383 
L 183.603236 66.713725 
L 183.694154 66.60361 
L 183.783314 66.492067 
L 183.870693 66.379124 
L 183.956269 66.264808 
L 184.04002 66.149149 
L 184.121925 66.032175 
L 184.201965 65.913917 
L 184.280118 65.794404 
L 184.356365 65.673666 
L 184.430687 65.551733 
L 184.503065 65.428636 
L 184.573481 65.304407 
L 184.641916 65.179076 
L 184.708355 65.052675 
L 184.77278 64.925236 
L 184.835175 64.796791 
L 184.895524 64.667371 
L 184.953812 64.537011 
L 185.010025 64.405742 
L 185.064148 64.273598 
L 185.116167 64.140612 
L 185.16607 64.006818 
L 185.213844 63.872248 
L 185.259476 63.736937 
L 185.302956 63.60092 
L 185.344273 63.464229 
L 185.383416 63.326901 
L 185.420375 63.188968 
L 185.45514 63.050467 
L 185.487704 62.911431 
L 185.518058 62.771896 
L 185.546194 62.631898 
L 185.572106 62.49147 
L 185.595786 62.350649 
L 185.617229 62.20947 
L 185.63643 62.067968 
L 185.653382 61.92618 
L 185.668084 61.784141 
L 185.680529 61.641886 
L 185.690716 61.499452 
L 185.698642 61.356874 
L 185.704305 61.214188 
L 185.707703 61.07143 
L 185.708836 60.928636 
L 185.708836 50.128636 
L 185.707703 49.985843 
L 185.704305 49.843085 
L 185.698642 49.700399 
L 185.690716 49.557821 
L 185.680529 49.415387 
L 185.668084 49.273132 
L 185.653382 49.131093 
L 185.63643 48.989304 
L 185.617229 48.847803 
L 185.595786 48.706624 
L 185.572106 48.565803 
L 185.546194 48.425375 
L 185.518058 48.285376 
L 185.487704 48.145842 
L 185.45514 48.006806 
L 185.420375 47.868304 
L 185.383416 47.730372 
L 185.344273 47.593043 
L 185.302956 47.456353 
L 185.259476 47.320335 
L 185.213844 47.185025 
L 185.16607 47.050455 
L 185.116167 46.91666 
L 185.064148 46.783674 
L 185.010025 46.65153 
L 184.953812 46.520262 
L 184.895524 46.389901 
L 184.835175 46.260482 
L 184.77278 46.132037 
L 184.708355 46.004598 
L 184.641916 45.878197 
L 184.573481 45.752866 
L 184.503065 45.628636 
L 184.430687 45.50554 
L 184.356365 45.383607 
L 184.280118 45.262869 
L 184.201965 45.143356 
L 184.121925 45.025098 
L 184.04002 44.908124 
L 183.956269 44.792465 
L 183.870693 44.678149 
L 183.783314 44.565205 
L 183.694154 44.453662 
L 183.603236 44.343548 
L 183.510582 44.23489 
L 183.416216 44.127715 
L 183.320162 44.022052 
L 183.222443 43.917925 
L 183.123084 43.815362 
L 183.02211 43.714389 
L 182.919547 43.61503 
L 182.815421 43.517311 
L 182.709757 43.421256 
L 182.602583 43.32689 
L 182.493925 43.234236 
L 182.38381 43.143318 
L 182.272267 43.054158 
L 182.159323 42.96678 
L 182.045008 42.881204 
L 181.929348 42.797453 
L 181.812375 42.715547 
L 181.694117 42.635508 
L 181.574604 42.557355 
L 181.453865 42.481107 
L 181.331933 42.406786 
L 181.208836 42.334408 
L 181.084607 42.263992 
L 180.959276 42.195556 
L 180.832875 42.129117 
L 180.705436 42.064692 
L 180.57699 42.002297 
L 180.447571 41.941948 
L 180.317211 41.88366 
L 180.185942 41.827448 
L 180.053798 41.773325 
L 179.920812 41.721306 
L 179.787018 41.671403 
L 179.652448 41.623629 
L 179.517137 41.577996 
L 179.38112 41.534516 
L 179.244429 41.4932 
L 179.107101 41.454057 
L 178.969168 41.417098 
L 178.830667 41.382332 
L 178.691631 41.349768 
L 178.552096 41.319414 
L 178.412097 41.291278 
L 178.27167 41.265367 
L 178.130849 41.241686 
L 177.98967 41.220243 
L 177.848168 41.201043 
L 177.70638 41.18409 
L 177.564341 41.169389 
L 177.422086 41.156943 
L 177.279651 41.146756 
L 177.137073 41.13883 
L 176.994388 41.133167 
L 176.85163 41.129769 
L 176.708836 41.128636 
L 158.708836 41.128636 
L 158.566043 41.129769 
L 158.423285 41.133167 
L 158.280599 41.13883 
L 158.138021 41.146756 
L 157.995587 41.156943 
L 157.853332 41.169389 
L 157.711292 41.18409 
L 157.569504 41.201043 
L 157.428003 41.220243 
L 157.286824 41.241686 
L 157.146003 41.265367 
L 157.005575 41.291278 
L 156.865576 41.319414 
L 156.726041 41.349768 
L 156.587006 41.382332 
L 156.448504 41.417098 
L 156.310572 41.454057 
L 156.173243 41.4932 
L 156.036553 41.534516 
L 155.900535 41.577996 
L 155.765225 41.623629 
L 155.630655 41.671403 
L 155.49686 41.721306 
L 155.363874 41.773325 
L 155.23173 41.827448 
L 155.100461 41.88366 
L 154.970101 41.941948 
L 154.840682 42.002297 
L 154.712237 42.064692 
L 154.584798 42.129117 
L 154.458397 42.195556 
L 154.333066 42.263992 
L 154.208836 42.334408 
L 154.08574 42.406786 
L 153.963807 42.481107 
L 153.843069 42.557355 
L 153.723556 42.635508 
L 153.605297 42.715547 
L 153.488324 42.797453 
L 153.372665 42.881204 
L 153.258349 42.96678 
L 153.145405 43.054158 
L 153.033862 43.143318 
L 152.923748 43.234236 
L 152.81509 43.32689 
L 152.707915 43.421256 
L 152.602252 43.517311 
L 152.498125 43.61503 
L 152.395562 43.714389 
L 152.294589 43.815362 
L 152.19523 43.917925 
L 152.097511 44.022052 
L 152.001456 44.127715 
L 151.90709 44.23489 
L 151.814436 44.343548 
L 151.723518 44.453662 
L 151.634358 44.565205 
L 151.54698 44.678149 
L 151.461404 44.792465 
L 151.377653 44.908124 
L 151.295747 45.025098 
L 151.215708 45.143356 
L 151.137554 45.262869 
L 151.061307 45.383607 
L 150.986985 45.50554 
L 150.914608 45.628636 
L 150.844192 45.752866 
L 150.775756 45.878197 
L 150.709317 46.004598 
L 150.644892 46.132037 
L 150.582497 46.260482 
L 150.522148 46.389901 
L 150.46386 46.520262 
L 150.407648 46.65153 
L 150.353525 46.783674 
L 150.301505 46.91666 
L 150.251603 47.050455 
L 150.203829 47.185025 
L 150.158196 47.320335 
L 150.114716 47.456353 
L 150.073399 47.593043 
L 150.034257 47.730372 
L 149.997298 47.868304 
L 149.962532 48.006806 
L 149.929968 48.145842 
L 149.899614 48.285376 
L 149.871478 48.425375 
L 149.845566 48.565803 
L 149.821886 48.706624 
L 149.800443 48.847803 
L 149.781243 48.989304 
L 149.76429 49.131093 
L 149.749589 49.273132 
L 149.737143 49.415387 
L 149.726956 49.557821 
L 149.71903 49.700399 
L 149.713367 49.843085 
L 149.709969 49.985843 
L 149.708836 50.128636 
L 149.708836 60.928636 
L 149.709969 61.07143 
L 149.713367 61.214188 
L 149.71903 61.356874 
L 149.726956 61.499452 
L 149.737143 61.641886 
L 149.749589 61.784141 
L 149.76429 61.92618 
L 149.781243 62.067968 
L 149.800443 62.20947 
L 149.821886 62.350649 
L 149.845566 62.49147 
L 149.871478 62.631898 
L 149.899614 62.771896 
L 149.929968 62.911431 
L 149.962532 63.050467 
L 149.997298 63.188968 
L 150.034257 63.326901 
L 150.073399 63.464229 
L 150.114716 63.60092 
L 150.158196 63.736937 
L 150.203829 63.872248 
L 150.251603 64.006818 
L 150.301505 64.140612 
L 150.353525 64.273598 
L 150.407648 64.405742 
L 150.46386 64.537011 
L 150.522148 64.667371 
L 150.582497 64.796791 
L 150.644892 64.925236 
L 150.709317 65.052675 
L 150.775756 65.179076 
L 150.844192 65.304407 
L 150.914608 65.428636 
L 150.986985 65.551733 
L 151.061307 65.673666 
L 151.137554 65.794404 
L 151.215708 65.913917 
L 151.295747 66.032175 
L 151.377653 66.149149 
L 151.461404 66.264808 
L 151.54698 66.379124 
L 151.634358 66.492067 
L 151.723518 66.60361 
L 151.814436 66.713725 
L 151.90709 66.822383 
L 152.001456 66.929557 
L 152.097511 67.035221 
L 152.19523 67.139347 
L 152.294589 67.24191 
L 152.395562 67.342884 
L 152.498125 67.442243 
L 152.602252 67.539962 
L 152.707915 67.636016 
L 152.81509 67.730382 
L 152.923748 67.823036 
L 153.033862 67.913955 
L 153.145405 68.003114 
L 153.258349 68.090493 
L 153.372665 68.176069 
L 153.488324 68.25982 
L 153.605297 68.341726 
L 153.723556 68.421765 
L 153.843069 68.499918 
L 153.963807 68.576165 
L 154.08574 68.650487 
L 154.208836 68.722865 
L 154.333066 68.793281 
L 154.458397 68.861717 
L 154.584798 68.928155 
L 154.712237 68.99258 
L 154.840682 69.054975 
L 154.970101 69.115324 
L 155.100461 69.173612 
L 155.23173 69.229825 
L 155.363874 69.283948 
L 155.49686 69.335967 
L 155.630655 69.38587 
L 155.765225 69.433644 
L 155.900535 69.479276 
L 156.036553 69.522757 
L 156.173243 69.564073 
L 156.310572 69.603216 
L 156.448504 69.640175 
L 156.587006 69.67494 
L 156.726041 69.707504 
L 156.865576 69.737858 
L 157.005575 69.765995 
L 157.146003 69.791906 
L 157.286824 69.815586 
L 157.428003 69.837029 
L 157.569504 69.85623 
L 157.711292 69.873183 
L 157.853332 69.887884 
L 157.995587 69.900329 
L 158.138021 69.910516 
L 158.280599 69.918442 
L 158.423285 69.924105 
L 158.566043 69.927503 
L 158.708836 69.928636 
z
" clip-path="url(#pceaa71aced)" style="fill: #ff0000; fill-opacity: 0.2; stroke: #ff0000; stroke-linecap: round"/>
   </g>
   <g id="patch_3">
    <path d="M 61.508836 69.928636 
L 61.65163 69.927503 
L 61.794388 69.924105 
L 61.937073 69.918442 
L 62.079651 69.910516 
L 62.222086 69.900329 
L 62.364341 69.887884 
L 62.50638 69.873183 
L 62.648168 69.85623 
L 62.78967 69.837029 
L 62.930849 69.815586 
L 63.07167 69.791906 
L 63.212097 69.765995 
L 63.352096 69.737858 
L 63.491631 69.707504 
L 63.630667 69.67494 
L 63.769168 69.640175 
L 63.907101 69.603216 
L 64.044429 69.564073 
L 64.18112 69.522757 
L 64.317137 69.479276 
L 64.452448 69.433644 
L 64.587018 69.38587 
L 64.720812 69.335967 
L 64.853798 69.283948 
L 64.985942 69.229825 
L 65.117211 69.173612 
L 65.247571 69.115324 
L 65.37699 69.054975 
L 65.505436 68.99258 
L 65.632875 68.928155 
L 65.759276 68.861717 
L 65.884607 68.793281 
L 66.008836 68.722865 
L 66.131933 68.650487 
L 66.253865 68.576165 
L 66.374604 68.499918 
L 66.494117 68.421765 
L 66.612375 68.341726 
L 66.729348 68.25982 
L 66.845008 68.176069 
L 66.959323 68.090493 
L 67.072267 68.003114 
L 67.18381 67.913955 
L 67.293925 67.823036 
L 67.402583 67.730382 
L 67.509757 67.636016 
L 67.615421 67.539962 
L 67.719547 67.442243 
L 67.82211 67.342884 
L 67.923084 67.24191 
L 68.022443 67.139347 
L 68.120162 67.035221 
L 68.216216 66.929557 
L 68.310582 66.822383 
L 68.403236 66.713725 
L 68.494154 66.60361 
L 68.583314 66.492067 
L 68.670693 66.379124 
L 68.756269 66.264808 
L 68.84002 66.149149 
L 68.921925 66.032175 
L 69.001965 65.913917 
L 69.080118 65.794404 
L 69.156365 65.673666 
L 69.230687 65.551733 
L 69.303065 65.428636 
L 69.373481 65.304407 
L 69.441916 65.179076 
L 69.508355 65.052675 
L 69.57278 64.925236 
L 69.635175 64.796791 
L 69.695524 64.667371 
L 69.753812 64.537011 
L 69.810025 64.405742 
L 69.864148 64.273598 
L 69.916167 64.140612 
L 69.96607 64.006818 
L 70.013844 63.872248 
L 70.059476 63.736937 
L 70.102956 63.60092 
L 70.144273 63.464229 
L 70.183416 63.326901 
L 70.220375 63.188968 
L 70.25514 63.050467 
L 70.287704 62.911431 
L 70.318058 62.771896 
L 70.346194 62.631898 
L 70.372106 62.49147 
L 70.395786 62.350649 
L 70.417229 62.20947 
L 70.43643 62.067968 
L 70.453382 61.92618 
L 70.468084 61.784141 
L 70.480529 61.641886 
L 70.490716 61.499452 
L 70.498642 61.356874 
L 70.504305 61.214188 
L 70.507703 61.07143 
L 70.508836 60.928636 
L 70.508836 50.128636 
L 70.507703 49.985843 
L 70.504305 49.843085 
L 70.498642 49.700399 
L 70.490716 49.557821 
L 70.480529 49.415387 
L 70.468084 49.273132 
L 70.453382 49.131093 
L 70.43643 48.989304 
L 70.417229 48.847803 
L 70.395786 48.706624 
L 70.372106 48.565803 
L 70.346194 48.425375 
L 70.318058 48.285376 
L 70.287704 48.145842 
L 70.25514 48.006806 
L 70.220375 47.868304 
L 70.183416 47.730372 
L 70.144273 47.593043 
L 70.102956 47.456353 
L 70.059476 47.320335 
L 70.013844 47.185025 
L 69.96607 47.050455 
L 69.916167 46.91666 
L 69.864148 46.783674 
L 69.810025 46.65153 
L 69.753812 46.520262 
L 69.695524 46.389901 
L 69.635175 46.260482 
L 69.57278 46.132037 
L 69.508355 46.004598 
L 69.441916 45.878197 
L 69.373481 45.752866 
L 69.303065 45.628636 
L 69.230687 45.50554 
L 69.156365 45.383607 
L 69.080118 45.262869 
L 69.001965 45.143356 
L 68.921925 45.025098 
L 68.84002 44.908124 
L 68.756269 44.792465 
L 68.670693 44.678149 
L 68.583314 44.565205 
L 68.494154 44.453662 
L 68.403236 44.343548 
L 68.310582 44.23489 
L 68.216216 44.127715 
L 68.120162 44.022052 
L 68.022443 43.917925 
L 67.923084 43.815362 
L 67.82211 43.714389 
L 67.719547 43.61503 
L 67.615421 43.517311 
L 67.509757 43.421256 
L 67.402583 43.32689 
L 67.293925 43.234236 
L 67.18381 43.143318 
L 67.072267 43.054158 
L 66.959323 42.96678 
L 66.845008 42.881204 
L 66.729348 42.797453 
L 66.612375 42.715547 
L 66.494117 42.635508 
L 66.374604 42.557355 
L 66.253865 42.481107 
L 66.131933 42.406786 
L 66.008836 42.334408 
L 65.884607 42.263992 
L 65.759276 42.195556 
L 65.632875 42.129117 
L 65.505436 42.064692 
L 65.37699 42.002297 
L 65.247571 41.941948 
L 65.117211 41.88366 
L 64.985942 41.827448 
L 64.853798 41.773325 
L 64.720812 41.721306 
L 64.587018 41.671403 
L 64.452448 41.623629 
L 64.317137 41.577996 
L 64.18112 41.534516 
L 64.044429 41.4932 
L 63.907101 41.454057 
L 63.769168 41.417098 
L 63.630667 41.382332 
L 63.491631 41.349768 
L 63.352096 41.319414 
L 63.212097 41.291278 
L 63.07167 41.265367 
L 62.930849 41.241686 
L 62.78967 41.220243 
L 62.648168 41.201043 
L 62.50638 41.18409 
L 62.364341 41.169389 
L 62.222086 41.156943 
L 62.079651 41.146756 
L 61.937073 41.13883 
L 61.794388 41.133167 
L 61.65163 41.129769 
L 61.508836 41.128636 
L 43.508836 41.128636 
L 43.366043 41.129769 
L 43.223285 41.133167 
L 43.080599 41.13883 
L 42.938021 41.146756 
L 42.795587 41.156943 
L 42.653332 41.169389 
L 42.511292 41.18409 
L 42.369504 41.201043 
L 42.228003 41.220243 
L 42.086824 41.241686 
L 41.946003 41.265367 
L 41.805575 41.291278 
L 41.665576 41.319414 
L 41.526041 41.349768 
L 41.387006 41.382332 
L 41.248504 41.417098 
L 41.110572 41.454057 
L 40.973243 41.4932 
L 40.836553 41.534516 
L 40.700535 41.577996 
L 40.565225 41.623629 
L 40.430655 41.671403 
L 40.29686 41.721306 
L 40.163874 41.773325 
L 40.03173 41.827448 
L 39.900461 41.88366 
L 39.770101 41.941948 
L 39.640682 42.002297 
L 39.512237 42.064692 
L 39.384798 42.129117 
L 39.258397 42.195556 
L 39.133066 42.263992 
L 39.008836 42.334408 
L 38.88574 42.406786 
L 38.763807 42.481107 
L 38.643069 42.557355 
L 38.523556 42.635508 
L 38.405297 42.715547 
L 38.288324 42.797453 
L 38.172665 42.881204 
L 38.058349 42.96678 
L 37.945405 43.054158 
L 37.833862 43.143318 
L 37.723748 43.234236 
L 37.61509 43.32689 
L 37.507915 43.421256 
L 37.402252 43.517311 
L 37.298125 43.61503 
L 37.195562 43.714389 
L 37.094589 43.815362 
L 36.99523 43.917925 
L 36.897511 44.022052 
L 36.801456 44.127715 
L 36.70709 44.23489 
L 36.614436 44.343548 
L 36.523518 44.453662 
L 36.434358 44.565205 
L 36.34698 44.678149 
L 36.261404 44.792465 
L 36.177653 44.908124 
L 36.095747 45.025098 
L 36.015708 45.143356 
L 35.937554 45.262869 
L 35.861307 45.383607 
L 35.786985 45.50554 
L 35.714608 45.628636 
L 35.644192 45.752866 
L 35.575756 45.878197 
L 35.509317 46.004598 
L 35.444892 46.132037 
L 35.382497 46.260482 
L 35.322148 46.389901 
L 35.26386 46.520262 
L 35.207648 46.65153 
L 35.153525 46.783674 
L 35.101505 46.91666 
L 35.051603 47.050455 
L 35.003829 47.185025 
L 34.958196 47.320335 
L 34.914716 47.456353 
L 34.873399 47.593043 
L 34.834257 47.730372 
L 34.797298 47.868304 
L 34.762532 48.006806 
L 34.729968 48.145842 
L 34.699614 48.285376 
L 34.671478 48.425375 
L 34.645566 48.565803 
L 34.621886 48.706624 
L 34.600443 48.847803 
L 34.581243 48.989304 
L 34.56429 49.131093 
L 34.549589 49.273132 
L 34.537143 49.415387 
L 34.526956 49.557821 
L 34.51903 49.700399 
L 34.513367 49.843085 
L 34.509969 49.985843 
L 34.508836 50.128636 
L 34.508836 60.928636 
L 34.509969 61.07143 
L 34.513367 61.214188 
L 34.51903 61.356874 
L 34.526956 61.499452 
L 34.537143 61.641886 
L 34.549589 61.784141 
L 34.56429 61.92618 
L 34.581243 62.067968 
L 34.600443 62.20947 
L 34.621886 62.350649 
L 34.645566 62.49147 
L 34.671478 62.631898 
L 34.699614 62.771896 
L 34.729968 62.911431 
L 34.762532 63.050467 
L 34.797298 63.188968 
L 34.834257 63.326901 
L 34.873399 63.464229 
L 34.914716 63.60092 
L 34.958196 63.736937 
L 35.003829 63.872248 
L 35.051603 64.006818 
L 35.101505 64.140612 
L 35.153525 64.273598 
L 35.207648 64.405742 
L 35.26386 64.537011 
L 35.322148 64.667371 
L 35.382497 64.796791 
L 35.444892 64.925236 
L 35.509317 65.052675 
L 35.575756 65.179076 
L 35.644192 65.304407 
L 35.714608 65.428636 
L 35.786985 65.551733 
L 35.861307 65.673666 
L 35.937554 65.794404 
L 36.015708 65.913917 
L 36.095747 66.032175 
L 36.177653 66.149149 
L 36.261404 66.264808 
L 36.34698 66.379124 
L 36.434358 66.492067 
L 36.523518 66.60361 
L 36.614436 66.713725 
L 36.70709 66.822383 
L 36.801456 66.929557 
L 36.897511 67.035221 
L 36.99523 67.139347 
L 37.094589 67.24191 
L 37.195562 67.342884 
L 37.298125 67.442243 
L 37.402252 67.539962 
L 37.507915 67.636016 
L 37.61509 67.730382 
L 37.723748 67.823036 
L 37.833862 67.913955 
L 37.945405 68.003114 
L 38.058349 68.090493 
L 38.172665 68.176069 
L 38.288324 68.25982 
L 38.405297 68.341726 
L 38.523556 68.421765 
L 38.643069 68.499918 
L 38.763807 68.576165 
L 38.88574 68.650487 
L 39.008836 68.722865 
L 39.133066 68.793281 
L 39.258397 68.861717 
L 39.384798 68.928155 
L 39.512237 68.99258 
L 39.640682 69.054975 
L 39.770101 69.115324 
L 39.900461 69.173612 
L 40.03173 69.229825 
L 40.163874 69.283948 
L 40.29686 69.335967 
L 40.430655 69.38587 
L 40.565225 69.433644 
L 40.700535 69.479276 
L 40.836553 69.522757 
L 40.973243 69.564073 
L 41.110572 69.603216 
L 41.248504 69.640175 
L 41.387006 69.67494 
L 41.526041 69.707504 
L 41.665576 69.737858 
L 41.805575 69.765995 
L 41.946003 69.791906 
L 42.086824 69.815586 
L 42.228003 69.837029 
L 42.369504 69.85623 
L 42.511292 69.873183 
L 42.653332 69.887884 
L 42.795587 69.900329 
L 42.938021 69.910516 
L 43.080599 69.918442 
L 43.223285 69.924105 
L 43.366043 69.927503 
L 43.508836 69.928636 
z
" clip-path="url(#pceaa71aced)" style="fill: #ff0000; fill-opacity: 0.2; stroke: #ff0000; stroke-linecap: round"/>
   </g>
   <g id="patch_4">
    <path d="M 97.508836 177.928636 
L 97.65163 177.927503 
L 97.794388 177.924105 
L 97.937073 177.918442 
L 98.079651 177.910516 
L 98.222086 177.900329 
L 98.364341 177.887884 
L 98.50638 177.873183 
L 98.648168 177.85623 
L 98.78967 177.837029 
L 98.930849 177.815586 
L 99.07167 177.791906 
L 99.212097 177.765995 
L 99.352096 177.737858 
L 99.491631 177.707504 
L 99.630667 177.67494 
L 99.769168 177.640175 
L 99.907101 177.603216 
L 100.044429 177.564073 
L 100.18112 177.522757 
L 100.317137 177.479276 
L 100.452448 177.433644 
L 100.587018 177.38587 
L 100.720812 177.335967 
L 100.853798 177.283948 
L 100.985942 177.229825 
L 101.117211 177.173612 
L 101.247571 177.115324 
L 101.37699 177.054975 
L 101.505436 176.99258 
L 101.632875 176.928155 
L 101.759276 176.861717 
L 101.884607 176.793281 
L 102.008836 176.722865 
L 102.131933 176.650487 
L 102.253865 176.576165 
L 102.374604 176.499918 
L 102.494117 176.421765 
L 102.612375 176.341726 
L 102.729348 176.25982 
L 102.845008 176.176069 
L 102.959323 176.090493 
L 103.072267 176.003114 
L 103.18381 175.913955 
L 103.293925 175.823036 
L 103.402583 175.730382 
L 103.509757 175.636016 
L 103.615421 175.539962 
L 103.719547 175.442243 
L 103.82211 175.342884 
L 103.923084 175.24191 
L 104.022443 175.139347 
L 104.120162 175.035221 
L 104.216216 174.929557 
L 104.310582 174.822383 
L 104.403236 174.713725 
L 104.494154 174.60361 
L 104.583314 174.492067 
L 104.670693 174.379124 
L 104.756269 174.264808 
L 104.84002 174.149149 
L 104.921925 174.032175 
L 105.001965 173.913917 
L 105.080118 173.794404 
L 105.156365 173.673666 
L 105.230687 173.551733 
L 105.303065 173.428636 
L 105.373481 173.304407 
L 105.441916 173.179076 
L 105.508355 173.052675 
L 105.57278 172.925236 
L 105.635175 172.796791 
L 105.695524 172.667371 
L 105.753812 172.537011 
L 105.810025 172.405742 
L 105.864148 172.273598 
L 105.916167 172.140612 
L 105.96607 172.006818 
L 106.013844 171.872248 
L 106.059476 171.736937 
L 106.102956 171.60092 
L 106.144273 171.464229 
L 106.183416 171.326901 
L 106.220375 171.188968 
L 106.25514 171.050467 
L 106.287704 170.911431 
L 106.318058 170.771896 
L 106.346194 170.631898 
L 106.372106 170.49147 
L 106.395786 170.350649 
L 106.417229 170.20947 
L 106.43643 170.067968 
L 106.453382 169.92618 
L 106.468084 169.784141 
L 106.480529 169.641886 
L 106.490716 169.499452 
L 106.498642 169.356874 
L 106.504305 169.214188 
L 106.507703 169.07143 
L 106.508836 168.928636 
L 106.508836 50.128636 
L 106.507703 49.985843 
L 106.504305 49.843085 
L 106.498642 49.700399 
L 106.490716 49.557821 
L 106.480529 49.415387 
L 106.468084 49.273132 
L 106.453382 49.131093 
L 106.43643 48.989304 
L 106.417229 48.847803 
L 106.395786 48.706624 
L 106.372106 48.565803 
L 106.346194 48.425375 
L 106.318058 48.285376 
L 106.287704 48.145842 
L 106.25514 48.006806 
L 106.220375 47.868304 
L 106.183416 47.730372 
L 106.144273 47.593043 
L 106.102956 47.456353 
L 106.059476 47.320335 
L 106.013844 47.185025 
L 105.96607 47.050455 
L 105.916167 46.91666 
L 105.864148 46.783674 
L 105.810025 46.65153 
L 105.753812 46.520262 
L 105.695524 46.389901 
L 105.635175 46.260482 
L 105.57278 46.132037 
L 105.508355 46.004598 
L 105.441916 45.878197 
L 105.373481 45.752866 
L 105.303065 45.628636 
L 105.230687 45.50554 
L 105.156365 45.383607 
L 105.080118 45.262869 
L 105.001965 45.143356 
L 104.921925 45.025098 
L 104.84002 44.908124 
L 104.756269 44.792465 
L 104.670693 44.678149 
L 104.583314 44.565205 
L 104.494154 44.453662 
L 104.403236 44.343548 
L 104.310582 44.23489 
L 104.216216 44.127715 
L 104.120162 44.022052 
L 104.022443 43.917925 
L 103.923084 43.815362 
L 103.82211 43.714389 
L 103.719547 43.61503 
L 103.615421 43.517311 
L 103.509757 43.421256 
L 103.402583 43.32689 
L 103.293925 43.234236 
L 103.18381 43.143318 
L 103.072267 43.054158 
L 102.959323 42.96678 
L 102.845008 42.881204 
L 102.729348 42.797453 
L 102.612375 42.715547 
L 102.494117 42.635508 
L 102.374604 42.557355 
L 102.253865 42.481107 
L 102.131933 42.406786 
L 102.008836 42.334408 
L 101.884607 42.263992 
L 101.759276 42.195556 
L 101.632875 42.129117 
L 101.505436 42.064692 
L 101.37699 42.002297 
L 101.247571 41.941948 
L 101.117211 41.88366 
L 100.985942 41.827448 
L 100.853798 41.773325 
L 100.720812 41.721306 
L 100.587018 41.671403 
L 100.452448 41.623629 
L 100.317137 41.577996 
L 100.18112 41.534516 
L 100.044429 41.4932 
L 99.907101 41.454057 
L 99.769168 41.417098 
L 99.630667 41.382332 
L 99.491631 41.349768 
L 99.352096 41.319414 
L 99.212097 41.291278 
L 99.07167 41.265367 
L 98.930849 41.241686 
L 98.78967 41.220243 
L 98.648168 41.201043 
L 98.50638 41.18409 
L 98.364341 41.169389 
L 98.222086 41.156943 
L 98.079651 41.146756 
L 97.937073 41.13883 
L 97.794388 41.133167 
L 97.65163 41.129769 
L 97.508836 41.128636 
L 86.708836 41.128636 
L 86.566043 41.129769 
L 86.423285 41.133167 
L 86.280599 41.13883 
L 86.138021 41.146756 
L 85.995587 41.156943 
L 85.853332 41.169389 
L 85.711292 41.18409 
L 85.569504 41.201043 
L 85.428003 41.220243 
L 85.286824 41.241686 
L 85.146003 41.265367 
L 85.005575 41.291278 
L 84.865576 41.319414 
L 84.726041 41.349768 
L 84.587006 41.382332 
L 84.448504 41.417098 
L 84.310572 41.454057 
L 84.173243 41.4932 
L 84.036553 41.534516 
L 83.900535 41.577996 
L 83.765225 41.623629 
L 83.630655 41.671403 
L 83.49686 41.721306 
L 83.363874 41.773325 
L 83.23173 41.827448 
L 83.100461 41.88366 
L 82.970101 41.941948 
L 82.840682 42.002297 
L 82.712237 42.064692 
L 82.584798 42.129117 
L 82.458397 42.195556 
L 82.333066 42.263992 
L 82.208836 42.334408 
L 82.08574 42.406786 
L 81.963807 42.481107 
L 81.843069 42.557355 
L 81.723556 42.635508 
L 81.605297 42.715547 
L 81.488324 42.797453 
L 81.372665 42.881204 
L 81.258349 42.96678 
L 81.145405 43.054158 
L 81.033862 43.143318 
L 80.923748 43.234236 
L 80.81509 43.32689 
L 80.707915 43.421256 
L 80.602252 43.517311 
L 80.498125 43.61503 
L 80.395562 43.714389 
L 80.294589 43.815362 
L 80.19523 43.917925 
L 80.097511 44.022052 
L 80.001456 44.127715 
L 79.90709 44.23489 
L 79.814436 44.343548 
L 79.723518 44.453662 
L 79.634358 44.565205 
L 79.54698 44.678149 
L 79.461404 44.792465 
L 79.377653 44.908124 
L 79.295747 45.025098 
L 79.215708 45.143356 
L 79.137554 45.262869 
L 79.061307 45.383607 
L 78.986985 45.50554 
L 78.914608 45.628636 
L 78.844192 45.752866 
L 78.775756 45.878197 
L 78.709317 46.004598 
L 78.644892 46.132037 
L 78.582497 46.260482 
L 78.522148 46.389901 
L 78.46386 46.520262 
L 78.407648 46.65153 
L 78.353525 46.783674 
L 78.301505 46.91666 
L 78.251603 47.050455 
L 78.203829 47.185025 
L 78.158196 47.320335 
L 78.114716 47.456353 
L 78.073399 47.593043 
L 78.034257 47.730372 
L 77.997298 47.868304 
L 77.962532 48.006806 
L 77.929968 48.145842 
L 77.899614 48.285376 
L 77.871478 48.425375 
L 77.845566 48.565803 
L 77.821886 48.706624 
L 77.800443 48.847803 
L 77.781243 48.989304 
L 77.76429 49.131093 
L 77.749589 49.273132 
L 77.737143 49.415387 
L 77.726956 49.557821 
L 77.71903 49.700399 
L 77.713367 49.843085 
L 77.709969 49.985843 
L 77.708836 50.128636 
L 77.708836 168.928636 
L 77.709969 169.07143 
L 77.713367 169.214188 
L 77.71903 169.356874 
L 77.726956 169.499452 
L 77.737143 169.641886 
L 77.749589 169.784141 
L 77.76429 169.92618 
L 77.781243 170.067968 
L 77.800443 170.20947 
L 77.821886 170.350649 
L 77.845566 170.49147 
L 77.871478 170.631898 
L 77.899614 170.771896 
L 77.929968 170.911431 
L 77.962532 171.050467 
L 77.997298 171.188968 
L 78.034257 171.326901 
L 78.073399 171.464229 
L 78.114716 171.60092 
L 78.158196 171.736937 
L 78.203829 171.872248 
L 78.251603 172.006818 
L 78.301505 172.140612 
L 78.353525 172.273598 
L 78.407648 172.405742 
L 78.46386 172.537011 
L 78.522148 172.667371 
L 78.582497 172.796791 
L 78.644892 172.925236 
L 78.709317 173.052675 
L 78.775756 173.179076 
L 78.844192 173.304407 
L 78.914608 173.428636 
L 78.986985 173.551733 
L 79.061307 173.673666 
L 79.137554 173.794404 
L 79.215708 173.913917 
L 79.295747 174.032175 
L 79.377653 174.149149 
L 79.461404 174.264808 
L 79.54698 174.379124 
L 79.634358 174.492067 
L 79.723518 174.60361 
L 79.814436 174.713725 
L 79.90709 174.822383 
L 80.001456 174.929557 
L 80.097511 175.035221 
L 80.19523 175.139347 
L 80.294589 175.24191 
L 80.395562 175.342884 
L 80.498125 175.442243 
L 80.602252 175.539962 
L 80.707915 175.636016 
L 80.81509 175.730382 
L 80.923748 175.823036 
L 81.033862 175.913955 
L 81.145405 176.003114 
L 81.258349 176.090493 
L 81.372665 176.176069 
L 81.488324 176.25982 
L 81.605297 176.341726 
L 81.723556 176.421765 
L 81.843069 176.499918 
L 81.963807 176.576165 
L 82.08574 176.650487 
L 82.208836 176.722865 
L 82.333066 176.793281 
L 82.458397 176.861717 
L 82.584798 176.928155 
L 82.712237 176.99258 
L 82.840682 177.054975 
L 82.970101 177.115324 
L 83.100461 177.173612 
L 83.23173 177.229825 
L 83.363874 177.283948 
L 83.49686 177.335967 
L 83.630655 177.38587 
L 83.765225 177.433644 
L 83.900535 177.479276 
L 84.036553 177.522757 
L 84.173243 177.564073 
L 84.310572 177.603216 
L 84.448504 177.640175 
L 84.587006 177.67494 
L 84.726041 177.707504 
L 84.865576 177.737858 
L 85.005575 177.765995 
L 85.146003 177.791906 
L 85.286824 177.815586 
L 85.428003 177.837029 
L 85.569504 177.85623 
L 85.711292 177.873183 
L 85.853332 177.887884 
L 85.995587 177.900329 
L 86.138021 177.910516 
L 86.280599 177.918442 
L 86.423285 177.924105 
L 86.566043 177.927503 
L 86.708836 177.928636 
z
" clip-path="url(#pceaa71aced)" style="fill: #0000ff; fill-opacity: 0.2; stroke: #0000ff; stroke-linecap: round"/>
   </g>
   <g id="patch_5">
    <path d="M 169.508836 105.928636 
L 169.65163 105.927503 
L 169.794388 105.924105 
L 169.937073 105.918442 
L 170.079651 105.910516 
L 170.222086 105.900329 
L 170.364341 105.887884 
L 170.50638 105.873183 
L 170.648168 105.85623 
L 170.78967 105.837029 
L 170.930849 105.815586 
L 171.07167 105.791906 
L 171.212097 105.765995 
L 171.352096 105.737858 
L 171.491631 105.707504 
L 171.630667 105.67494 
L 171.769168 105.640175 
L 171.907101 105.603216 
L 172.044429 105.564073 
L 172.18112 105.522757 
L 172.317137 105.479276 
L 172.452448 105.433644 
L 172.587018 105.38587 
L 172.720812 105.335967 
L 172.853798 105.283948 
L 172.985942 105.229825 
L 173.117211 105.173612 
L 173.247571 105.115324 
L 173.37699 105.054975 
L 173.505436 104.99258 
L 173.632875 104.928155 
L 173.759276 104.861717 
L 173.884607 104.793281 
L 174.008836 104.722865 
L 174.131933 104.650487 
L 174.253865 104.576165 
L 174.374604 104.499918 
L 174.494117 104.421765 
L 174.612375 104.341726 
L 174.729348 104.25982 
L 174.845008 104.176069 
L 174.959323 104.090493 
L 175.072267 104.003114 
L 175.18381 103.913955 
L 175.293925 103.823036 
L 175.402583 103.730382 
L 175.509757 103.636016 
L 175.615421 103.539962 
L 175.719547 103.442243 
L 175.82211 103.342884 
L 175.923084 103.24191 
L 176.022443 103.139347 
L 176.120162 103.035221 
L 176.216216 102.929557 
L 176.310582 102.822383 
L 176.403236 102.713725 
L 176.494154 102.60361 
L 176.583314 102.492067 
L 176.670693 102.379124 
L 176.756269 102.264808 
L 176.84002 102.149149 
L 176.921925 102.032175 
L 177.001965 101.913917 
L 177.080118 101.794404 
L 177.156365 101.673666 
L 177.230687 101.551733 
L 177.303065 101.428636 
L 177.373481 101.304407 
L 177.441916 101.179076 
L 177.508355 101.052675 
L 177.57278 100.925236 
L 177.635175 100.796791 
L 177.695524 100.667371 
L 177.753812 100.537011 
L 177.810025 100.405742 
L 177.864148 100.273598 
L 177.916167 100.140612 
L 177.96607 100.006818 
L 178.013844 99.872248 
L 178.059476 99.736937 
L 178.102956 99.60092 
L 178.144273 99.464229 
L 178.183416 99.326901 
L 178.220375 99.188968 
L 178.25514 99.050467 
L 178.287704 98.911431 
L 178.318058 98.771896 
L 178.346194 98.631898 
L 178.372106 98.49147 
L 178.395786 98.350649 
L 178.417229 98.20947 
L 178.43643 98.067968 
L 178.453382 97.92618 
L 178.468084 97.784141 
L 178.480529 97.641886 
L 178.490716 97.499452 
L 178.498642 97.356874 
L 178.504305 97.214188 
L 178.507703 97.07143 
L 178.508836 96.928636 
L 178.508836 86.128636 
L 178.507703 85.985843 
L 178.504305 85.843085 
L 178.498642 85.700399 
L 178.490716 85.557821 
L 178.480529 85.415387 
L 178.468084 85.273132 
L 178.453382 85.131093 
L 178.43643 84.989304 
L 178.417229 84.847803 
L 178.395786 84.706624 
L 178.372106 84.565803 
L 178.346194 84.425375 
L 178.318058 84.285376 
L 178.287704 84.145842 
L 178.25514 84.006806 
L 178.220375 83.868304 
L 178.183416 83.730372 
L 178.144273 83.593043 
L 178.102956 83.456353 
L 178.059476 83.320335 
L 178.013844 83.185025 
L 177.96607 83.050455 
L 177.916167 82.91666 
L 177.864148 82.783674 
L 177.810025 82.65153 
L 177.753812 82.520262 
L 177.695524 82.389901 
L 177.635175 82.260482 
L 177.57278 82.132037 
L 177.508355 82.004598 
L 177.441916 81.878197 
L 177.373481 81.752866 
L 177.303065 81.628636 
L 177.230687 81.50554 
L 177.156365 81.383607 
L 177.080118 81.262869 
L 177.001965 81.143356 
L 176.921925 81.025098 
L 176.84002 80.908124 
L 176.756269 80.792465 
L 176.670693 80.678149 
L 176.583314 80.565205 
L 176.494154 80.453662 
L 176.403236 80.343548 
L 176.310582 80.23489 
L 176.216216 80.127715 
L 176.120162 80.022052 
L 176.022443 79.917925 
L 175.923084 79.815362 
L 175.82211 79.714389 
L 175.719547 79.61503 
L 175.615421 79.517311 
L 175.509757 79.421256 
L 175.402583 79.32689 
L 175.293925 79.234236 
L 175.18381 79.143318 
L 175.072267 79.054158 
L 174.959323 78.96678 
L 174.845008 78.881204 
L 174.729348 78.797453 
L 174.612375 78.715547 
L 174.494117 78.635508 
L 174.374604 78.557355 
L 174.253865 78.481107 
L 174.131933 78.406786 
L 174.008836 78.334408 
L 173.884607 78.263992 
L 173.759276 78.195556 
L 173.632875 78.129117 
L 173.505436 78.064692 
L 173.37699 78.002297 
L 173.247571 77.941948 
L 173.117211 77.88366 
L 172.985942 77.827448 
L 172.853798 77.773325 
L 172.720812 77.721306 
L 172.587018 77.671403 
L 172.452448 77.623629 
L 172.317137 77.577996 
L 172.18112 77.534516 
L 172.044429 77.4932 
L 171.907101 77.454057 
L 171.769168 77.417098 
L 171.630667 77.382332 
L 171.491631 77.349768 
L 171.352096 77.319414 
L 171.212097 77.291278 
L 171.07167 77.265367 
L 170.930849 77.241686 
L 170.78967 77.220243 
L 170.648168 77.201043 
L 170.50638 77.18409 
L 170.364341 77.169389 
L 170.222086 77.156943 
L 170.079651 77.146756 
L 169.937073 77.13883 
L 169.794388 77.133167 
L 169.65163 77.129769 
L 169.508836 77.128636 
L 158.708836 77.128636 
L 158.566043 77.129769 
L 158.423285 77.133167 
L 158.280599 77.13883 
L 158.138021 77.146756 
L 157.995587 77.156943 
L 157.853332 77.169389 
L 157.711292 77.18409 
L 157.569504 77.201043 
L 157.428003 77.220243 
L 157.286824 77.241686 
L 157.146003 77.265367 
L 157.005575 77.291278 
L 156.865576 77.319414 
L 156.726041 77.349768 
L 156.587006 77.382332 
L 156.448504 77.417098 
L 156.310572 77.454057 
L 156.173243 77.4932 
L 156.036553 77.534516 
L 155.900535 77.577996 
L 155.765225 77.623629 
L 155.630655 77.671403 
L 155.49686 77.721306 
L 155.363874 77.773325 
L 155.23173 77.827448 
L 155.100461 77.88366 
L 154.970101 77.941948 
L 154.840682 78.002297 
L 154.712237 78.064692 
L 154.584798 78.129117 
L 154.458397 78.195556 
L 154.333066 78.263992 
L 154.208836 78.334408 
L 154.08574 78.406786 
L 153.963807 78.481107 
L 153.843069 78.557355 
L 153.723556 78.635508 
L 153.605297 78.715547 
L 153.488324 78.797453 
L 153.372665 78.881204 
L 153.258349 78.96678 
L 153.145405 79.054158 
L 153.033862 79.143318 
L 152.923748 79.234236 
L 152.81509 79.32689 
L 152.707915 79.421256 
L 152.602252 79.517311 
L 152.498125 79.61503 
L 152.395562 79.714389 
L 152.294589 79.815362 
L 152.19523 79.917925 
L 152.097511 80.022052 
L 152.001456 80.127715 
L 151.90709 80.23489 
L 151.814436 80.343548 
L 151.723518 80.453662 
L 151.634358 80.565205 
L 151.54698 80.678149 
L 151.461404 80.792465 
L 151.377653 80.908124 
L 151.295747 81.025098 
L 151.215708 81.143356 
L 151.137554 81.262869 
L 151.061307 81.383607 
L 150.986985 81.50554 
L 150.914608 81.628636 
L 150.844192 81.752866 
L 150.775756 81.878197 
L 150.709317 82.004598 
L 150.644892 82.132037 
L 150.582497 82.260482 
L 150.522148 82.389901 
L 150.46386 82.520262 
L 150.407648 82.65153 
L 150.353525 82.783674 
L 150.301505 82.91666 
L 150.251603 83.050455 
L 150.203829 83.185025 
L 150.158196 83.320335 
L 150.114716 83.456353 
L 150.073399 83.593043 
L 150.034257 83.730372 
L 149.997298 83.868304 
L 149.962532 84.006806 
L 149.929968 84.145842 
L 149.899614 84.285376 
L 149.871478 84.425375 
L 149.845566 84.565803 
L 149.821886 84.706624 
L 149.800443 84.847803 
L 149.781243 84.989304 
L 149.76429 85.131093 
L 149.749589 85.273132 
L 149.737143 85.415387 
L 149.726956 85.557821 
L 149.71903 85.700399 
L 149.713367 85.843085 
L 149.709969 85.985843 
L 149.708836 86.128636 
L 149.708836 96.928636 
L 149.709969 97.07143 
L 149.713367 97.214188 
L 149.71903 97.356874 
L 149.726956 97.499452 
L 149.737143 97.641886 
L 149.749589 97.784141 
L 149.76429 97.92618 
L 149.781243 98.067968 
L 149.800443 98.20947 
L 149.821886 98.350649 
L 149.845566 98.49147 
L 149.871478 98.631898 
L 149.899614 98.771896 
L 149.929968 98.911431 
L 149.962532 99.050467 
L 149.997298 99.188968 
L 150.034257 99.326901 
L 150.073399 99.464229 
L 150.114716 99.60092 
L 150.158196 99.736937 
L 150.203829 99.872248 
L 150.251603 100.006818 
L 150.301505 100.140612 
L 150.353525 100.273598 
L 150.407648 100.405742 
L 150.46386 100.537011 
L 150.522148 100.667371 
L 150.582497 100.796791 
L 150.644892 100.925236 
L 150.709317 101.052675 
L 150.775756 101.179076 
L 150.844192 101.304407 
L 150.914608 101.428636 
L 150.986985 101.551733 
L 151.061307 101.673666 
L 151.137554 101.794404 
L 151.215708 101.913917 
L 151.295747 102.032175 
L 151.377653 102.149149 
L 151.461404 102.264808 
L 151.54698 102.379124 
L 151.634358 102.492067 
L 151.723518 102.60361 
L 151.814436 102.713725 
L 151.90709 102.822383 
L 152.001456 102.929557 
L 152.097511 103.035221 
L 152.19523 103.139347 
L 152.294589 103.24191 
L 152.395562 103.342884 
L 152.498125 103.442243 
L 152.602252 103.539962 
L 152.707915 103.636016 
L 152.81509 103.730382 
L 152.923748 103.823036 
L 153.033862 103.913955 
L 153.145405 104.003114 
L 153.258349 104.090493 
L 153.372665 104.176069 
L 153.488324 104.25982 
L 153.605297 104.341726 
L 153.723556 104.421765 
L 153.843069 104.499918 
L 153.963807 104.576165 
L 154.08574 104.650487 
L 154.208836 104.722865 
L 154.333066 104.793281 
L 154.458397 104.861717 
L 154.584798 104.928155 
L 154.712237 104.99258 
L 154.840682 105.054975 
L 154.970101 105.115324 
L 155.100461 105.173612 
L 155.23173 105.229825 
L 155.363874 105.283948 
L 155.49686 105.335967 
L 155.630655 105.38587 
L 155.765225 105.433644 
L 155.900535 105.479276 
L 156.036553 105.522757 
L 156.173243 105.564073 
L 156.310572 105.603216 
L 156.448504 105.640175 
L 156.587006 105.67494 
L 156.726041 105.707504 
L 156.865576 105.737858 
L 157.005575 105.765995 
L 157.146003 105.791906 
L 157.286824 105.815586 
L 157.428003 105.837029 
L 157.569504 105.85623 
L 157.711292 105.873183 
L 157.853332 105.887884 
L 157.995587 105.900329 
L 158.138021 105.910516 
L 158.280599 105.918442 
L 158.423285 105.924105 
L 158.566043 105.927503 
L 158.708836 105.928636 
z
" clip-path="url(#pceaa71aced)" style="fill: #00ff00; fill-opacity: 0.2; stroke: #008000; stroke-linecap: round"/>
   </g>
   <g id="patch_6">
    <path d="M 169.508836 177.928636 
L 169.65163 177.927503 
L 169.794388 177.924105 
L 169.937073 177.918442 
L 170.079651 177.910516 
L 170.222086 177.900329 
L 170.364341 177.887884 
L 170.50638 177.873183 
L 170.648168 177.85623 
L 170.78967 177.837029 
L 170.930849 177.815586 
L 171.07167 177.791906 
L 171.212097 177.765995 
L 171.352096 177.737858 
L 171.491631 177.707504 
L 171.630667 177.67494 
L 171.769168 177.640175 
L 171.907101 177.603216 
L 172.044429 177.564073 
L 172.18112 177.522757 
L 172.317137 177.479276 
L 172.452448 177.433644 
L 172.587018 177.38587 
L 172.720812 177.335967 
L 172.853798 177.283948 
L 172.985942 177.229825 
L 173.117211 177.173612 
L 173.247571 177.115324 
L 173.37699 177.054975 
L 173.505436 176.99258 
L 173.632875 176.928155 
L 173.759276 176.861717 
L 173.884607 176.793281 
L 174.008836 176.722865 
L 174.131933 176.650487 
L 174.253865 176.576165 
L 174.374604 176.499918 
L 174.494117 176.421765 
L 174.612375 176.341726 
L 174.729348 176.25982 
L 174.845008 176.176069 
L 174.959323 176.090493 
L 175.072267 176.003114 
L 175.18381 175.913955 
L 175.293925 175.823036 
L 175.402583 175.730382 
L 175.509757 175.636016 
L 175.615421 175.539962 
L 175.719547 175.442243 
L 175.82211 175.342884 
L 175.923084 175.24191 
L 176.022443 175.139347 
L 176.120162 175.035221 
L 176.216216 174.929557 
L 176.310582 174.822383 
L 176.403236 174.713725 
L 176.494154 174.60361 
L 176.583314 174.492067 
L 176.670693 174.379124 
L 176.756269 174.264808 
L 176.84002 174.149149 
L 176.921925 174.032175 
L 177.001965 173.913917 
L 177.080118 173.794404 
L 177.156365 173.673666 
L 177.230687 173.551733 
L 177.303065 173.428636 
L 177.373481 173.304407 
L 177.441916 173.179076 
L 177.508355 173.052675 
L 177.57278 172.925236 
L 177.635175 172.796791 
L 177.695524 172.667371 
L 177.753812 172.537011 
L 177.810025 172.405742 
L 177.864148 172.273598 
L 177.916167 172.140612 
L 177.96607 172.006818 
L 178.013844 171.872248 
L 178.059476 171.736937 
L 178.102956 171.60092 
L 178.144273 171.464229 
L 178.183416 171.326901 
L 178.220375 171.188968 
L 178.25514 171.050467 
L 178.287704 170.911431 
L 178.318058 170.771896 
L 178.346194 170.631898 
L 178.372106 170.49147 
L 178.395786 170.350649 
L 178.417229 170.20947 
L 178.43643 170.067968 
L 178.453382 169.92618 
L 178.468084 169.784141 
L 178.480529 169.641886 
L 178.490716 169.499452 
L 178.498642 169.356874 
L 178.504305 169.214188 
L 178.507703 169.07143 
L 178.508836 168.928636 
L 178.508836 122.128636 
L 178.507703 121.985843 
L 178.504305 121.843085 
L 178.498642 121.700399 
L 178.490716 121.557821 
L 178.480529 121.415387 
L 178.468084 121.273132 
L 178.453382 121.131093 
L 178.43643 120.989304 
L 178.417229 120.847803 
L 178.395786 120.706624 
L 178.372106 120.565803 
L 178.346194 120.425375 
L 178.318058 120.285376 
L 178.287704 120.145842 
L 178.25514 120.006806 
L 178.220375 119.868304 
L 178.183416 119.730372 
L 178.144273 119.593043 
L 178.102956 119.456353 
L 178.059476 119.320335 
L 178.013844 119.185025 
L 177.96607 119.050455 
L 177.916167 118.91666 
L 177.864148 118.783674 
L 177.810025 118.65153 
L 177.753812 118.520262 
L 177.695524 118.389901 
L 177.635175 118.260482 
L 177.57278 118.132037 
L 177.508355 118.004598 
L 177.441916 117.878197 
L 177.373481 117.752866 
L 177.303065 117.628636 
L 177.230687 117.50554 
L 177.156365 117.383607 
L 177.080118 117.262869 
L 177.001965 117.143356 
L 176.921925 117.025098 
L 176.84002 116.908124 
L 176.756269 116.792465 
L 176.670693 116.678149 
L 176.583314 116.565205 
L 176.494154 116.453662 
L 176.403236 116.343548 
L 176.310582 116.23489 
L 176.216216 116.127715 
L 176.120162 116.022052 
L 176.022443 115.917925 
L 175.923084 115.815362 
L 175.82211 115.714389 
L 175.719547 115.61503 
L 175.615421 115.517311 
L 175.509757 115.421256 
L 175.402583 115.32689 
L 175.293925 115.234236 
L 175.18381 115.143318 
L 175.072267 115.054158 
L 174.959323 114.96678 
L 174.845008 114.881204 
L 174.729348 114.797453 
L 174.612375 114.715547 
L 174.494117 114.635508 
L 174.374604 114.557355 
L 174.253865 114.481107 
L 174.131933 114.406786 
L 174.008836 114.334408 
L 173.884607 114.263992 
L 173.759276 114.195556 
L 173.632875 114.129117 
L 173.505436 114.064692 
L 173.37699 114.002297 
L 173.247571 113.941948 
L 173.117211 113.88366 
L 172.985942 113.827448 
L 172.853798 113.773325 
L 172.720812 113.721306 
L 172.587018 113.671403 
L 172.452448 113.623629 
L 172.317137 113.577996 
L 172.18112 113.534516 
L 172.044429 113.4932 
L 171.907101 113.454057 
L 171.769168 113.417098 
L 171.630667 113.382332 
L 171.491631 113.349768 
L 171.352096 113.319414 
L 171.212097 113.291278 
L 171.07167 113.265367 
L 170.930849 113.241686 
L 170.78967 113.220243 
L 170.648168 113.201043 
L 170.50638 113.18409 
L 170.364341 113.169389 
L 170.222086 113.156943 
L 170.079651 113.146756 
L 169.937073 113.13883 
L 169.794388 113.133167 
L 169.65163 113.129769 
L 169.508836 113.128636 
L 50.708836 113.128636 
L 50.566043 113.129769 
L 50.423285 113.133167 
L 50.280599 113.13883 
L 50.138021 113.146756 
L 49.995587 113.156943 
L 49.853332 113.169389 
L 49.711292 113.18409 
L 49.569504 113.201043 
L 49.428003 113.220243 
L 49.286824 113.241686 
L 49.146003 113.265367 
L 49.005575 113.291278 
L 48.865576 113.319414 
L 48.726041 113.349768 
L 48.587006 113.382332 
L 48.448504 113.417098 
L 48.310572 113.454057 
L 48.173243 113.4932 
L 48.036553 113.534516 
L 47.900535 113.577996 
L 47.765225 113.623629 
L 47.630655 113.671403 
L 47.49686 113.721306 
L 47.363874 113.773325 
L 47.23173 113.827448 
L 47.100461 113.88366 
L 46.970101 113.941948 
L 46.840682 114.002297 
L 46.712237 114.064692 
L 46.584798 114.129117 
L 46.458397 114.195556 
L 46.333066 114.263992 
L 46.208836 114.334408 
L 46.08574 114.406786 
L 45.963807 114.481107 
L 45.843069 114.557355 
L 45.723556 114.635508 
L 45.605297 114.715547 
L 45.488324 114.797453 
L 45.372665 114.881204 
L 45.258349 114.96678 
L 45.145405 115.054158 
L 45.033862 115.143318 
L 44.923748 115.234236 
L 44.81509 115.32689 
L 44.707915 115.421256 
L 44.602252 115.517311 
L 44.498125 115.61503 
L 44.395562 115.714389 
L 44.294589 115.815362 
L 44.19523 115.917925 
L 44.097511 116.022052 
L 44.001456 116.127715 
L 43.90709 116.23489 
L 43.814436 116.343548 
L 43.723518 116.453662 
L 43.634358 116.565205 
L 43.54698 116.678149 
L 43.461404 116.792465 
L 43.377653 116.908124 
L 43.295747 117.025098 
L 43.215708 117.143356 
L 43.137554 117.262869 
L 43.061307 117.383607 
L 42.986985 117.50554 
L 42.914608 117.628636 
L 42.844192 117.752866 
L 42.775756 117.878197 
L 42.709317 118.004598 
L 42.644892 118.132037 
L 42.582497 118.260482 
L 42.522148 118.389901 
L 42.46386 118.520262 
L 42.407648 118.65153 
L 42.353525 118.783674 
L 42.301505 118.91666 
L 42.251603 119.050455 
L 42.203829 119.185025 
L 42.158196 119.320335 
L 42.114716 119.456353 
L 42.073399 119.593043 
L 42.034257 119.730372 
L 41.997298 119.868304 
L 41.962532 120.006806 
L 41.929968 120.145842 
L 41.899614 120.285376 
L 41.871478 120.425375 
L 41.845566 120.565803 
L 41.821886 120.706624 
L 41.800443 120.847803 
L 41.781243 120.989304 
L 41.76429 121.131093 
L 41.749589 121.273132 
L 41.737143 121.415387 
L 41.726956 121.557821 
L 41.71903 121.700399 
L 41.713367 121.843085 
L 41.709969 121.985843 
L 41.708836 122.128636 
L 41.708836 168.928636 
L 41.709969 169.07143 
L 41.713367 169.214188 
L 41.71903 169.356874 
L 41.726956 169.499452 
L 41.737143 169.641886 
L 41.749589 169.784141 
L 41.76429 169.92618 
L 41.781243 170.067968 
L 41.800443 170.20947 
L 41.821886 170.350649 
L 41.845566 170.49147 
L 41.871478 170.631898 
L 41.899614 170.771896 
L 41.929968 170.911431 
L 41.962532 171.050467 
L 41.997298 171.188968 
L 42.034257 171.326901 
L 42.073399 171.464229 
L 42.114716 171.60092 
L 42.158196 171.736937 
L 42.203829 171.872248 
L 42.251603 172.006818 
L 42.301505 172.140612 
L 42.353525 172.273598 
L 42.407648 172.405742 
L 42.46386 172.537011 
L 42.522148 172.667371 
L 42.582497 172.796791 
L 42.644892 172.925236 
L 42.709317 173.052675 
L 42.775756 173.179076 
L 42.844192 173.304407 
L 42.914608 173.428636 
L 42.986985 173.551733 
L 43.061307 173.673666 
L 43.137554 173.794404 
L 43.215708 173.913917 
L 43.295747 174.032175 
L 43.377653 174.149149 
L 43.461404 174.264808 
L 43.54698 174.379124 
L 43.634358 174.492067 
L 43.723518 174.60361 
L 43.814436 174.713725 
L 43.90709 174.822383 
L 44.001456 174.929557 
L 44.097511 175.035221 
L 44.19523 175.139347 
L 44.294589 175.24191 
L 44.395562 175.342884 
L 44.498125 175.442243 
L 44.602252 175.539962 
L 44.707915 175.636016 
L 44.81509 175.730382 
L 44.923748 175.823036 
L 45.033862 175.913955 
L 45.145405 176.003114 
L 45.258349 176.090493 
L 45.372665 176.176069 
L 45.488324 176.25982 
L 45.605297 176.341726 
L 45.723556 176.421765 
L 45.843069 176.499918 
L 45.963807 176.576165 
L 46.08574 176.650487 
L 46.208836 176.722865 
L 46.333066 176.793281 
L 46.458397 176.861717 
L 46.584798 176.928155 
L 46.712237 176.99258 
L 46.840682 177.054975 
L 46.970101 177.115324 
L 47.100461 177.173612 
L 47.23173 177.229825 
L 47.363874 177.283948 
L 47.49686 177.335967 
L 47.630655 177.38587 
L 47.765225 177.433644 
L 47.900535 177.479276 
L 48.036553 177.522757 
L 48.173243 177.564073 
L 48.310572 177.603216 
L 48.448504 177.640175 
L 48.587006 177.67494 
L 48.726041 177.707504 
L 48.865576 177.737858 
L 49.005575 177.765995 
L 49.146003 177.791906 
L 49.286824 177.815586 
L 49.428003 177.837029 
L 49.569504 177.85623 
L 49.711292 177.873183 
L 49.853332 177.887884 
L 49.995587 177.900329 
L 50.138021 177.910516 
L 50.280599 177.918442 
L 50.423285 177.924105 
L 50.566043 177.927503 
L 50.708836 177.928636 
z
" clip-path="url(#pceaa71aced)" style="fill: #00ffff; fill-opacity: 0.4; stroke: #800080; stroke-linecap: round"/>
   </g>
   <g id="line2d_1">
    <path d="M 38.108836 181.528636 
L 182.108836 181.528636 
L 182.108836 37.528636 
L 38.108836 37.528636 
L 38.108836 181.528636 
" clip-path="url(#pceaa71aced)" style="fill: none; stroke: #000000; stroke-width: 1.25; stroke-linecap: round"/>
   </g>
   <g id="line2d_2">
    <path d="M 38.108836 181.528636 
L 182.108836 181.528636 
" clip-path="url(#pceaa71aced)" style="fill: none; stroke: #000000; stroke-width: 1.25; stroke-linecap: round"/>
   </g>
   <g id="line2d_3">
    <path d="M 38.108836 145.528636 
L 182.108836 145.528636 
" clip-path="url(#pceaa71aced)" style="fill: none; stroke: #000000; stroke-width: 1.25; stroke-linecap: round"/>
   </g>
   <g id="line2d_4">
    <path d="M 38.108836 109.528636 
L 182.108836 109.528636 
" clip-path="url(#pceaa71aced)" style="fill: none; stroke: #000000; stroke-width: 1.25; stroke-linecap: round"/>
   </g>
   <g id="line2d_5">
    <path d="M 38.108836 73.528636 
L 182.108836 73.528636 
" clip-path="url(#pceaa71aced)" style="fill: none; stroke: #000000; stroke-width: 1.25; stroke-linecap: round"/>
   </g>
   <g id="line2d_6">
    <path d="M 38.108836 181.528636 
L 38.108836 37.528636 
" clip-path="url(#pceaa71aced)" style="fill: none; stroke: #000000; stroke-width: 1.25; stroke-linecap: round"/>
   </g>
   <g id="line2d_7">
    <path d="M 74.108836 181.528636 
L 74.108836 37.528636 
" clip-path="url(#pceaa71aced)" style="fill: none; stroke: #000000; stroke-width: 1.25; stroke-linecap: round"/>
   </g>
   <g id="line2d_8">
    <path d="M 110.108836 181.528636 
L 110.108836 37.528636 
" clip-path="url(#pceaa71aced)" style="fill: none; stroke: #000000; stroke-width: 1.25; stroke-linecap: round"/>
   </g>
   <g id="line2d_9">
    <path d="M 146.108836 181.528636 
L 146.108836 37.528636 
" clip-path="url(#pceaa71aced)" style="fill: none; stroke: #000000; stroke-width: 1.25; stroke-linecap: round"/>
   </g>
   <g id="line2d_10">
    <path d="M 38.108836 37.528636 
L 12.652992 12.072792 
" clip-path="url(#pceaa71aced)" style="fill: none; stroke: #000000; stroke-width: 1.25; stroke-linecap: round"/>
   </g>
   <g id="text_1">
    <!-- AB -->
    <g transform="translate(23.722196 16.253081) scale(0.105 -0.105)">
     <defs>
      <path id="DejaVuSans-41" d="M 2188 4044 
L 1331 1722 
L 3047 1722 
L 2188 4044 
z
M 1831 4666 
L 2547 4666 
L 4325 0 
L 3669 0 
L 3244 1197 
L 1141 1197 
L 716 0 
L 50 0 
L 1831 4666 
z
" transform="scale(0.015625)"/>
      <path id="DejaVuSans-42" d="M 1259 2228 
L 1259 519 
L 2272 519 
Q 2781 519 3026 730 
Q 3272 941 3272 1375 
Q 3272 1813 3026 2020 
Q 2781 2228 2272 2228 
L 1259 2228 
z
M 1259 4147 
L 1259 2741 
L 2194 2741 
Q 2656 2741 2882 2914 
Q 3109 3088 3109 3444 
Q 3109 3797 2882 3972 
Q 2656 4147 2194 4147 
L 1259 4147 
z
M 628 4666 
L 2241 4666 
Q 2963 4666 3353 4366 
Q 3744 4066 3744 3513 
Q 3744 3084 3544 2831 
Q 3344 2578 2956 2516 
Q 3422 2416 3680 2098 
Q 3938 1781 3938 1306 
Q 3938 681 3513 340 
Q 3088 0 2303 0 
L 628 0 
L 628 4666 
z
" transform="scale(0.015625)"/>
     </defs>
     <use xlink:href="#DejaVuSans-41"/>
     <use xlink:href="#DejaVuSans-42" x="68.408203"/>
    </g>
   </g>
   <g id="text_2">
    <!-- CD -->
    <g transform="translate(3.6 35.344964) scale(0.105 -0.105)">
     <defs>
      <path id="DejaVuSans-43" d="M 4122 4306 
L 4122 3641 
Q 3803 3938 3442 4084 
Q 3081 4231 2675 4231 
Q 1875 4231 1450 3742 
Q 1025 3253 1025 2328 
Q 1025 1406 1450 917 
Q 1875 428 2675 428 
Q 3081 428 3442 575 
Q 3803 722 4122 1019 
L 4122 359 
Q 3791 134 3420 21 
Q 3050 -91 2638 -91 
Q 1578 -91 968 557 
Q 359 1206 359 2328 
Q 359 3453 968 4101 
Q 1578 4750 2638 4750 
Q 3056 4750 3426 4639 
Q 3797 4528 4122 4306 
z
" transform="scale(0.015625)"/>
      <path id="DejaVuSans-44" d="M 1259 4147 
L 1259 519 
L 2022 519 
Q 2988 519 3436 956 
Q 3884 1394 3884 2338 
Q 3884 3275 3436 3711 
Q 2988 4147 2022 4147 
L 1259 4147 
z
M 628 4666 
L 1925 4666 
Q 3281 4666 3915 4102 
Q 4550 3538 4550 2338 
Q 4550 1131 3912 565 
Q 3275 0 1925 0 
L 628 0 
L 628 4666 
z
" transform="scale(0.015625)"/>
     </defs>
     <use xlink:href="#DejaVuSans-43"/>
     <use xlink:href="#DejaVuSans-44" x="69.824219"/>
    </g>
   </g>
   <g id="text_3">
    <!-- 00 -->
    <g transform="translate(50.700711 33.960902) scale(0.085 -0.085)">
     <defs>
      <path id="DejaVuSans-30" d="M 2034 4250 
Q 1547 4250 1301 3770 
Q 1056 3291 1056 2328 
Q 1056 1369 1301 889 
Q 1547 409 2034 409 
Q 2525 409 2770 889 
Q 3016 1369 3016 2328 
Q 3016 3291 2770 3770 
Q 2525 4250 2034 4250 
z
M 2034 4750 
Q 2819 4750 3233 4129 
Q 3647 3509 3647 2328 
Q 3647 1150 3233 529 
Q 2819 -91 2034 -91 
Q 1250 -91 836 529 
Q 422 1150 422 2328 
Q 422 3509 836 4129 
Q 1250 4750 2034 4750 
z
" transform="scale(0.015625)"/>
     </defs>
     <use xlink:href="#DejaVuSans-30"/>
     <use xlink:href="#DejaVuSans-30" x="63.623047"/>
    </g>
   </g>
   <g id="text_4">
    <!-- 01 -->
    <g transform="translate(86.700711 33.960902) scale(0.085 -0.085)">
     <defs>
      <path id="DejaVuSans-31" d="M 794 531 
L 1825 531 
L 1825 4091 
L 703 3866 
L 703 4441 
L 1819 4666 
L 2450 4666 
L 2450 531 
L 3481 531 
L 3481 0 
L 794 0 
L 794 531 
z
" transform="scale(0.015625)"/>
     </defs>
     <use xlink:href="#DejaVuSans-30"/>
     <use xlink:href="#DejaVuSans-31" x="63.623047"/>
    </g>
   </g>
   <g id="text_5">
    <!-- 10 -->
    <g transform="translate(158.700711 33.960902) scale(0.085 -0.085)">
     <use xlink:href="#DejaVuSans-31"/>
     <use xlink:href="#DejaVuSans-30" x="63.623047"/>
    </g>
   </g>
   <g id="text_6">
    <!-- 11 -->
    <g transform="translate(122.700711 33.960902) scale(0.085 -0.085)">
     <use xlink:href="#DejaVuSans-31"/>
     <use xlink:href="#DejaVuSans-31" x="63.623047"/>
    </g>
   </g>
   <g id="text_7">
    <!-- 00 -->
    <g transform="translate(23.692586 57.874105) scale(0.085 -0.085)">
     <use xlink:href="#DejaVuSans-30"/>
     <use xlink:href="#DejaVuSans-30" x="63.623047"/>
    </g>
   </g>
   <g id="text_8">
    <!-- 01 -->
    <g transform="translate(23.692586 93.874105) scale(0.085 -0.085)">
     <use xlink:href="#DejaVuSans-30"/>
     <use xlink:href="#DejaVuSans-31" x="63.623047"/>
    </g>
   </g>
   <g id="text_9">
    <!-- 10 -->
    <g transform="translate(23.692586 165.874105) scale(0.085 -0.085)">
     <use xlink:href="#DejaVuSans-31"/>
     <use xlink:href="#DejaVuSans-30" x="63.623047"/>
    </g>
   </g>
   <g id="text_10">
    <!-- 11 -->
    <g transform="translate(23.692586 129.874105) scale(0.085 -0.085)">
     <use xlink:href="#DejaVuSans-31"/>
     <use xlink:href="#DejaVuSans-31" x="63.623047"/>
    </g>
   </g>
   <g id="text_11">
    <!-- 1 -->
    <g transform="translate(52.768524 58.42598) scale(0.105 -0.105)">
     <use xlink:href="#DejaVuSans-31"/>
    </g>
   </g>
   <g id="text_12">
    <!-- 0 -->
    <g transform="translate(52.768524 94.42598) scale(0.105 -0.105)">
     <use xlink:href="#DejaVuSans-30"/>
    </g>
   </g>
   <g id="text_13">
    <!-- 0 -->
    <g transform="translate(52.768524 166.42598) scale(0.105 -0.105)">
     <use xlink:href="#DejaVuSans-30"/>
    </g>
   </g>
   <g id="text_14">
    <!-- 0 -->
    <g transform="translate(52.768524 130.42598) scale(0.105 -0.105)">
     <use xlink:href="#DejaVuSans-30"/>
    </g>
   </g>
   <g id="text_15">
    <!-- 0 -->
    <g transform="translate(88.768524 58.42598) scale(0.105 -0.105)">
     <use xlink:href="#DejaVuSans-30"/>
    </g>
   </g>
   <g id="text_16">
    <!-- 1 -->
    <g transform="translate(88.768524 94.42598) scale(0.105 -0.105)">
     <use xlink:href="#DejaVuSans-31"/>
    </g>
   </g>
   <g id="text_17">
    <!-- 0 -->
    <g transform="translate(88.768524 166.42598) scale(0.105 -0.105)">
     <use xlink:href="#DejaVuSans-30"/>
    </g>
   </g>
   <g id="text_18">
    <!-- X -->
    <g transform="translate(88.512586 130.42598) scale(0.105 -0.105)">
     <defs>
      <path id="DejaVuSans-58" d="M 403 4666 
L 1081 4666 
L 2241 2931 
L 3406 4666 
L 4084 4666 
L 2584 2425 
L 4184 0 
L 3506 0 
L 2194 1984 
L 872 0 
L 191 0 
L 1856 2491 
L 403 4666 
z
" transform="scale(0.015625)"/>
     </defs>
     <use xlink:href="#DejaVuSans-58"/>
    </g>
   </g>
   <g id="text_19">
    <!-- 1 -->
    <g transform="translate(160.768524 58.42598) scale(0.105 -0.105)">
     <use xlink:href="#DejaVuSans-31"/>
    </g>
   </g>
   <g id="text_20">
    <!-- 0 -->
    <g transform="translate(160.768524 94.42598) scale(0.105 -0.105)">
     <use xlink:href="#DejaVuSans-30"/>
    </g>
   </g>
   <g id="text_21">
    <!-- 0 -->
    <g transform="translate(160.768524 166.42598) scale(0.105 -0.105)">
     <use xlink:href="#DejaVuSans-30"/>
    </g>
   </g>
   <g id="text_22">
    <!-- 0 -->
    <g transform="translate(160.768524 130.42598) scale(0.105 -0.105)">
     <use xlink:href="#DejaVuSans-30"/>
    </g>
   </g>
   <g id="text_23">
    <!-- 1 -->
    <g transform="translate(124.768524 58.42598) scale(0.105 -0.105)">
     <use xlink:href="#DejaVuSans-31"/>
    </g>
   </g>
   <g id="text_24">
    <!-- 1 -->
    <g transform="translate(124.768524 94.42598) scale(0.105 -0.105)">
     <use xlink:href="#DejaVuSans-31"/>
    </g>
   </g>
   <g id="text_25">
    <!-- 1 -->
    <g transform="translate(124.768524 166.42598) scale(0.105 -0.105)">
     <use xlink:href="#DejaVuSans-31"/>
    </g>
   </g>
   <g id="text_26">
    <!-- 1 -->
    <g transform="translate(124.768524 130.42598) scale(0.105 -0.105)">
     <use xlink:href="#DejaVuSans-31"/>
    </g>
   </g>
  </g>
 </g>
 <defs>
  <clipPath id="pceaa71aced">
   <rect x="4.0002" y="3.6" width="190.361429" height="186.401429"/>
  </clipPath>
 </defs>
</svg>
