<?xml version="1.0" encoding="utf-8" standalone="no"?>
<!DOCTYPE svg PUBLIC "-//W3C//DTD SVG 1.1//EN"
  "http://www.w3.org/Graphics/SVG/1.1/DTD/svg11.dtd">
<svg xmlns:xlink="http://www.w3.org/1999/xlink" width="491.706pt" height="98.947656pt" viewBox="0 0 491.706 98.947656" xmlns="http://www.w3.org/2000/svg" version="1.1">
 <metadata>
  <rdf:RDF xmlns:dc="http://purl.org/dc/elements/1.1/" xmlns:cc="http://creativecommons.org/ns#" xmlns:rdf="http://www.w3.org/1999/02/22-rdf-syntax-ns#">
   <cc:Work>
    <dc:type rdf:resource="http://purl.org/dc/dcmitype/StillImage"/>
    <dc:date>2023-11-08T15:00:34.431834</dc:date>
    <dc:format>image/svg+xml</dc:format>
    <dc:creator>
     <cc:Agent>
      <dc:title>Matplotlib v3.8.1, https://matplotlib.org/</dc:title>
     </cc:Agent>
    </dc:creator>
   </cc:Work>
  </rdf:RDF>
 </metadata>
 <defs>
  <style type="text/css">*{stroke-linejoin: round; stroke-linecap: butt}</style>
 </defs>
 <g id="figure_1">
  <g id="patch_1">
   <path d="M 0 98.947656 
L 491.706 98.947656 
L 491.706 0 
L 0 0 
z
" style="fill: #ffffff"/>
  </g>
  <g id="axes_1">
   <g id="patch_2">
    <path d="M 101.943 32.617656 
C 103.088677 32.617656 104.187585 32.162474 104.997701 31.352358 
C 105.807818 30.542241 106.263 29.443334 106.263 28.297656 
C 106.263 27.151979 105.807818 26.053071 104.997701 25.242955 
C 104.187585 24.432839 103.088677 23.977656 101.943 23.977656 
C 100.797323 23.977656 99.698415 24.432839 98.888299 25.242955 
C 98.078182 26.053071 97.623 27.151979 97.623 28.297656 
C 97.623 29.443334 98.078182 30.542241 98.888299 31.352358 
C 99.698415 32.162474 100.797323 32.617656 101.943 32.617656 
L 101.943 32.617656 
z
" clip-path="url(#p7db38bdd21)" style="fill: none; stroke: #000000; stroke-width: 2; stroke-linejoin: miter"/>
   </g>
   <g id="patch_3">
    <path d="M 283.923 32.617656 
C 285.068677 32.617656 286.167585 32.162474 286.977701 31.352358 
C 287.787818 30.542241 288.243 29.443334 288.243 28.297656 
C 288.243 27.151979 287.787818 26.053071 286.977701 25.242955 
C 286.167585 24.432839 285.068677 23.977656 283.923 23.977656 
C 282.777323 23.977656 281.678415 24.432839 280.868299 25.242955 
C 280.058182 26.053071 279.603 27.151979 279.603 28.297656 
C 279.603 29.443334 280.058182 30.542241 280.868299 31.352358 
C 281.678415 32.162474 282.777323 32.617656 283.923 32.617656 
L 283.923 32.617656 
z
" clip-path="url(#p7db38bdd21)" style="fill: none; stroke: #000000; stroke-width: 2; stroke-linejoin: miter"/>
   </g>
   <g id="line2d_1">
    <path d="M 79.623 46.297656 
L 80.776264 46.260673 
L 81.924789 46.149876 
L 83.063855 45.965721 
L 84.188783 45.708964 
L 85.294948 45.38066 
L 86.377806 44.982158 
L 87.432907 44.515096 
L 88.455916 43.981393 
L 89.442628 43.383242 
L 90.38899 42.723101 
L 91.291111 42.003684 
L 92.145286 41.227945 
L 92.948004 40.399072 
L 93.695967 39.520473 
L 94.386101 38.595756 
L 95.01557 37.628722 
L 95.581788 36.623345 
L 96.082427 35.583756 
L 96.515432 34.514227 
L 96.879021 33.419153 
L 97.171702 32.303033 
L 97.392272 31.170454 
L 97.539824 30.026071 
L 97.613752 28.874585 
L 97.613752 27.720728 
L 97.539824 26.569242 
L 97.392272 25.424858 
L 97.171702 24.292279 
L 96.879021 23.17616 
L 96.515432 22.081085 
L 96.082427 21.011556 
L 95.581788 19.971967 
L 95.01557 18.96659 
L 94.386101 17.999556 
L 93.695967 17.07484 
L 92.948004 16.19624 
L 92.145286 15.367368 
L 91.291111 14.591629 
L 90.38899 13.872211 
L 89.442628 13.21207 
L 88.455916 12.61392 
L 87.432907 12.080217 
L 86.377806 11.613155 
L 85.294948 11.214653 
L 84.188783 10.886349 
L 83.063855 10.629591 
L 81.924789 10.445436 
L 80.776264 10.334639 
L 79.623 10.297656 
L 79.623 10.297656 
L 56.223 10.297656 
L 56.223 28.297656 
L 56.223 46.297656 
L 79.623 46.297656 
" clip-path="url(#p7db38bdd21)" style="fill: none; stroke: #000000; stroke-width: 2; stroke-linecap: round"/>
   </g>
   <g id="line2d_2">
    <path d="M 43.623 37.297656 
L 56.223 37.297656 
" clip-path="url(#p7db38bdd21)" style="fill: none; stroke: #000000; stroke-width: 2; stroke-linecap: round"/>
   </g>
   <g id="line2d_3">
    <path d="M 43.623 19.297656 
L 56.223 19.297656 
" clip-path="url(#p7db38bdd21)" style="fill: none; stroke: #000000; stroke-width: 2; stroke-linecap: round"/>
   </g>
   <g id="line2d_4">
    <path d="M 106.263 28.297656 
L 110.223 28.297656 
" clip-path="url(#p7db38bdd21)" style="fill: none; stroke: #000000; stroke-width: 2; stroke-linecap: round"/>
   </g>
   <g id="line2d_5">
    <path d="M 218.223 28.297656 
L 256.203 28.297656 
M 288.243 28.297656 
L 326.223 28.297656 
" clip-path="url(#p7db38bdd21)" style="fill: none; stroke: #000000; stroke-width: 2; stroke-linecap: round"/>
   </g>
   <g id="line2d_6">
    <path d="M 256.203 10.297656 
L 279.603 28.297656 
L 256.203 46.297656 
L 256.203 10.297656 
" clip-path="url(#p7db38bdd21)" style="fill: none; stroke: #000000; stroke-width: 2; stroke-linecap: round"/>
   </g>
   <g id="line2d_7">
    <path d="M 408.843 54.937656 
L 428.385857 54.871534 
L 430.443 54.577656 
L 432.500143 54.048677 
L 434.557286 53.284595 
L 436.614429 52.285411 
L 438.671571 51.051126 
L 440.728714 49.581738 
L 442.785857 47.877248 
L 445.357286 45.416024 
L 447.928714 42.587452 
L 450.500143 39.391534 
L 452.043 37.297656 
L 452.043 37.297656 
L 449.471571 33.88133 
L 446.900143 30.83235 
L 444.328714 28.150717 
L 441.757286 25.836432 
L 439.700143 24.249493 
L 437.643 22.897656 
L 435.585857 21.780922 
L 433.528714 20.899289 
L 431.471571 20.252758 
L 429.414429 19.84133 
L 427.357286 19.665003 
L 426.843 19.657656 
L 408.843 19.657656 
L 408.843 19.657656 
L 410.8302 21.817656 
L 412.5582 23.977656 
L 414.027 26.137656 
L 415.2366 28.297656 
L 416.187 30.457656 
L 416.8782 32.617656 
L 417.3102 34.777656 
L 417.483 36.937656 
L 417.3966 39.097656 
L 417.051 41.257656 
L 416.4462 43.417656 
L 415.5822 45.577656 
L 414.459 47.737656 
L 413.0766 49.897656 
L 411.435 52.057656 
L 409.5342 54.217656 
L 408.843 54.937656 
L 408.843 54.937656 
" clip-path="url(#p7db38bdd21)" style="fill: none; stroke: #000000; stroke-width: 2; stroke-linecap: round"/>
   </g>
   <g id="line2d_8">
    <path d="M 396.243 46.297656 
L 415.2366 46.297656 
" clip-path="url(#p7db38bdd21)" style="fill: none; stroke: #000000; stroke-width: 2; stroke-linecap: round"/>
   </g>
   <g id="line2d_9">
    <path d="M 396.243 28.297656 
L 415.2366 28.297656 
" clip-path="url(#p7db38bdd21)" style="fill: none; stroke: #000000; stroke-width: 2; stroke-linecap: round"/>
   </g>
   <g id="line2d_10">
    <path d="M 452.043 37.297656 
L 464.643 37.297656 
" clip-path="url(#p7db38bdd21)" style="fill: none; stroke: #000000; stroke-width: 2; stroke-linecap: round"/>
   </g>
   <g id="line2d_11">
    <path d="M 151.623 91.297656 
L 152.776264 91.260673 
L 153.924789 91.149876 
L 155.063855 90.965721 
L 156.188783 90.708964 
L 157.294948 90.38066 
L 158.377806 89.982158 
L 159.432907 89.515096 
L 160.455916 88.981393 
L 161.442628 88.383242 
L 162.38899 87.723101 
L 163.291111 87.003684 
L 164.145286 86.227945 
L 164.948004 85.399072 
L 165.695967 84.520473 
L 166.386101 83.595756 
L 167.01557 82.628722 
L 167.581788 81.623345 
L 168.082427 80.583756 
L 168.515432 79.514227 
L 168.879021 78.419153 
L 169.171702 77.303033 
L 169.392272 76.170454 
L 169.539824 75.026071 
L 169.613752 73.874585 
L 169.613752 72.720728 
L 169.539824 71.569242 
L 169.392272 70.424858 
L 169.171702 69.292279 
L 168.879021 68.17616 
L 168.515432 67.081085 
L 168.082427 66.011556 
L 167.581788 64.971967 
L 167.01557 63.96659 
L 166.386101 62.999556 
L 165.695967 62.07484 
L 164.948004 61.19624 
L 164.145286 60.367368 
L 163.291111 59.591629 
L 162.38899 58.872211 
L 161.442628 58.21207 
L 160.455916 57.61392 
L 159.432907 57.080217 
L 158.377806 56.613155 
L 157.294948 56.214653 
L 156.188783 55.886349 
L 155.063855 55.629591 
L 153.924789 55.445436 
L 152.776264 55.334639 
L 151.623 55.297656 
L 151.623 55.297656 
L 128.223 55.297656 
L 128.223 73.297656 
L 128.223 91.297656 
L 151.623 91.297656 
" clip-path="url(#p7db38bdd21)" style="fill: none; stroke: #000000; stroke-width: 2; stroke-linecap: round"/>
   </g>
   <g id="line2d_12">
    <path d="M 115.623 82.297656 
L 128.223 82.297656 
" clip-path="url(#p7db38bdd21)" style="fill: none; stroke: #000000; stroke-width: 2; stroke-linecap: round"/>
   </g>
   <g id="line2d_13">
    <path d="M 115.623 64.297656 
L 128.223 64.297656 
" clip-path="url(#p7db38bdd21)" style="fill: none; stroke: #000000; stroke-width: 2; stroke-linecap: round"/>
   </g>
   <g id="line2d_14">
    <path d="M 169.623 73.297656 
L 182.223 73.297656 
" clip-path="url(#p7db38bdd21)" style="fill: none; stroke: #000000; stroke-width: 2; stroke-linecap: round"/>
   </g>
   <g id="line2d_15">
    <path d="M 43.623 19.297656 
L 34.623 19.297656 
L 25.623 19.297656 
" clip-path="url(#p7db38bdd21)" style="fill: none; stroke: #000000; stroke-width: 2; stroke-linecap: round"/>
   </g>
   <g id="line2d_16">
    <path d="M 43.623 37.297656 
L 34.623 37.297656 
L 25.623 37.297656 
" clip-path="url(#p7db38bdd21)" style="fill: none; stroke: #000000; stroke-width: 2; stroke-linecap: round"/>
   </g>
   <g id="line2d_17">
    <path d="M 115.623 82.297656 
L 79.623 82.297656 
L 43.623 82.297656 
" clip-path="url(#p7db38bdd21)" style="fill: none; stroke: #000000; stroke-width: 2; stroke-linecap: round"/>
   </g>
   <g id="line2d_18">
    <path d="M 464.643 37.297656 
L 465.363 37.297656 
L 466.083 37.297656 
" clip-path="url(#p7db38bdd21)" style="fill: none; stroke: #000000; stroke-width: 2; stroke-linecap: round"/>
   </g>
   <g id="line2d_19">
    <path d="M 182.223 73.297656 
L 182.223 46.297656 
L 396.243 46.297656 
" clip-path="url(#p7db38bdd21)" style="fill: none; stroke: #000000; stroke-width: 2; stroke-linecap: round"/>
   </g>
   <g id="line2d_20">
    <path d="M 288.243 28.297656 
L 288.243 28.297656 
L 396.243 28.297656 
" clip-path="url(#p7db38bdd21)" style="fill: none; stroke: #000000; stroke-width: 2; stroke-linecap: round"/>
   </g>
   <g id="line2d_21">
    <path d="M 110.223 28.297656 
L 110.223 28.297656 
L 256.203 28.297656 
" clip-path="url(#p7db38bdd21)" style="fill: none; stroke: #000000; stroke-width: 2; stroke-linecap: round"/>
   </g>
   <g id="line2d_22">
    <path d="M 110.223 28.297656 
L 110.223 64.297656 
L 115.623 64.297656 
" clip-path="url(#p7db38bdd21)" style="fill: none; stroke: #000000; stroke-width: 2; stroke-linecap: round"/>
   </g>
   <g id="text_1">
    <!-- A -->
    <g transform="translate(30.347609 13.098047) scale(0.125 -0.125)">
     <defs>
      <path id="DejaVuSans-41" d="M 2188 4044 
L 1331 1722 
L 3047 1722 
L 2188 4044 
z
M 1831 4666 
L 2547 4666 
L 4325 0 
L 3669 0 
L 3244 1197 
L 1141 1197 
L 716 0 
L 50 0 
L 1831 4666 
z
" transform="scale(0.015625)"/>
     </defs>
     <use xlink:href="#DejaVuSans-41"/>
    </g>
   </g>
   <g id="text_2">
    <!-- B -->
    <g transform="translate(30.334914 31.098047) scale(0.125 -0.125)">
     <defs>
      <path id="DejaVuSans-42" d="M 1259 2228 
L 1259 519 
L 2272 519 
Q 2781 519 3026 730 
Q 3272 941 3272 1375 
Q 3272 1813 3026 2020 
Q 2781 2228 2272 2228 
L 1259 2228 
z
M 1259 4147 
L 1259 2741 
L 2194 2741 
Q 2656 2741 2882 2914 
Q 3109 3088 3109 3444 
Q 3109 3797 2882 3972 
Q 2656 4147 2194 4147 
L 1259 4147 
z
M 628 4666 
L 2241 4666 
Q 2963 4666 3353 4366 
Q 3744 4066 3744 3513 
Q 3744 3084 3544 2831 
Q 3344 2578 2956 2516 
Q 3422 2416 3680 2098 
Q 3938 1781 3938 1306 
Q 3938 681 3513 340 
Q 3088 0 2303 0 
L 628 0 
L 628 4666 
z
" transform="scale(0.015625)"/>
     </defs>
     <use xlink:href="#DejaVuSans-42"/>
    </g>
   </g>
   <g id="text_3">
    <!-- C -->
    <g transform="translate(75.258742 76.098047) scale(0.125 -0.125)">
     <defs>
      <path id="DejaVuSans-43" d="M 4122 4306 
L 4122 3641 
Q 3803 3938 3442 4084 
Q 3081 4231 2675 4231 
Q 1875 4231 1450 3742 
Q 1025 3253 1025 2328 
Q 1025 1406 1450 917 
Q 1875 428 2675 428 
Q 3081 428 3442 575 
Q 3803 722 4122 1019 
L 4122 359 
Q 3791 134 3420 21 
Q 3050 -91 2638 -91 
Q 1578 -91 968 557 
Q 359 1206 359 2328 
Q 359 3453 968 4101 
Q 1578 4750 2638 4750 
Q 3056 4750 3426 4639 
Q 3797 4528 4122 4306 
z
" transform="scale(0.015625)"/>
     </defs>
     <use xlink:href="#DejaVuSans-43"/>
    </g>
   </g>
   <g id="text_4">
    <!-- R -->
    <g transform="translate(461.020227 31.098047) scale(0.125 -0.125)">
     <defs>
      <path id="DejaVuSans-52" d="M 2841 2188 
Q 3044 2119 3236 1894 
Q 3428 1669 3622 1275 
L 4263 0 
L 3584 0 
L 2988 1197 
Q 2756 1666 2539 1819 
Q 2322 1972 1947 1972 
L 1259 1972 
L 1259 0 
L 628 0 
L 628 4666 
L 2053 4666 
Q 2853 4666 3247 4331 
Q 3641 3997 3641 3322 
Q 3641 2881 3436 2590 
Q 3231 2300 2841 2188 
z
M 1259 4147 
L 1259 2491 
L 2053 2491 
Q 2509 2491 2742 2702 
Q 2975 2913 2975 3322 
Q 2975 3731 2742 3939 
Q 2509 4147 2053 4147 
L 1259 4147 
z
" transform="scale(0.015625)"/>
     </defs>
     <use xlink:href="#DejaVuSans-52"/>
    </g>
   </g>
  </g>
 </g>
 <defs>
  <clipPath id="p7db38bdd21">
   <rect x="3.6" y="6.247656" width="484.506" height="89.1"/>
  </clipPath>
 </defs>
</svg>
