<?xml version="1.0" encoding="utf-8" standalone="no"?>
<!DOCTYPE svg PUBLIC "-//W3C//DTD SVG 1.1//EN"
  "http://www.w3.org/Graphics/SVG/1.1/DTD/svg11.dtd">
<svg xmlns:xlink="http://www.w3.org/1999/xlink" width="114.401429pt" height="114.401429pt" viewBox="0 0 114.401429 114.401429" xmlns="http://www.w3.org/2000/svg" version="1.1">
 <metadata>
  <rdf:RDF xmlns:dc="http://purl.org/dc/elements/1.1/" xmlns:cc="http://creativecommons.org/ns#" xmlns:rdf="http://www.w3.org/1999/02/22-rdf-syntax-ns#">
   <cc:Work>
    <dc:type rdf:resource="http://purl.org/dc/dcmitype/StillImage"/>
    <dc:date>2023-11-08T15:00:35.919554</dc:date>
    <dc:format>image/svg+xml</dc:format>
    <dc:creator>
     <cc:Agent>
      <dc:title>Matplotlib v3.8.1, https://matplotlib.org/</dc:title>
     </cc:Agent>
    </dc:creator>
   </cc:Work>
  </rdf:RDF>
 </metadata>
 <defs>
  <style type="text/css">*{stroke-linejoin: round; stroke-linecap: butt}</style>
 </defs>
 <g id="figure_1">
  <g id="patch_1">
   <path d="M -0 114.401429 
L 114.401429 114.401429 
L 114.401429 0 
L -0 0 
z
" style="fill: #ffffff"/>
  </g>
  <g id="axes_1">
   <g id="patch_2">
    <path d="M 57.328636 102.328636 
L 57.47143 102.327503 
L 57.614188 102.324105 
L 57.756874 102.318442 
L 57.899452 102.310516 
L 58.041886 102.300329 
L 58.184141 102.287884 
L 58.32618 102.273183 
L 58.467968 102.25623 
L 58.60947 102.237029 
L 58.750649 102.215586 
L 58.89147 102.191906 
L 59.031898 102.165995 
L 59.171896 102.137858 
L 59.311431 102.107504 
L 59.450467 102.07494 
L 59.588968 102.040175 
L 59.726901 102.003216 
L 59.864229 101.964073 
L 60.00092 101.922757 
L 60.136937 101.879276 
L 60.272248 101.833644 
L 60.406818 101.78587 
L 60.540612 101.735967 
L 60.673598 101.683948 
L 60.805742 101.629825 
L 60.937011 101.573612 
L 61.067371 101.515324 
L 61.196791 101.454975 
L 61.325236 101.39258 
L 61.452675 101.328155 
L 61.579076 101.261717 
L 61.704407 101.193281 
L 61.828636 101.122865 
L 61.951733 101.050487 
L 62.073666 100.976165 
L 62.194404 100.899918 
L 62.313917 100.821765 
L 62.432175 100.741726 
L 62.549149 100.65982 
L 62.664808 100.576069 
L 62.779124 100.490493 
L 62.892067 100.403114 
L 63.00361 100.313955 
L 63.113725 100.223036 
L 63.222383 100.130382 
L 63.329557 100.036016 
L 63.435221 99.939962 
L 63.539347 99.842243 
L 63.64191 99.742884 
L 63.742884 99.64191 
L 63.842243 99.539347 
L 63.939962 99.435221 
L 64.036016 99.329557 
L 64.130382 99.222383 
L 64.223036 99.113725 
L 64.313955 99.00361 
L 64.403114 98.892067 
L 64.490493 98.779124 
L 64.576069 98.664808 
L 64.65982 98.549149 
L 64.741726 98.432175 
L 64.821765 98.313917 
L 64.899918 98.194404 
L 64.976165 98.073666 
L 65.050487 97.951733 
L 65.122865 97.828636 
L 65.193281 97.704407 
L 65.261717 97.579076 
L 65.328155 97.452675 
L 65.39258 97.325236 
L 65.454975 97.196791 
L 65.515324 97.067371 
L 65.573612 96.937011 
L 65.629825 96.805742 
L 65.683948 96.673598 
L 65.735967 96.540612 
L 65.78587 96.406818 
L 65.833644 96.272248 
L 65.879276 96.136937 
L 65.922757 96.00092 
L 65.964073 95.864229 
L 66.003216 95.726901 
L 66.040175 95.588968 
L 66.07494 95.450467 
L 66.107504 95.311431 
L 66.137858 95.171896 
L 66.165995 95.031898 
L 66.191906 94.89147 
L 66.215586 94.750649 
L 66.237029 94.60947 
L 66.25623 94.467968 
L 66.273183 94.32618 
L 66.287884 94.184141 
L 66.300329 94.041886 
L 66.310516 93.899452 
L 66.318442 93.756874 
L 66.324105 93.614188 
L 66.327503 93.47143 
L 66.328636 93.328636 
L 66.328636 46.528636 
L 66.327503 46.385843 
L 66.324105 46.243085 
L 66.318442 46.100399 
L 66.310516 45.957821 
L 66.300329 45.815387 
L 66.287884 45.673132 
L 66.273183 45.531093 
L 66.25623 45.389304 
L 66.237029 45.247803 
L 66.215586 45.106624 
L 66.191906 44.965803 
L 66.165995 44.825375 
L 66.137858 44.685376 
L 66.107504 44.545842 
L 66.07494 44.406806 
L 66.040175 44.268304 
L 66.003216 44.130372 
L 65.964073 43.993043 
L 65.922757 43.856353 
L 65.879276 43.720335 
L 65.833644 43.585025 
L 65.78587 43.450455 
L 65.735967 43.31666 
L 65.683948 43.183674 
L 65.629825 43.05153 
L 65.573612 42.920262 
L 65.515324 42.789901 
L 65.454975 42.660482 
L 65.39258 42.532037 
L 65.328155 42.404598 
L 65.261717 42.278197 
L 65.193281 42.152866 
L 65.122865 42.028636 
L 65.050487 41.90554 
L 64.976165 41.783607 
L 64.899918 41.662869 
L 64.821765 41.543356 
L 64.741726 41.425098 
L 64.65982 41.308124 
L 64.576069 41.192465 
L 64.490493 41.078149 
L 64.403114 40.965205 
L 64.313955 40.853662 
L 64.223036 40.743548 
L 64.130382 40.63489 
L 64.036016 40.527715 
L 63.939962 40.422052 
L 63.842243 40.317925 
L 63.742884 40.215362 
L 63.64191 40.114389 
L 63.539347 40.01503 
L 63.435221 39.917311 
L 63.329557 39.821256 
L 63.222383 39.72689 
L 63.113725 39.634236 
L 63.00361 39.543318 
L 62.892067 39.454158 
L 62.779124 39.36678 
L 62.664808 39.281204 
L 62.549149 39.197453 
L 62.432175 39.115547 
L 62.313917 39.035508 
L 62.194404 38.957355 
L 62.073666 38.881107 
L 61.951733 38.806786 
L 61.828636 38.734408 
L 61.704407 38.663992 
L 61.579076 38.595556 
L 61.452675 38.529117 
L 61.325236 38.464692 
L 61.196791 38.402297 
L 61.067371 38.341948 
L 60.937011 38.28366 
L 60.805742 38.227448 
L 60.673598 38.173325 
L 60.540612 38.121306 
L 60.406818 38.071403 
L 60.272248 38.023629 
L 60.136937 37.977996 
L 60.00092 37.934516 
L 59.864229 37.8932 
L 59.726901 37.854057 
L 59.588968 37.817098 
L 59.450467 37.782332 
L 59.311431 37.749768 
L 59.171896 37.719414 
L 59.031898 37.691278 
L 58.89147 37.665367 
L 58.750649 37.641686 
L 58.60947 37.620243 
L 58.467968 37.601043 
L 58.32618 37.58409 
L 58.184141 37.569389 
L 58.041886 37.556943 
L 57.899452 37.546756 
L 57.756874 37.53883 
L 57.614188 37.533167 
L 57.47143 37.529769 
L 57.328636 37.528636 
L 46.528636 37.528636 
L 46.385843 37.529769 
L 46.243085 37.533167 
L 46.100399 37.53883 
L 45.957821 37.546756 
L 45.815387 37.556943 
L 45.673132 37.569389 
L 45.531093 37.58409 
L 45.389304 37.601043 
L 45.247803 37.620243 
L 45.106624 37.641686 
L 44.965803 37.665367 
L 44.825375 37.691278 
L 44.685376 37.719414 
L 44.545842 37.749768 
L 44.406806 37.782332 
L 44.268304 37.817098 
L 44.130372 37.854057 
L 43.993043 37.8932 
L 43.856353 37.934516 
L 43.720335 37.977996 
L 43.585025 38.023629 
L 43.450455 38.071403 
L 43.31666 38.121306 
L 43.183674 38.173325 
L 43.05153 38.227448 
L 42.920262 38.28366 
L 42.789901 38.341948 
L 42.660482 38.402297 
L 42.532037 38.464692 
L 42.404598 38.529117 
L 42.278197 38.595556 
L 42.152866 38.663992 
L 42.028636 38.734408 
L 41.90554 38.806786 
L 41.783607 38.881107 
L 41.662869 38.957355 
L 41.543356 39.035508 
L 41.425098 39.115547 
L 41.308124 39.197453 
L 41.192465 39.281204 
L 41.078149 39.36678 
L 40.965205 39.454158 
L 40.853662 39.543318 
L 40.743548 39.634236 
L 40.63489 39.72689 
L 40.527715 39.821256 
L 40.422052 39.917311 
L 40.317925 40.01503 
L 40.215362 40.114389 
L 40.114389 40.215362 
L 40.01503 40.317925 
L 39.917311 40.422052 
L 39.821256 40.527715 
L 39.72689 40.63489 
L 39.634236 40.743548 
L 39.543318 40.853662 
L 39.454158 40.965205 
L 39.36678 41.078149 
L 39.281204 41.192465 
L 39.197453 41.308124 
L 39.115547 41.425098 
L 39.035508 41.543356 
L 38.957355 41.662869 
L 38.881107 41.783607 
L 38.806786 41.90554 
L 38.734408 42.028636 
L 38.663992 42.152866 
L 38.595556 42.278197 
L 38.529117 42.404598 
L 38.464692 42.532037 
L 38.402297 42.660482 
L 38.341948 42.789901 
L 38.28366 42.920262 
L 38.227448 43.05153 
L 38.173325 43.183674 
L 38.121306 43.31666 
L 38.071403 43.450455 
L 38.023629 43.585025 
L 37.977996 43.720335 
L 37.934516 43.856353 
L 37.8932 43.993043 
L 37.854057 44.130372 
L 37.817098 44.268304 
L 37.782332 44.406806 
L 37.749768 44.545842 
L 37.719414 44.685376 
L 37.691278 44.825375 
L 37.665367 44.965803 
L 37.641686 45.106624 
L 37.620243 45.247803 
L 37.601043 45.389304 
L 37.58409 45.531093 
L 37.569389 45.673132 
L 37.556943 45.815387 
L 37.546756 45.957821 
L 37.53883 46.100399 
L 37.533167 46.243085 
L 37.529769 46.385843 
L 37.528636 46.528636 
L 37.528636 93.328636 
L 37.529769 93.47143 
L 37.533167 93.614188 
L 37.53883 93.756874 
L 37.546756 93.899452 
L 37.556943 94.041886 
L 37.569389 94.184141 
L 37.58409 94.32618 
L 37.601043 94.467968 
L 37.620243 94.60947 
L 37.641686 94.750649 
L 37.665367 94.89147 
L 37.691278 95.031898 
L 37.719414 95.171896 
L 37.749768 95.311431 
L 37.782332 95.450467 
L 37.817098 95.588968 
L 37.854057 95.726901 
L 37.8932 95.864229 
L 37.934516 96.00092 
L 37.977996 96.136937 
L 38.023629 96.272248 
L 38.071403 96.406818 
L 38.121306 96.540612 
L 38.173325 96.673598 
L 38.227448 96.805742 
L 38.28366 96.937011 
L 38.341948 97.067371 
L 38.402297 97.196791 
L 38.464692 97.325236 
L 38.529117 97.452675 
L 38.595556 97.579076 
L 38.663992 97.704407 
L 38.734408 97.828636 
L 38.806786 97.951733 
L 38.881107 98.073666 
L 38.957355 98.194404 
L 39.035508 98.313917 
L 39.115547 98.432175 
L 39.197453 98.549149 
L 39.281204 98.664808 
L 39.36678 98.779124 
L 39.454158 98.892067 
L 39.543318 99.00361 
L 39.634236 99.113725 
L 39.72689 99.222383 
L 39.821256 99.329557 
L 39.917311 99.435221 
L 40.01503 99.539347 
L 40.114389 99.64191 
L 40.215362 99.742884 
L 40.317925 99.842243 
L 40.422052 99.939962 
L 40.527715 100.036016 
L 40.63489 100.130382 
L 40.743548 100.223036 
L 40.853662 100.313955 
L 40.965205 100.403114 
L 41.078149 100.490493 
L 41.192465 100.576069 
L 41.308124 100.65982 
L 41.425098 100.741726 
L 41.543356 100.821765 
L 41.662869 100.899918 
L 41.783607 100.976165 
L 41.90554 101.050487 
L 42.028636 101.122865 
L 42.152866 101.193281 
L 42.278197 101.261717 
L 42.404598 101.328155 
L 42.532037 101.39258 
L 42.660482 101.454975 
L 42.789901 101.515324 
L 42.920262 101.573612 
L 43.05153 101.629825 
L 43.183674 101.683948 
L 43.31666 101.735967 
L 43.450455 101.78587 
L 43.585025 101.833644 
L 43.720335 101.879276 
L 43.856353 101.922757 
L 43.993043 101.964073 
L 44.130372 102.003216 
L 44.268304 102.040175 
L 44.406806 102.07494 
L 44.545842 102.107504 
L 44.685376 102.137858 
L 44.825375 102.165995 
L 44.965803 102.191906 
L 45.106624 102.215586 
L 45.247803 102.237029 
L 45.389304 102.25623 
L 45.531093 102.273183 
L 45.673132 102.287884 
L 45.815387 102.300329 
L 45.957821 102.310516 
L 46.100399 102.318442 
L 46.243085 102.324105 
L 46.385843 102.327503 
L 46.528636 102.328636 
z
" clip-path="url(#p6e394e4dd0)" style="fill: #ff0000; fill-opacity: 0.2; stroke: #ff0000; stroke-linecap: round"/>
   </g>
   <g id="line2d_1">
    <path d="M 33.928636 105.928636 
L 105.928636 105.928636 
L 105.928636 33.928636 
L 33.928636 33.928636 
L 33.928636 105.928636 
" clip-path="url(#p6e394e4dd0)" style="fill: none; stroke: #000000; stroke-width: 1.25; stroke-linecap: round"/>
   </g>
   <g id="line2d_2">
    <path d="M 33.928636 105.928636 
L 105.928636 105.928636 
" clip-path="url(#p6e394e4dd0)" style="fill: none; stroke: #000000; stroke-width: 1.25; stroke-linecap: round"/>
   </g>
   <g id="line2d_3">
    <path d="M 33.928636 69.928636 
L 105.928636 69.928636 
" clip-path="url(#p6e394e4dd0)" style="fill: none; stroke: #000000; stroke-width: 1.25; stroke-linecap: round"/>
   </g>
   <g id="line2d_4">
    <path d="M 33.928636 105.928636 
L 33.928636 33.928636 
" clip-path="url(#p6e394e4dd0)" style="fill: none; stroke: #000000; stroke-width: 1.25; stroke-linecap: round"/>
   </g>
   <g id="line2d_5">
    <path d="M 69.928636 105.928636 
L 69.928636 33.928636 
" clip-path="url(#p6e394e4dd0)" style="fill: none; stroke: #000000; stroke-width: 1.25; stroke-linecap: round"/>
   </g>
   <g id="line2d_6">
    <path d="M 33.928636 33.928636 
L 8.472792 8.472792 
" clip-path="url(#p6e394e4dd0)" style="fill: none; stroke: #000000; stroke-width: 1.25; stroke-linecap: round"/>
   </g>
   <g id="text_1">
    <!-- A -->
    <g transform="translate(26.74598 12.653081) scale(0.105 -0.105)">
     <defs>
      <path id="DejaVuSans-41" d="M 2188 4044 
L 1331 1722 
L 3047 1722 
L 2188 4044 
z
M 1831 4666 
L 2547 4666 
L 4325 0 
L 3669 0 
L 3244 1197 
L 1141 1197 
L 716 0 
L 50 0 
L 1831 4666 
z
" transform="scale(0.015625)"/>
     </defs>
     <use xlink:href="#DejaVuSans-41"/>
    </g>
   </g>
   <g id="text_2">
    <!-- B -->
    <g transform="translate(7.632769 31.744964) scale(0.105 -0.105)">
     <defs>
      <path id="DejaVuSans-42" d="M 1259 2228 
L 1259 519 
L 2272 519 
Q 2781 519 3026 730 
Q 3272 941 3272 1375 
Q 3272 1813 3026 2020 
Q 2781 2228 2272 2228 
L 1259 2228 
z
M 1259 4147 
L 1259 2741 
L 2194 2741 
Q 2656 2741 2882 2914 
Q 3109 3088 3109 3444 
Q 3109 3797 2882 3972 
Q 2656 4147 2194 4147 
L 1259 4147 
z
M 628 4666 
L 2241 4666 
Q 2963 4666 3353 4366 
Q 3744 4066 3744 3513 
Q 3744 3084 3544 2831 
Q 3344 2578 2956 2516 
Q 3422 2416 3680 2098 
Q 3938 1781 3938 1306 
Q 3938 681 3513 340 
Q 3088 0 2303 0 
L 628 0 
L 628 4666 
z
" transform="scale(0.015625)"/>
     </defs>
     <use xlink:href="#DejaVuSans-42"/>
    </g>
   </g>
   <g id="text_3">
    <!-- 0 -->
    <g transform="translate(49.224574 30.360902) scale(0.085 -0.085)">
     <defs>
      <path id="DejaVuSans-30" d="M 2034 4250 
Q 1547 4250 1301 3770 
Q 1056 3291 1056 2328 
Q 1056 1369 1301 889 
Q 1547 409 2034 409 
Q 2525 409 2770 889 
Q 3016 1369 3016 2328 
Q 3016 3291 2770 3770 
Q 2525 4250 2034 4250 
z
M 2034 4750 
Q 2819 4750 3233 4129 
Q 3647 3509 3647 2328 
Q 3647 1150 3233 529 
Q 2819 -91 2034 -91 
Q 1250 -91 836 529 
Q 422 1150 422 2328 
Q 422 3509 836 4129 
Q 1250 4750 2034 4750 
z
" transform="scale(0.015625)"/>
     </defs>
     <use xlink:href="#DejaVuSans-30"/>
    </g>
   </g>
   <g id="text_4">
    <!-- 1 -->
    <g transform="translate(85.224574 30.360902) scale(0.085 -0.085)">
     <defs>
      <path id="DejaVuSans-31" d="M 794 531 
L 1825 531 
L 1825 4091 
L 703 3866 
L 703 4441 
L 1819 4666 
L 2450 4666 
L 2450 531 
L 3481 531 
L 3481 0 
L 794 0 
L 794 531 
z
" transform="scale(0.015625)"/>
     </defs>
     <use xlink:href="#DejaVuSans-31"/>
    </g>
   </g>
   <g id="text_5">
    <!-- 0 -->
    <g transform="translate(24.920511 54.274105) scale(0.085 -0.085)">
     <use xlink:href="#DejaVuSans-30"/>
    </g>
   </g>
   <g id="text_6">
    <!-- 1 -->
    <g transform="translate(24.920511 90.274105) scale(0.085 -0.085)">
     <use xlink:href="#DejaVuSans-31"/>
    </g>
   </g>
   <g id="text_7">
    <!-- 0 -->
    <g transform="translate(48.588324 54.82598) scale(0.105 -0.105)">
     <use xlink:href="#DejaVuSans-30"/>
    </g>
   </g>
   <g id="text_8">
    <!-- 1 -->
    <g transform="translate(48.588324 90.82598) scale(0.105 -0.105)">
     <use xlink:href="#DejaVuSans-31"/>
    </g>
   </g>
   <g id="text_9">
    <!-- 1 -->
    <g transform="translate(84.588324 54.82598) scale(0.105 -0.105)">
     <use xlink:href="#DejaVuSans-31"/>
    </g>
   </g>
   <g id="text_10">
    <!-- 0 -->
    <g transform="translate(84.588324 90.82598) scale(0.105 -0.105)">
     <use xlink:href="#DejaVuSans-30"/>
    </g>
   </g>
  </g>
 </g>
 <defs>
  <clipPath id="p6e394e4dd0">
   <rect x="3.6" y="3.6" width="107.201429" height="107.201429"/>
  </clipPath>
 </defs>
</svg>
