<?xml version="1.0" encoding="utf-8" standalone="no"?>
<!DOCTYPE svg PUBLIC "-//W3C//DTD SVG 1.1//EN"
  "http://www.w3.org/Graphics/SVG/1.1/DTD/svg11.dtd">
<svg xmlns:xlink="http://www.w3.org/1999/xlink" width="114.401429pt" height="114.401429pt" viewBox="0 0 114.401429 114.401429" xmlns="http://www.w3.org/2000/svg" version="1.1">
 <metadata>
  <rdf:RDF xmlns:dc="http://purl.org/dc/elements/1.1/" xmlns:cc="http://creativecommons.org/ns#" xmlns:rdf="http://www.w3.org/1999/02/22-rdf-syntax-ns#">
   <cc:Work>
    <dc:type rdf:resource="http://purl.org/dc/dcmitype/StillImage"/>
    <dc:date>2023-11-08T15:00:35.829243</dc:date>
    <dc:format>image/svg+xml</dc:format>
    <dc:creator>
     <cc:Agent>
      <dc:title>Matplotlib v3.8.1, https://matplotlib.org/</dc:title>
     </cc:Agent>
    </dc:creator>
   </cc:Work>
  </rdf:RDF>
 </metadata>
 <defs>
  <style type="text/css">*{stroke-linejoin: round; stroke-linecap: butt}</style>
 </defs>
 <g id="figure_1">
  <g id="patch_1">
   <path d="M -0 114.401429 
L 114.401429 114.401429 
L 114.401429 0 
L -0 0 
z
" style="fill: #ffffff"/>
  </g>
  <g id="axes_1">
   <g id="patch_2">
    <path d="M 57.328636 102.328636 
L 57.47143 102.327503 
L 57.614188 102.324105 
L 57.756874 102.318442 
L 57.899452 102.310516 
L 58.041886 102.300329 
L 58.184141 102.287884 
L 58.32618 102.273183 
L 58.467968 102.25623 
L 58.60947 102.237029 
L 58.750649 102.215586 
L 58.89147 102.191906 
L 59.031898 102.165995 
L 59.171896 102.137858 
L 59.311431 102.107504 
L 59.450467 102.07494 
L 59.588968 102.040175 
L 59.726901 102.003216 
L 59.864229 101.964073 
L 60.00092 101.922757 
L 60.136937 101.879276 
L 60.272248 101.833644 
L 60.406818 101.78587 
L 60.540612 101.735967 
L 60.673598 101.683948 
L 60.805742 101.629825 
L 60.937011 101.573612 
L 61.067371 101.515324 
L 61.196791 101.454975 
L 61.325236 101.39258 
L 61.452675 101.328155 
L 61.579076 101.261717 
L 61.704407 101.193281 
L 61.828636 101.122865 
L 61.951733 101.050487 
L 62.073666 100.976165 
L 62.194404 100.899918 
L 62.313917 100.821765 
L 62.432175 100.741726 
L 62.549149 100.65982 
L 62.664808 100.576069 
L 62.779124 100.490493 
L 62.892067 100.403114 
L 63.00361 100.313955 
L 63.113725 100.223036 
L 63.222383 100.130382 
L 63.329557 100.036016 
L 63.435221 99.939962 
L 63.539347 99.842243 
L 63.64191 99.742884 
L 63.742884 99.64191 
L 63.842243 99.539347 
L 63.939962 99.435221 
L 64.036016 99.329557 
L 64.130382 99.222383 
L 64.223036 99.113725 
L 64.313955 99.00361 
L 64.403114 98.892067 
L 64.490493 98.779124 
L 64.576069 98.664808 
L 64.65982 98.549149 
L 64.741726 98.432175 
L 64.821765 98.313917 
L 64.899918 98.194404 
L 64.976165 98.073666 
L 65.050487 97.951733 
L 65.122865 97.828636 
L 65.193281 97.704407 
L 65.261717 97.579076 
L 65.328155 97.452675 
L 65.39258 97.325236 
L 65.454975 97.196791 
L 65.515324 97.067371 
L 65.573612 96.937011 
L 65.629825 96.805742 
L 65.683948 96.673598 
L 65.735967 96.540612 
L 65.78587 96.406818 
L 65.833644 96.272248 
L 65.879276 96.136937 
L 65.922757 96.00092 
L 65.964073 95.864229 
L 66.003216 95.726901 
L 66.040175 95.588968 
L 66.07494 95.450467 
L 66.107504 95.311431 
L 66.137858 95.171896 
L 66.165995 95.031898 
L 66.191906 94.89147 
L 66.215586 94.750649 
L 66.237029 94.60947 
L 66.25623 94.467968 
L 66.273183 94.32618 
L 66.287884 94.184141 
L 66.300329 94.041886 
L 66.310516 93.899452 
L 66.318442 93.756874 
L 66.324105 93.614188 
L 66.327503 93.47143 
L 66.328636 93.328636 
L 66.328636 82.528636 
L 66.327503 82.385843 
L 66.324105 82.243085 
L 66.318442 82.100399 
L 66.310516 81.957821 
L 66.300329 81.815387 
L 66.287884 81.673132 
L 66.273183 81.531093 
L 66.25623 81.389304 
L 66.237029 81.247803 
L 66.215586 81.106624 
L 66.191906 80.965803 
L 66.165995 80.825375 
L 66.137858 80.685376 
L 66.107504 80.545842 
L 66.07494 80.406806 
L 66.040175 80.268304 
L 66.003216 80.130372 
L 65.964073 79.993043 
L 65.922757 79.856353 
L 65.879276 79.720335 
L 65.833644 79.585025 
L 65.78587 79.450455 
L 65.735967 79.31666 
L 65.683948 79.183674 
L 65.629825 79.05153 
L 65.573612 78.920262 
L 65.515324 78.789901 
L 65.454975 78.660482 
L 65.39258 78.532037 
L 65.328155 78.404598 
L 65.261717 78.278197 
L 65.193281 78.152866 
L 65.122865 78.028636 
L 65.050487 77.90554 
L 64.976165 77.783607 
L 64.899918 77.662869 
L 64.821765 77.543356 
L 64.741726 77.425098 
L 64.65982 77.308124 
L 64.576069 77.192465 
L 64.490493 77.078149 
L 64.403114 76.965205 
L 64.313955 76.853662 
L 64.223036 76.743548 
L 64.130382 76.63489 
L 64.036016 76.527715 
L 63.939962 76.422052 
L 63.842243 76.317925 
L 63.742884 76.215362 
L 63.64191 76.114389 
L 63.539347 76.01503 
L 63.435221 75.917311 
L 63.329557 75.821256 
L 63.222383 75.72689 
L 63.113725 75.634236 
L 63.00361 75.543318 
L 62.892067 75.454158 
L 62.779124 75.36678 
L 62.664808 75.281204 
L 62.549149 75.197453 
L 62.432175 75.115547 
L 62.313917 75.035508 
L 62.194404 74.957355 
L 62.073666 74.881107 
L 61.951733 74.806786 
L 61.828636 74.734408 
L 61.704407 74.663992 
L 61.579076 74.595556 
L 61.452675 74.529117 
L 61.325236 74.464692 
L 61.196791 74.402297 
L 61.067371 74.341948 
L 60.937011 74.28366 
L 60.805742 74.227448 
L 60.673598 74.173325 
L 60.540612 74.121306 
L 60.406818 74.071403 
L 60.272248 74.023629 
L 60.136937 73.977996 
L 60.00092 73.934516 
L 59.864229 73.8932 
L 59.726901 73.854057 
L 59.588968 73.817098 
L 59.450467 73.782332 
L 59.311431 73.749768 
L 59.171896 73.719414 
L 59.031898 73.691278 
L 58.89147 73.665367 
L 58.750649 73.641686 
L 58.60947 73.620243 
L 58.467968 73.601043 
L 58.32618 73.58409 
L 58.184141 73.569389 
L 58.041886 73.556943 
L 57.899452 73.546756 
L 57.756874 73.53883 
L 57.614188 73.533167 
L 57.47143 73.529769 
L 57.328636 73.528636 
L 46.528636 73.528636 
L 46.385843 73.529769 
L 46.243085 73.533167 
L 46.100399 73.53883 
L 45.957821 73.546756 
L 45.815387 73.556943 
L 45.673132 73.569389 
L 45.531093 73.58409 
L 45.389304 73.601043 
L 45.247803 73.620243 
L 45.106624 73.641686 
L 44.965803 73.665367 
L 44.825375 73.691278 
L 44.685376 73.719414 
L 44.545842 73.749768 
L 44.406806 73.782332 
L 44.268304 73.817098 
L 44.130372 73.854057 
L 43.993043 73.8932 
L 43.856353 73.934516 
L 43.720335 73.977996 
L 43.585025 74.023629 
L 43.450455 74.071403 
L 43.31666 74.121306 
L 43.183674 74.173325 
L 43.05153 74.227448 
L 42.920262 74.28366 
L 42.789901 74.341948 
L 42.660482 74.402297 
L 42.532037 74.464692 
L 42.404598 74.529117 
L 42.278197 74.595556 
L 42.152866 74.663992 
L 42.028636 74.734408 
L 41.90554 74.806786 
L 41.783607 74.881107 
L 41.662869 74.957355 
L 41.543356 75.035508 
L 41.425098 75.115547 
L 41.308124 75.197453 
L 41.192465 75.281204 
L 41.078149 75.36678 
L 40.965205 75.454158 
L 40.853662 75.543318 
L 40.743548 75.634236 
L 40.63489 75.72689 
L 40.527715 75.821256 
L 40.422052 75.917311 
L 40.317925 76.01503 
L 40.215362 76.114389 
L 40.114389 76.215362 
L 40.01503 76.317925 
L 39.917311 76.422052 
L 39.821256 76.527715 
L 39.72689 76.63489 
L 39.634236 76.743548 
L 39.543318 76.853662 
L 39.454158 76.965205 
L 39.36678 77.078149 
L 39.281204 77.192465 
L 39.197453 77.308124 
L 39.115547 77.425098 
L 39.035508 77.543356 
L 38.957355 77.662869 
L 38.881107 77.783607 
L 38.806786 77.90554 
L 38.734408 78.028636 
L 38.663992 78.152866 
L 38.595556 78.278197 
L 38.529117 78.404598 
L 38.464692 78.532037 
L 38.402297 78.660482 
L 38.341948 78.789901 
L 38.28366 78.920262 
L 38.227448 79.05153 
L 38.173325 79.183674 
L 38.121306 79.31666 
L 38.071403 79.450455 
L 38.023629 79.585025 
L 37.977996 79.720335 
L 37.934516 79.856353 
L 37.8932 79.993043 
L 37.854057 80.130372 
L 37.817098 80.268304 
L 37.782332 80.406806 
L 37.749768 80.545842 
L 37.719414 80.685376 
L 37.691278 80.825375 
L 37.665367 80.965803 
L 37.641686 81.106624 
L 37.620243 81.247803 
L 37.601043 81.389304 
L 37.58409 81.531093 
L 37.569389 81.673132 
L 37.556943 81.815387 
L 37.546756 81.957821 
L 37.53883 82.100399 
L 37.533167 82.243085 
L 37.529769 82.385843 
L 37.528636 82.528636 
L 37.528636 93.328636 
L 37.529769 93.47143 
L 37.533167 93.614188 
L 37.53883 93.756874 
L 37.546756 93.899452 
L 37.556943 94.041886 
L 37.569389 94.184141 
L 37.58409 94.32618 
L 37.601043 94.467968 
L 37.620243 94.60947 
L 37.641686 94.750649 
L 37.665367 94.89147 
L 37.691278 95.031898 
L 37.719414 95.171896 
L 37.749768 95.311431 
L 37.782332 95.450467 
L 37.817098 95.588968 
L 37.854057 95.726901 
L 37.8932 95.864229 
L 37.934516 96.00092 
L 37.977996 96.136937 
L 38.023629 96.272248 
L 38.071403 96.406818 
L 38.121306 96.540612 
L 38.173325 96.673598 
L 38.227448 96.805742 
L 38.28366 96.937011 
L 38.341948 97.067371 
L 38.402297 97.196791 
L 38.464692 97.325236 
L 38.529117 97.452675 
L 38.595556 97.579076 
L 38.663992 97.704407 
L 38.734408 97.828636 
L 38.806786 97.951733 
L 38.881107 98.073666 
L 38.957355 98.194404 
L 39.035508 98.313917 
L 39.115547 98.432175 
L 39.197453 98.549149 
L 39.281204 98.664808 
L 39.36678 98.779124 
L 39.454158 98.892067 
L 39.543318 99.00361 
L 39.634236 99.113725 
L 39.72689 99.222383 
L 39.821256 99.329557 
L 39.917311 99.435221 
L 40.01503 99.539347 
L 40.114389 99.64191 
L 40.215362 99.742884 
L 40.317925 99.842243 
L 40.422052 99.939962 
L 40.527715 100.036016 
L 40.63489 100.130382 
L 40.743548 100.223036 
L 40.853662 100.313955 
L 40.965205 100.403114 
L 41.078149 100.490493 
L 41.192465 100.576069 
L 41.308124 100.65982 
L 41.425098 100.741726 
L 41.543356 100.821765 
L 41.662869 100.899918 
L 41.783607 100.976165 
L 41.90554 101.050487 
L 42.028636 101.122865 
L 42.152866 101.193281 
L 42.278197 101.261717 
L 42.404598 101.328155 
L 42.532037 101.39258 
L 42.660482 101.454975 
L 42.789901 101.515324 
L 42.920262 101.573612 
L 43.05153 101.629825 
L 43.183674 101.683948 
L 43.31666 101.735967 
L 43.450455 101.78587 
L 43.585025 101.833644 
L 43.720335 101.879276 
L 43.856353 101.922757 
L 43.993043 101.964073 
L 44.130372 102.003216 
L 44.268304 102.040175 
L 44.406806 102.07494 
L 44.545842 102.107504 
L 44.685376 102.137858 
L 44.825375 102.165995 
L 44.965803 102.191906 
L 45.106624 102.215586 
L 45.247803 102.237029 
L 45.389304 102.25623 
L 45.531093 102.273183 
L 45.673132 102.287884 
L 45.815387 102.300329 
L 45.957821 102.310516 
L 46.100399 102.318442 
L 46.243085 102.324105 
L 46.385843 102.327503 
L 46.528636 102.328636 
z
" clip-path="url(#p85e75c38dc)" style="fill: #ff0000; fill-opacity: 0.2; stroke: #ff0000; stroke-linecap: round"/>
   </g>
   <g id="patch_3">
    <path d="M 93.328636 66.328636 
L 93.47143 66.327503 
L 93.614188 66.324105 
L 93.756874 66.318442 
L 93.899452 66.310516 
L 94.041886 66.300329 
L 94.184141 66.287884 
L 94.32618 66.273183 
L 94.467968 66.25623 
L 94.60947 66.237029 
L 94.750649 66.215586 
L 94.89147 66.191906 
L 95.031898 66.165995 
L 95.171896 66.137858 
L 95.311431 66.107504 
L 95.450467 66.07494 
L 95.588968 66.040175 
L 95.726901 66.003216 
L 95.864229 65.964073 
L 96.00092 65.922757 
L 96.136937 65.879276 
L 96.272248 65.833644 
L 96.406818 65.78587 
L 96.540612 65.735967 
L 96.673598 65.683948 
L 96.805742 65.629825 
L 96.937011 65.573612 
L 97.067371 65.515324 
L 97.196791 65.454975 
L 97.325236 65.39258 
L 97.452675 65.328155 
L 97.579076 65.261717 
L 97.704407 65.193281 
L 97.828636 65.122865 
L 97.951733 65.050487 
L 98.073666 64.976165 
L 98.194404 64.899918 
L 98.313917 64.821765 
L 98.432175 64.741726 
L 98.549149 64.65982 
L 98.664808 64.576069 
L 98.779124 64.490493 
L 98.892067 64.403114 
L 99.00361 64.313955 
L 99.113725 64.223036 
L 99.222383 64.130382 
L 99.329557 64.036016 
L 99.435221 63.939962 
L 99.539347 63.842243 
L 99.64191 63.742884 
L 99.742884 63.64191 
L 99.842243 63.539347 
L 99.939962 63.435221 
L 100.036016 63.329557 
L 100.130382 63.222383 
L 100.223036 63.113725 
L 100.313955 63.00361 
L 100.403114 62.892067 
L 100.490493 62.779124 
L 100.576069 62.664808 
L 100.65982 62.549149 
L 100.741726 62.432175 
L 100.821765 62.313917 
L 100.899918 62.194404 
L 100.976165 62.073666 
L 101.050487 61.951733 
L 101.122865 61.828636 
L 101.193281 61.704407 
L 101.261717 61.579076 
L 101.328155 61.452675 
L 101.39258 61.325236 
L 101.454975 61.196791 
L 101.515324 61.067371 
L 101.573612 60.937011 
L 101.629825 60.805742 
L 101.683948 60.673598 
L 101.735967 60.540612 
L 101.78587 60.406818 
L 101.833644 60.272248 
L 101.879276 60.136937 
L 101.922757 60.00092 
L 101.964073 59.864229 
L 102.003216 59.726901 
L 102.040175 59.588968 
L 102.07494 59.450467 
L 102.107504 59.311431 
L 102.137858 59.171896 
L 102.165995 59.031898 
L 102.191906 58.89147 
L 102.215586 58.750649 
L 102.237029 58.60947 
L 102.25623 58.467968 
L 102.273183 58.32618 
L 102.287884 58.184141 
L 102.300329 58.041886 
L 102.310516 57.899452 
L 102.318442 57.756874 
L 102.324105 57.614188 
L 102.327503 57.47143 
L 102.328636 57.328636 
L 102.328636 46.528636 
L 102.327503 46.385843 
L 102.324105 46.243085 
L 102.318442 46.100399 
L 102.310516 45.957821 
L 102.300329 45.815387 
L 102.287884 45.673132 
L 102.273183 45.531093 
L 102.25623 45.389304 
L 102.237029 45.247803 
L 102.215586 45.106624 
L 102.191906 44.965803 
L 102.165995 44.825375 
L 102.137858 44.685376 
L 102.107504 44.545842 
L 102.07494 44.406806 
L 102.040175 44.268304 
L 102.003216 44.130372 
L 101.964073 43.993043 
L 101.922757 43.856353 
L 101.879276 43.720335 
L 101.833644 43.585025 
L 101.78587 43.450455 
L 101.735967 43.31666 
L 101.683948 43.183674 
L 101.629825 43.05153 
L 101.573612 42.920262 
L 101.515324 42.789901 
L 101.454975 42.660482 
L 101.39258 42.532037 
L 101.328155 42.404598 
L 101.261717 42.278197 
L 101.193281 42.152866 
L 101.122865 42.028636 
L 101.050487 41.90554 
L 100.976165 41.783607 
L 100.899918 41.662869 
L 100.821765 41.543356 
L 100.741726 41.425098 
L 100.65982 41.308124 
L 100.576069 41.192465 
L 100.490493 41.078149 
L 100.403114 40.965205 
L 100.313955 40.853662 
L 100.223036 40.743548 
L 100.130382 40.63489 
L 100.036016 40.527715 
L 99.939962 40.422052 
L 99.842243 40.317925 
L 99.742884 40.215362 
L 99.64191 40.114389 
L 99.539347 40.01503 
L 99.435221 39.917311 
L 99.329557 39.821256 
L 99.222383 39.72689 
L 99.113725 39.634236 
L 99.00361 39.543318 
L 98.892067 39.454158 
L 98.779124 39.36678 
L 98.664808 39.281204 
L 98.549149 39.197453 
L 98.432175 39.115547 
L 98.313917 39.035508 
L 98.194404 38.957355 
L 98.073666 38.881107 
L 97.951733 38.806786 
L 97.828636 38.734408 
L 97.704407 38.663992 
L 97.579076 38.595556 
L 97.452675 38.529117 
L 97.325236 38.464692 
L 97.196791 38.402297 
L 97.067371 38.341948 
L 96.937011 38.28366 
L 96.805742 38.227448 
L 96.673598 38.173325 
L 96.540612 38.121306 
L 96.406818 38.071403 
L 96.272248 38.023629 
L 96.136937 37.977996 
L 96.00092 37.934516 
L 95.864229 37.8932 
L 95.726901 37.854057 
L 95.588968 37.817098 
L 95.450467 37.782332 
L 95.311431 37.749768 
L 95.171896 37.719414 
L 95.031898 37.691278 
L 94.89147 37.665367 
L 94.750649 37.641686 
L 94.60947 37.620243 
L 94.467968 37.601043 
L 94.32618 37.58409 
L 94.184141 37.569389 
L 94.041886 37.556943 
L 93.899452 37.546756 
L 93.756874 37.53883 
L 93.614188 37.533167 
L 93.47143 37.529769 
L 93.328636 37.528636 
L 82.528636 37.528636 
L 82.385843 37.529769 
L 82.243085 37.533167 
L 82.100399 37.53883 
L 81.957821 37.546756 
L 81.815387 37.556943 
L 81.673132 37.569389 
L 81.531093 37.58409 
L 81.389304 37.601043 
L 81.247803 37.620243 
L 81.106624 37.641686 
L 80.965803 37.665367 
L 80.825375 37.691278 
L 80.685376 37.719414 
L 80.545842 37.749768 
L 80.406806 37.782332 
L 80.268304 37.817098 
L 80.130372 37.854057 
L 79.993043 37.8932 
L 79.856353 37.934516 
L 79.720335 37.977996 
L 79.585025 38.023629 
L 79.450455 38.071403 
L 79.31666 38.121306 
L 79.183674 38.173325 
L 79.05153 38.227448 
L 78.920262 38.28366 
L 78.789901 38.341948 
L 78.660482 38.402297 
L 78.532037 38.464692 
L 78.404598 38.529117 
L 78.278197 38.595556 
L 78.152866 38.663992 
L 78.028636 38.734408 
L 77.90554 38.806786 
L 77.783607 38.881107 
L 77.662869 38.957355 
L 77.543356 39.035508 
L 77.425098 39.115547 
L 77.308124 39.197453 
L 77.192465 39.281204 
L 77.078149 39.36678 
L 76.965205 39.454158 
L 76.853662 39.543318 
L 76.743548 39.634236 
L 76.63489 39.72689 
L 76.527715 39.821256 
L 76.422052 39.917311 
L 76.317925 40.01503 
L 76.215362 40.114389 
L 76.114389 40.215362 
L 76.01503 40.317925 
L 75.917311 40.422052 
L 75.821256 40.527715 
L 75.72689 40.63489 
L 75.634236 40.743548 
L 75.543318 40.853662 
L 75.454158 40.965205 
L 75.36678 41.078149 
L 75.281204 41.192465 
L 75.197453 41.308124 
L 75.115547 41.425098 
L 75.035508 41.543356 
L 74.957355 41.662869 
L 74.881107 41.783607 
L 74.806786 41.90554 
L 74.734408 42.028636 
L 74.663992 42.152866 
L 74.595556 42.278197 
L 74.529117 42.404598 
L 74.464692 42.532037 
L 74.402297 42.660482 
L 74.341948 42.789901 
L 74.28366 42.920262 
L 74.227448 43.05153 
L 74.173325 43.183674 
L 74.121306 43.31666 
L 74.071403 43.450455 
L 74.023629 43.585025 
L 73.977996 43.720335 
L 73.934516 43.856353 
L 73.8932 43.993043 
L 73.854057 44.130372 
L 73.817098 44.268304 
L 73.782332 44.406806 
L 73.749768 44.545842 
L 73.719414 44.685376 
L 73.691278 44.825375 
L 73.665367 44.965803 
L 73.641686 45.106624 
L 73.620243 45.247803 
L 73.601043 45.389304 
L 73.58409 45.531093 
L 73.569389 45.673132 
L 73.556943 45.815387 
L 73.546756 45.957821 
L 73.53883 46.100399 
L 73.533167 46.243085 
L 73.529769 46.385843 
L 73.528636 46.528636 
L 73.528636 57.328636 
L 73.529769 57.47143 
L 73.533167 57.614188 
L 73.53883 57.756874 
L 73.546756 57.899452 
L 73.556943 58.041886 
L 73.569389 58.184141 
L 73.58409 58.32618 
L 73.601043 58.467968 
L 73.620243 58.60947 
L 73.641686 58.750649 
L 73.665367 58.89147 
L 73.691278 59.031898 
L 73.719414 59.171896 
L 73.749768 59.311431 
L 73.782332 59.450467 
L 73.817098 59.588968 
L 73.854057 59.726901 
L 73.8932 59.864229 
L 73.934516 60.00092 
L 73.977996 60.136937 
L 74.023629 60.272248 
L 74.071403 60.406818 
L 74.121306 60.540612 
L 74.173325 60.673598 
L 74.227448 60.805742 
L 74.28366 60.937011 
L 74.341948 61.067371 
L 74.402297 61.196791 
L 74.464692 61.325236 
L 74.529117 61.452675 
L 74.595556 61.579076 
L 74.663992 61.704407 
L 74.734408 61.828636 
L 74.806786 61.951733 
L 74.881107 62.073666 
L 74.957355 62.194404 
L 75.035508 62.313917 
L 75.115547 62.432175 
L 75.197453 62.549149 
L 75.281204 62.664808 
L 75.36678 62.779124 
L 75.454158 62.892067 
L 75.543318 63.00361 
L 75.634236 63.113725 
L 75.72689 63.222383 
L 75.821256 63.329557 
L 75.917311 63.435221 
L 76.01503 63.539347 
L 76.114389 63.64191 
L 76.215362 63.742884 
L 76.317925 63.842243 
L 76.422052 63.939962 
L 76.527715 64.036016 
L 76.63489 64.130382 
L 76.743548 64.223036 
L 76.853662 64.313955 
L 76.965205 64.403114 
L 77.078149 64.490493 
L 77.192465 64.576069 
L 77.308124 64.65982 
L 77.425098 64.741726 
L 77.543356 64.821765 
L 77.662869 64.899918 
L 77.783607 64.976165 
L 77.90554 65.050487 
L 78.028636 65.122865 
L 78.152866 65.193281 
L 78.278197 65.261717 
L 78.404598 65.328155 
L 78.532037 65.39258 
L 78.660482 65.454975 
L 78.789901 65.515324 
L 78.920262 65.573612 
L 79.05153 65.629825 
L 79.183674 65.683948 
L 79.31666 65.735967 
L 79.450455 65.78587 
L 79.585025 65.833644 
L 79.720335 65.879276 
L 79.856353 65.922757 
L 79.993043 65.964073 
L 80.130372 66.003216 
L 80.268304 66.040175 
L 80.406806 66.07494 
L 80.545842 66.107504 
L 80.685376 66.137858 
L 80.825375 66.165995 
L 80.965803 66.191906 
L 81.106624 66.215586 
L 81.247803 66.237029 
L 81.389304 66.25623 
L 81.531093 66.273183 
L 81.673132 66.287884 
L 81.815387 66.300329 
L 81.957821 66.310516 
L 82.100399 66.318442 
L 82.243085 66.324105 
L 82.385843 66.327503 
L 82.528636 66.328636 
z
" clip-path="url(#p85e75c38dc)" style="fill: #ff0000; fill-opacity: 0.2; stroke: #ff0000; stroke-linecap: round"/>
   </g>
   <g id="line2d_1">
    <path d="M 33.928636 105.928636 
L 105.928636 105.928636 
L 105.928636 33.928636 
L 33.928636 33.928636 
L 33.928636 105.928636 
" clip-path="url(#p85e75c38dc)" style="fill: none; stroke: #000000; stroke-width: 1.25; stroke-linecap: round"/>
   </g>
   <g id="line2d_2">
    <path d="M 33.928636 105.928636 
L 105.928636 105.928636 
" clip-path="url(#p85e75c38dc)" style="fill: none; stroke: #000000; stroke-width: 1.25; stroke-linecap: round"/>
   </g>
   <g id="line2d_3">
    <path d="M 33.928636 69.928636 
L 105.928636 69.928636 
" clip-path="url(#p85e75c38dc)" style="fill: none; stroke: #000000; stroke-width: 1.25; stroke-linecap: round"/>
   </g>
   <g id="line2d_4">
    <path d="M 33.928636 105.928636 
L 33.928636 33.928636 
" clip-path="url(#p85e75c38dc)" style="fill: none; stroke: #000000; stroke-width: 1.25; stroke-linecap: round"/>
   </g>
   <g id="line2d_5">
    <path d="M 69.928636 105.928636 
L 69.928636 33.928636 
" clip-path="url(#p85e75c38dc)" style="fill: none; stroke: #000000; stroke-width: 1.25; stroke-linecap: round"/>
   </g>
   <g id="line2d_6">
    <path d="M 33.928636 33.928636 
L 8.472792 8.472792 
" clip-path="url(#p85e75c38dc)" style="fill: none; stroke: #000000; stroke-width: 1.25; stroke-linecap: round"/>
   </g>
   <g id="text_1">
    <!-- A -->
    <g transform="translate(26.74598 12.653081) scale(0.105 -0.105)">
     <defs>
      <path id="DejaVuSans-41" d="M 2188 4044 
L 1331 1722 
L 3047 1722 
L 2188 4044 
z
M 1831 4666 
L 2547 4666 
L 4325 0 
L 3669 0 
L 3244 1197 
L 1141 1197 
L 716 0 
L 50 0 
L 1831 4666 
z
" transform="scale(0.015625)"/>
     </defs>
     <use xlink:href="#DejaVuSans-41"/>
    </g>
   </g>
   <g id="text_2">
    <!-- B -->
    <g transform="translate(7.632769 31.744964) scale(0.105 -0.105)">
     <defs>
      <path id="DejaVuSans-42" d="M 1259 2228 
L 1259 519 
L 2272 519 
Q 2781 519 3026 730 
Q 3272 941 3272 1375 
Q 3272 1813 3026 2020 
Q 2781 2228 2272 2228 
L 1259 2228 
z
M 1259 4147 
L 1259 2741 
L 2194 2741 
Q 2656 2741 2882 2914 
Q 3109 3088 3109 3444 
Q 3109 3797 2882 3972 
Q 2656 4147 2194 4147 
L 1259 4147 
z
M 628 4666 
L 2241 4666 
Q 2963 4666 3353 4366 
Q 3744 4066 3744 3513 
Q 3744 3084 3544 2831 
Q 3344 2578 2956 2516 
Q 3422 2416 3680 2098 
Q 3938 1781 3938 1306 
Q 3938 681 3513 340 
Q 3088 0 2303 0 
L 628 0 
L 628 4666 
z
" transform="scale(0.015625)"/>
     </defs>
     <use xlink:href="#DejaVuSans-42"/>
    </g>
   </g>
   <g id="text_3">
    <!-- 0 -->
    <g transform="translate(49.224574 30.360902) scale(0.085 -0.085)">
     <defs>
      <path id="DejaVuSans-30" d="M 2034 4250 
Q 1547 4250 1301 3770 
Q 1056 3291 1056 2328 
Q 1056 1369 1301 889 
Q 1547 409 2034 409 
Q 2525 409 2770 889 
Q 3016 1369 3016 2328 
Q 3016 3291 2770 3770 
Q 2525 4250 2034 4250 
z
M 2034 4750 
Q 2819 4750 3233 4129 
Q 3647 3509 3647 2328 
Q 3647 1150 3233 529 
Q 2819 -91 2034 -91 
Q 1250 -91 836 529 
Q 422 1150 422 2328 
Q 422 3509 836 4129 
Q 1250 4750 2034 4750 
z
" transform="scale(0.015625)"/>
     </defs>
     <use xlink:href="#DejaVuSans-30"/>
    </g>
   </g>
   <g id="text_4">
    <!-- 1 -->
    <g transform="translate(85.224574 30.360902) scale(0.085 -0.085)">
     <defs>
      <path id="DejaVuSans-31" d="M 794 531 
L 1825 531 
L 1825 4091 
L 703 3866 
L 703 4441 
L 1819 4666 
L 2450 4666 
L 2450 531 
L 3481 531 
L 3481 0 
L 794 0 
L 794 531 
z
" transform="scale(0.015625)"/>
     </defs>
     <use xlink:href="#DejaVuSans-31"/>
    </g>
   </g>
   <g id="text_5">
    <!-- 0 -->
    <g transform="translate(24.920511 54.274105) scale(0.085 -0.085)">
     <use xlink:href="#DejaVuSans-30"/>
    </g>
   </g>
   <g id="text_6">
    <!-- 1 -->
    <g transform="translate(24.920511 90.274105) scale(0.085 -0.085)">
     <use xlink:href="#DejaVuSans-31"/>
    </g>
   </g>
   <g id="text_7">
    <!-- 0 -->
    <g transform="translate(48.588324 54.82598) scale(0.105 -0.105)">
     <use xlink:href="#DejaVuSans-30"/>
    </g>
   </g>
   <g id="text_8">
    <!-- 1 -->
    <g transform="translate(48.588324 90.82598) scale(0.105 -0.105)">
     <use xlink:href="#DejaVuSans-31"/>
    </g>
   </g>
   <g id="text_9">
    <!-- 1 -->
    <g transform="translate(84.588324 54.82598) scale(0.105 -0.105)">
     <use xlink:href="#DejaVuSans-31"/>
    </g>
   </g>
   <g id="text_10">
    <!-- 0 -->
    <g transform="translate(84.588324 90.82598) scale(0.105 -0.105)">
     <use xlink:href="#DejaVuSans-30"/>
    </g>
   </g>
  </g>
 </g>
 <defs>
  <clipPath id="p85e75c38dc">
   <rect x="3.6" y="3.6" width="107.201429" height="107.201429"/>
  </clipPath>
 </defs>
</svg>
